STARTFONT 2.1
COMMENT
COMMENT Converted from OpenType font "OpenSans-Italic.ttf" by "otf2bdf 3.0".
COMMENT
FONT -FreeType-Open Sans-Medium-I-Normal--77-560-100-100-P-397-ISO10646-1
SIZE 56 100 100
FONTBOUNDINGBOX 134 104 -38 -21
STARTPROPERTIES 19
FOUNDRY "FreeType"
FAMILY_NAME "Open Sans"
WEIGHT_NAME "Medium"
SLANT "I"
SETWIDTH_NAME "Normal"
ADD_STYLE_NAME ""
PIXEL_SIZE 77
POINT_SIZE 560
RESOLUTION_X 100
RESOLUTION_Y 100
SPACING "P"
AVERAGE_WIDTH 397
CHARSET_REGISTRY "ISO10646"
CHARSET_ENCODING "1"
FONT_ASCENT 83
FONT_DESCENT 22
COPYRIGHT "Copyright 2020 The Open Sans Project Authors (https://github.com/googlefonts/opensans)"
_OTF_FONTFILE "OpenSans-Italic.ttf"
_OTF_PSNAME "OpenSans-Italic"
ENDPROPERTIES
CHARS 1010
STARTCHAR 0000
ENCODING 0
SWIDTH 0 0
DWIDTH 0 0
BBX 0 0 0 0
BITMAP
ENDCHAR
STARTCHAR 000D
ENCODING 13
SWIDTH 257 0
DWIDTH 20 0
BBX 0 0 0 0
BITMAP
ENDCHAR
STARTCHAR 0020
ENCODING 32
SWIDTH 257 0
DWIDTH 20 0
BBX 0 0 0 0
BITMAP
ENDCHAR
STARTCHAR 0021
ENCODING 33
SWIDTH 244 0
DWIDTH 19 0
BBX 19 57 2 -1
BITMAP
001FE0
001FE0
001FC0
001FC0
001FC0
003FC0
003F80
003F80
003F80
003F80
007F00
007F00
007F00
007F00
007F00
007E00
00FE00
00FE00
00FE00
00FC00
00FC00
01FC00
01FC00
01F800
01F800
01F800
01F800
03F000
03F000
03F000
03F000
03E000
07E000
07E000
07E000
07C000
07C000
07C000
0FC000
0F8000
0F8000
000000
000000
000000
000000
000000
000000
1E0000
7F0000
7F8000
FF8000
FF8000
FF8000
FF0000
FF0000
FE0000
7C0000
ENDCHAR
STARTCHAR 0022
ENCODING 34
SWIDTH 372 0
DWIDTH 29 0
BBX 23 21 8 35
BITMAP
1FC0FE
1FC0FE
1FC0FE
1F80FC
1F80FC
1F80FC
3F80FC
3F01F8
3F01F8
3F01F8
3E01F0
3E01F0
3E01F0
7E01F0
7C03E0
7C03E0
7C03E0
7803E0
7803C0
7803C0
F803C0
ENDCHAR
STARTCHAR 0023
ENCODING 35
SWIDTH 630 0
DWIDTH 49 0
BBX 49 56 2 0
BITMAP
000007E003E000
000007C003E000
000007C003E000
000007C007C000
00000FC007C000
00000F8007C000
00000F8007C000
00000F800F8000
00001F000F8000
00001F000F8000
00001F001F0000
00003F001F0000
00003E001F0000
00003E001F0000
00003E003E0000
00007C003E0000
00007C003E0000
07FFFFFFFFFF80
07FFFFFFFFFF00
07FFFFFFFFFF00
07FFFFFFFFFF00
07FFFFFFFFFF00
0001F000F80000
0001F000F80000
0001F001F00000
0003E001F00000
0003E001F00000
0003E003E00000
0003E003E00000
0007C003E00000
0007C003E00000
0007C007C00000
000F8007C00000
000F8007C00000
000F800F800000
7FFFFFFFFFF000
7FFFFFFFFFF000
7FFFFFFFFFF000
FFFFFFFFFFF000
FFFFFFFFFFF000
003E001F000000
003E003E000000
007E003E000000
007C003E000000
007C003E000000
007C007C000000
00F8007C000000
00F8007C000000
00F800F8000000
01F800F8000000
01F000F8000000
01F001F8000000
01F001F0000000
03E001F0000000
03E003F0000000
03E003E0000000
ENDCHAR
STARTCHAR 0024
ENCODING 36
SWIDTH 540 0
DWIDTH 42 0
BBX 38 64 3 -5
BITMAP
000000F000
000001F000
000001F000
000001F000
000001E000
000003E000
000003E000
00007FFF00
0001FFFFE0
0007FFFFFC
001FFFFFF8
003FFFFFF8
007FC7C3F0
00FF07C070
00FE078000
01FC0F8000
01F80F8000
01F80F8000
01F00F8000
03F00F0000
03F01F0000
03F01F0000
01F81F0000
01F81E0000
01FC3E0000
01FE3E0000
00FFBE0000
007FFE0000
007FFC0000
001FFF0000
000FFFC000
0003FFF000
0000FFF800
00007FFC00
0000FBFE00
0000F9FF00
0000F87F00
0000F03F80
0001F03F80
0001F01F80
0001F01F80
0001F01F80
0001E01F80
0003E01F80
0003E03F00
0003E03F00
0003C07F00
C003C0FE00
F807C3FC00
FF87DFFC00
FFFFFFF800
FFFFFFE000
FFFFFFC000
1FFFFE0000
01FFF00000
000F800000
000F000000
001F000000
001F000000
001F000000
001E000000
001E000000
003E000000
003E000000
ENDCHAR
STARTCHAR 0025
ENCODING 37
SWIDTH 784 0
DWIDTH 61 0
BBX 52 57 6 -1
BITMAP
001FE000000FC0
007FF800001F80
01FFFC00001F00
03FFFC00003E00
03FDFE00007E00
07E07E0000FC00
0FC03F0000F800
0F803F0001F800
1F801F0003F000
1F001F0007E000
3F001F0007C000
3F001F000FC000
3E001F001F8000
3E001F003F0000
7E003F003E0000
7C003F007E0000
7C003E00FC0000
7C003E01F80000
7C003E01F00000
FC007E03F00000
FC007C07E00000
FC007C0FC00000
F8007C0F80FE00
F800FC1F87FF80
FC00F83F0FFFC0
FC01F87E1FFFE0
FC01F07C3FFFE0
7C03F0FC7F07F0
7E07E1F87E03F0
7F1FC1F0FC01F0
3FFFC3E0F801F0
3FFF87E1F801F0
1FFE0FC1F001F0
07FC0F83F001F0
00001F03F001F0
00003F03E001F0
00007E03E001F0
00007C07E001F0
0000FC07E003F0
0001F807C003F0
0003F007C003E0
0003E007C003E0
0007E007C003E0
000FC007C007E0
001F8007C007C0
001F0007C007C0
003F0007C00FC0
007E0007C00F80
00FC0007C01F80
00F80007C03F00
01F80007E03F00
03F00007F0FE00
07E00003FFFC00
07C00003FFF800
0FC00001FFF000
1F8000007FE000
000000001F0000
ENDCHAR
STARTCHAR 0026
ENCODING 38
SWIDTH 668 0
DWIDTH 52 0
BBX 47 57 3 -1
BITMAP
00000FFE0000
00007FFF8000
0000FFFFC000
0001FFFFE000
0003FFFFF000
0007F807F800
000FF003F800
000FE001F800
000FC001FC00
001F8001FC00
001F8001FC00
001F8000FC00
001F8001FC00
001F8001F800
001F8001F800
001F8003F800
001F8007F000
001F800FF000
001FC01FE000
000FC03FC000
000FE0FF8000
0007E3FE0000
0007FFFC0000
0003FFF00000
0003FFC00000
0003FF000000
000FFE000000
003FFE000000
007FFF000000
01FFBF800000
03FE3F8000FE
07F81FC000FC
0FF00FE000FC
1FC00FE001F8
3F8007F003F8
3F0003F803F0
7F0001FC07F0
7E0001FC07E0
FE0000FE0FC0
FC00007F1FC0
FC00007F3F80
FC00003FFF00
FC00001FFE00
FC00000FFC00
FC00000FFC00
FC000007F800
FE00000FF800
FE00003FFC00
FF00007FFC00
7F8001FFFE00
7FC007FE7F00
3FFFFFFC7F80
1FFFFFF03F80
0FFFFFE01FC0
07FFFF801FE0
01FFFC000FF0
003FC0000000
ENDCHAR
STARTCHAR 0027
ENCODING 39
SWIDTH 205 0
DWIDTH 16 0
BBX 10 21 8 35
BITMAP
1FC0
1FC0
1FC0
1F80
1F80
1F80
3F80
3F00
3F00
3F00
3E00
3E00
3E00
7E00
7C00
7C00
7C00
7800
7800
7800
F800
ENDCHAR
STARTCHAR 0028
ENCODING 40
SWIDTH 282 0
DWIDTH 22 0
BBX 25 68 3 -12
BITMAP
00001F80
00003F00
00007E00
0000FC00
0001FC00
0001F800
0003F000
0007E000
000FE000
000FC000
001F8000
003F8000
003F0000
007E0000
00FE0000
00FC0000
01FC0000
01F80000
03F80000
03F00000
07F00000
07E00000
0FE00000
0FC00000
0FC00000
1FC00000
1F800000
1F800000
3F800000
3F000000
3F000000
3F000000
7F000000
7E000000
7E000000
7E000000
7E000000
FE000000
FC000000
FC000000
FC000000
FC000000
FC000000
FC000000
FC000000
FC000000
FC000000
FC000000
FC000000
FC000000
FC000000
FC000000
FC000000
7E000000
7E000000
7E000000
7E000000
7E000000
3E000000
3F000000
3F000000
1F000000
1F000000
1F800000
0F800000
0F800000
07C00000
07C00000
ENDCHAR
STARTCHAR 0029
ENCODING 41
SWIDTH 282 0
DWIDTH 22 0
BBX 24 68 -5 -12
BITMAP
0003E0
0003E0
0003F0
0001F0
0001F8
0000F8
0000F8
0000FC
0000FC
00007C
00007E
00007E
00007E
00007E
00003E
00003F
00003F
00003F
00003F
00003F
00003F
00003F
00003F
00003F
00003F
00003F
00003F
00003F
00003F
00003F
00003F
00007F
00007E
00007E
00007E
00007E
00007E
0000FE
0000FC
0000FC
0001FC
0001F8
0001F8
0001F8
0003F0
0003F0
0007F0
0007E0
000FE0
000FC0
000FC0
001F80
003F80
003F00
007F00
007E00
00FC00
00FC00
01F800
03F000
07F000
07E000
0FC000
1F8000
3F0000
3F0000
7E0000
FC0000
ENDCHAR
STARTCHAR 002A
ENCODING 42
SWIDTH 540 0
DWIDTH 42 0
BBX 36 35 8 24
BITMAP
00003C0000
00003F0000
00003F0000
00007E0000
00007E0000
00007E0000
00007C0000
00007C0000
30007C0000
3C007C0000
7F00780000
7FC0780000
FFF0F80000
7FFCF00000
0FFFF00000
01FFFFFFF0
003FFFFFE0
0007FFFFE0
0007FFFFE0
000FF87FE0
001FF80000
003F7C0000
007E7C0000
00FC3E0000
01F83E0000
03F83E0000
07F01F0000
0FE01F0000
1FC01F8000
0FC01F8000
07800FC000
03000FC000
00000FE000
000007E000
0000070000
ENDCHAR
STARTCHAR 002B
ENCODING 43
SWIDTH 565 0
DWIDTH 44 0
BBX 37 37 5 9
BITMAP
0000F80000
0000F80000
0000F80000
0000F80000
0000F80000
0000F80000
0000F80000
0000F80000
0000F80000
0000F80000
0000F80000
0000F80000
0000F80000
0000F80000
0000F80000
0000F80000
FFFFFFFFF8
FFFFFFFFF8
FFFFFFFFF8
FFFFFFFFF8
FFFFFFFFF8
0000F80000
0000F80000
0000F80000
0000F80000
0000F80000
0000F80000
0000F80000
0000F80000
0000F80000
0000F80000
0000F80000
0000F80000
0000F80000
0000F80000
0000F80000
0000F80000
ENDCHAR
STARTCHAR 002C
ENCODING 44
SWIDTH 244 0
DWIDTH 19 0
BBX 14 19 -3 -10
BITMAP
01FC
01FC
03FC
03F8
03F8
07F0
07F0
07E0
0FE0
0FC0
1FC0
1F80
3F00
3F00
3E00
7E00
7C00
F800
F800
ENDCHAR
STARTCHAR 002D
ENCODING 45
SWIDTH 308 0
DWIDTH 24 0
BBX 20 6 2 18
BITMAP
7FFFF0
7FFFE0
7FFFE0
7FFFE0
FFFFE0
FFFFE0
ENDCHAR
STARTCHAR 002E
ENCODING 46
SWIDTH 244 0
DWIDTH 19 0
BBX 9 10 2 -1
BITMAP
1E00
7F00
7F80
FF80
FF80
FF80
FF00
FF00
FE00
7C00
ENDCHAR
STARTCHAR 002F
ENCODING 47
SWIDTH 347 0
DWIDTH 27 0
BBX 37 56 -3 0
BITMAP
00000003F8
00000003F0
00000007F0
00000007E0
0000000FE0
0000000FC0
0000001FC0
0000003F80
0000003F00
0000007F00
0000007E00
000000FE00
000000FC00
000001FC00
000001F800
000003F800
000007F000
000007E000
00000FE000
00000FC000
00001FC000
00001F8000
00003F8000
00003F0000
00007F0000
0000FE0000
0000FC0000
0001FC0000
0001F80000
0003F80000
0003F00000
0007F00000
0007E00000
000FE00000
001FC00000
001F800000
003F800000
003F000000
007F000000
007E000000
00FE000000
00FC000000
01FC000000
03F8000000
03F0000000
07F0000000
07E0000000
0FE0000000
0FC0000000
1FC0000000
1F80000000
3F80000000
7F00000000
7E00000000
FE00000000
FC00000000
ENDCHAR
STARTCHAR 0030
ENCODING 48
SWIDTH 540 0
DWIDTH 42 0
BBX 37 57 5 -1
BITMAP
00007FF000
0001FFFC00
0007FFFE00
000FFFFF80
001FFFFF80
003FF07FC0
007F801FE0
00FF000FE0
01FE000FE0
01FC0007F0
03F80007F0
07F80007F0
07F00003F0
0FF00003F0
0FE00003F0
0FC00003F0
1FC00003F8
1FC00003F8
1F800003F8
3F800003F0
3F800003F0
3F000003F0
7F000003F0
7F000003F0
7F000003F0
7E000007F0
7E000007F0
FE000007F0
FE000007F0
FE000007E0
FC000007E0
FC000007E0
FC00000FE0
FC00000FE0
FC00000FC0
FC00000FC0
FC00001FC0
FC00001FC0
FC00001F80
FC00003F80
FC00003F80
FC00007F00
FC00007F00
FC0000FE00
FE0000FE00
FE0001FC00
FE0003FC00
7F0003F800
7F0007F000
3F801FF000
3FC03FE000
1FFFFFC000
1FFFFF8000
0FFFFE0000
03FFFC0000
01FFF00000
001F000000
ENDCHAR
STARTCHAR 0031
ENCODING 49
SWIDTH 540 0
DWIDTH 42 0
BBX 23 56 11 0
BITMAP
00003E
0000FE
0003FE
0007FE
001FFC
003FFC
00FFFC
01FFFC
07FFFC
1FFDF8
3FF1F8
FFE1F8
7F83F8
3F03F0
3C03F0
1803F0
0007F0
0007F0
0007E0
0007E0
0007E0
000FE0
000FE0
000FC0
000FC0
001FC0
001FC0
001F80
001F80
001F80
003F80
003F80
003F00
003F00
003F00
007F00
007F00
007E00
007E00
00FE00
00FE00
00FC00
00FC00
00FC00
01FC00
01FC00
01F800
01F800
01F800
03F800
03F800
03F000
03F000
07F000
07F000
07E000
ENDCHAR
STARTCHAR 0032
ENCODING 50
SWIDTH 540 0
DWIDTH 42 0
BBX 41 56 0 0
BITMAP
00000FFF0000
00003FFFE000
0001FFFFF000
0003FFFFF800
000FFFFFFC00
001FFE07FE00
001FE001FF00
000F8000FF00
000700007F00
000400003F80
000000003F80
000000003F80
000000003F80
000000003F80
000000003F80
000000003F80
000000003F00
000000003F00
000000007F00
000000007F00
00000000FE00
00000000FE00
00000001FC00
00000003F800
00000003F800
00000007F000
0000000FE000
0000001FC000
0000003F8000
0000007F0000
000000FF0000
000001FC0000
000007F80000
00000FF00000
00001FE00000
00003FC00000
00007F800000
0000FF000000
0001FE000000
0003FC000000
0007F8000000
000FE0000000
003FC0000000
007F80000000
00FF00000000
01FE00000000
03FC00000000
07F800000000
0FE000000000
1FC000000000
3FFFFFFFE000
7FFFFFFFE000
7FFFFFFFE000
7FFFFFFFE000
7FFFFFFFE000
FFFFFFFFC000
ENDCHAR
STARTCHAR 0033
ENCODING 51
SWIDTH 540 0
DWIDTH 42 0
BBX 39 57 2 -1
BITMAP
00003FFE00
0001FFFF80
0007FFFFE0
001FFFFFF0
007FFFFFF8
007FF01FF8
007F8007FC
003E0001FC
00180001FC
00100000FE
00000000FE
00000000FE
00000000FE
00000000FE
00000000FE
00000000FC
00000000FC
00000001FC
00000001F8
00000003F8
00000007F0
0000000FE0
0000003FC0
000000FF80
00000FFF00
000FFFFC00
000FFFF000
000FFF0000
000FFFE000
001FFFF800
000007FE00
000001FF00
0000007F80
0000003F80
0000001FC0
0000001FC0
0000001FC0
0000000FC0
0000000FE0
0000000FE0
0000000FE0
0000000FC0
0000000FC0
0000001FC0
0000001FC0
0000001FC0
0000003F80
0000007F80
C00000FF00
F00001FE00
FE000FFE00
FFFFFFFC00
FFFFFFF800
FFFFFFE000
7FFFFF8000
0FFFFE0000
003FC00000
ENDCHAR
STARTCHAR 0034
ENCODING 52
SWIDTH 540 0
DWIDTH 42 0
BBX 41 56 1 0
BITMAP
00000000FF00
00000001FE00
00000001FE00
00000003FE00
00000007FE00
0000000FFE00
0000001FFC00
0000003F7C00
0000007F7C00
0000007EFC00
000000FCFC00
000001F8F800
000003F9F800
000007F1F800
00000FE1F800
00001FC1F800
00001F83F000
00003F03F000
00007F03F000
0000FE03F000
0001FC07E000
0003F807E000
0007F007E000
0007E007E000
000FC00FE000
001FC00FC000
003F800FC000
007F000FC000
00FE000FC000
01FC001FC000
01F8001F8000
03F0001F8000
07F0001F8000
0FE0001F8000
1FC0003F8000
3F80003F0000
7F00003F0000
7FFFFFFFFF80
FFFFFFFFFF00
FFFFFFFFFF00
FFFFFFFFFF00
FFFFFFFFFF00
FFFFFFFFFF00
000000FE0000
000000FC0000
000000FC0000
000000FC0000
000000FC0000
000001F80000
000001F80000
000001F80000
000001F80000
000003F80000
000003F00000
000003F00000
000003F00000
ENDCHAR
STARTCHAR 0035
ENCODING 53
SWIDTH 540 0
DWIDTH 42 0
BBX 39 57 3 -1
BITMAP
0007FFFFFE
0007FFFFFE
0007FFFFFC
000FFFFFFC
000FFFFFFC
000FFFFFFC
001F800000
001F800000
001F800000
001F800000
003F000000
003F000000
003F000000
007E000000
007E000000
007E000000
007C000000
00FC000000
00FC000000
00FC000000
01F8000000
01F8000000
01F9FF0000
01FFFFE000
03FFFFF800
03FFFFFC00
03FFFFFE00
01FC07FF00
008001FF80
0000007F80
0000003FC0
0000001FC0
0000001FC0
0000000FC0
0000000FE0
0000000FE0
0000000FE0
0000000FE0
0000000FE0
0000000FE0
0000000FC0
0000000FC0
0000001FC0
0000001FC0
0000001F80
0000003F80
0000007F80
000000FF00
800001FE00
F00003FE00
FC001FFC00
FFFFFFF800
FFFFFFE000
FFFFFFC000
7FFFFF0000
0FFFFC0000
007F000000
ENDCHAR
STARTCHAR 0036
ENCODING 54
SWIDTH 540 0
DWIDTH 42 0
BBX 37 57 5 -1
BITMAP
000001FFF8
00000FFFF8
00003FFFF8
0000FFFFF8
0001FFFFF8
0007FF8030
000FFC0000
001FF00000
003FC00000
007F800000
007F000000
00FE000000
01FC000000
01FC000000
03F8000000
03F0000000
07F0000000
07E0000000
0FE0000000
0FC0000000
1FC0000000
1F803F8000
1F81FFE000
3F87FFF800
3F9FFFFC00
3F3FFFFE00
3F7F87FF00
7FFC00FF00
7FF0007F80
7FE0003F80
7FC0001F80
7F80001FC0
FF00001FC0
FF00001FC0
FE00001FC0
FE00000FC0
FE00000FC0
FC00001FC0
FC00001FC0
FC00001F80
FC00001F80
FC00001F80
FC00003F80
FC00003F00
FE00007F00
FE00007F00
7E0000FE00
7F0000FE00
7F8001FC00
3F8007F800
3FE00FF800
1FFFFFF000
0FFFFFE000
07FFFF8000
03FFFF0000
00FFFC0000
000F800000
ENDCHAR
STARTCHAR 0037
ENCODING 55
SWIDTH 540 0
DWIDTH 42 0
BBX 37 56 7 0
BITMAP
1FFFFFFFF8
3FFFFFFFF8
3FFFFFFFF0
3FFFFFFFF0
3FFFFFFFF0
3FFFFFFFF0
00000007E0
0000000FE0
0000001FC0
0000001F80
0000003F80
0000003F00
0000007F00
0000007E00
000000FE00
000001FC00
000001F800
000003F800
000003F000
000007F000
00000FE000
00000FC000
00001FC000
00001F8000
00003F8000
00007F0000
00007F0000
0000FE0000
0000FC0000
0001FC0000
0001F80000
0003F80000
0007F00000
0007E00000
000FE00000
000FC00000
001FC00000
003F800000
003F800000
007F000000
007E000000
00FE000000
01FC000000
01FC000000
03F8000000
03F8000000
07F0000000
07E0000000
0FE0000000
1FC0000000
1FC0000000
3F80000000
3F00000000
7F00000000
FE00000000
FE00000000
ENDCHAR
STARTCHAR 0038
ENCODING 56
SWIDTH 540 0
DWIDTH 42 0
BBX 39 57 3 -1
BITMAP
00001FFE00
00007FFF80
0001FFFFE0
0007FFFFF0
000FFFFFF8
000FF80FF8
001FE003FC
003FC001FC
003F8000FE
007F0000FE
007F00007E
007E00007E
007E00007E
007E00007E
007E00007E
007E0000FE
007E0000FC
007E0001FC
007F0001F8
003F0003F8
003F8007F0
001FC01FE0
001FE07FC0
000FF1FF80
0007FFFE00
0001FFF800
0001FFE000
000FFFE000
003FFFF000
007FFFF800
01FF83FE00
03FE01FE00
07F800FF00
0FF0003F80
1FC0003F80
3F80001FC0
3F80000FC0
7F00000FE0
7F00000FE0
7E00000FE0
7E00000FE0
7E00000FE0
FE00000FE0
7E00000FE0
7E00000FC0
7E00001FC0
7F00001FC0
7F00003F80
3F80007F80
3FC000FF00
1FF003FF00
1FFF7FFE00
0FFFFFFC00
07FFFFF000
01FFFFE000
007FFF0000
0007F00000
ENDCHAR
STARTCHAR 0039
ENCODING 57
SWIDTH 540 0
DWIDTH 42 0
BBX 37 57 4 -1
BITMAP
00007FF000
0003FFFC00
000FFFFE00
001FFFFF00
003FFFFF80
007FC07FC0
00FF001FC0
01FE000FE0
03F8000FE0
03F80007F0
07F00007F0
07E00003F0
0FE00003F0
0FC00003F0
0FC00003F8
1FC00003F8
1FC00003F8
1F800003F8
1F800003F8
1F800003F8
1F800003F0
1F800003F0
1F800007F0
1F800007F0
1FC0000FF0
1FC0001FF0
0FC0003FF0
0FE0007FF0
0FF000FFE0
07FC03F7E0
07FFFFE7E0
03FFFFCFE0
01FFFF8FC0
007FFE0FC0
001FF81FC0
0000001F80
0000001F80
0000003F80
0000003F00
0000003F00
0000007F00
0000007E00
000000FE00
000001FC00
000001FC00
000003F800
000007F000
00000FF000
00001FE000
00007FC000
E003FF8000
FFFFFF0000
FFFFFE0000
FFFFF80000
FFFFE00000
FFFF800000
0FF0000000
ENDCHAR
STARTCHAR 003A
ENCODING 58
SWIDTH 244 0
DWIDTH 19 0
BBX 15 44 2 -1
BITMAP
0010
00FC
01FE
01FE
03FE
03FE
03FE
03FC
03FC
01F8
0000
0000
0000
0000
0000
0000
0000
0000
0000
0000
0000
0000
0000
0000
0000
0000
0000
0000
0000
0000
0000
0000
0000
0000
1E00
7F00
7F80
FF80
FF80
FF80
FF00
FF00
FE00
7C00
ENDCHAR
STARTCHAR 003B
ENCODING 59
SWIDTH 244 0
DWIDTH 19 0
BBX 21 53 -4 -10
BITMAP
000040
0003F0
0007F8
0007F8
000FF8
000FF8
000FF8
000FF0
000FF0
0007E0
000000
000000
000000
000000
000000
000000
000000
000000
000000
000000
000000
000000
000000
000000
000000
000000
000000
000000
000000
000000
000000
000000
000000
000000
00FE00
01FE00
01FC00
01FC00
03F800
03F800
07F000
07F000
07E000
0FE000
0FC000
1FC000
1F8000
1F0000
3F0000
3E0000
7E0000
7C0000
F80000
ENDCHAR
STARTCHAR 003C
ENCODING 60
SWIDTH 565 0
DWIDTH 44 0
BBX 37 38 5 9
BITMAP
0000000008
0000000038
00000000F8
00000003F8
0000000FF8
0000003FF8
000000FFE0
000003FF80
00000FFE00
00003FF800
0000FFC000
0003FF0000
000FFC0000
003FF00000
01FFC00000
07FF000000
1FFC000000
7FF0000000
FFC0000000
FE00000000
FFC0000000
FFF0000000
3FFC000000
07FF800000
01FFE00000
007FF80000
000FFF0000
0003FFC000
0000FFF000
00003FFE00
000007FF80
000001FFE0
0000007FF8
0000001FF8
00000003F8
00000000F8
0000000038
0000000008
ENDCHAR
STARTCHAR 003D
ENCODING 61
SWIDTH 565 0
DWIDTH 44 0
BBX 36 21 6 17
BITMAP
FFFFFFFFF0
FFFFFFFFF0
FFFFFFFFF0
FFFFFFFFF0
FFFFFFFFF0
0000000000
0000000000
0000000000
0000000000
0000000000
0000000000
0000000000
0000000000
0000000000
0000000000
0000000000
FFFFFFFFF0
FFFFFFFFF0
FFFFFFFFF0
FFFFFFFFF0
FFFFFFFFF0
ENDCHAR
STARTCHAR 003E
ENCODING 62
SWIDTH 565 0
DWIDTH 44 0
BBX 37 38 5 9
BITMAP
C000000000
F000000000
FC00000000
FF00000000
FFC0000000
FFF0000000
3FFC000000
07FF000000
01FFC00000
007FF00000
001FFC0000
0007FF0000
0001FFC000
00007FF000
00001FFC00
000007FF00
000000FFC0
0000003FF0
0000000FF8
00000003F8
0000000FF8
0000003FF8
000001FFE0
000007FF80
00001FFC00
0000FFF000
0003FFC000
000FFF0000
007FF80000
01FFE00000
0FFF800000
3FFE000000
FFF0000000
FFC0000000
FF00000000
FC00000000
E000000000
8000000000
ENDCHAR
STARTCHAR 003F
ENCODING 63
SWIDTH 424 0
DWIDTH 33 0
BBX 29 57 6 -1
BITMAP
007FF800
03FFFF00
0FFFFF80
3FFFFFC0
3FFFFFE0
1FF07FF0
1F000FF0
0C0007F0
000003F8
000003F8
000003F8
000001F8
000001F8
000001F8
000003F8
000003F8
000003F0
000003F0
000007F0
00000FE0
00001FE0
00003FC0
00007F80
0000FF00
0001FE00
0007FC00
000FF800
001FF000
003FC000
007F8000
00FF0000
01FC0000
01F80000
03F00000
03E00000
07E00000
07C00000
0FC00000
0FC00000
0F800000
0F800000
00000000
00000000
00000000
00000000
00000000
00000000
0E000000
3F800000
7F800000
7F800000
FF800000
FF800000
FF800000
FF000000
7F000000
3C000000
ENDCHAR
STARTCHAR 0040
ENCODING 64
SWIDTH 835 0
DWIDTH 65 0
BBX 60 62 4 -7
BITMAP
0000000FFFF00000
000000FFFFFE0000
000003FFFFFF8000
00001FFFFFFFE000
00003FFFC3FFF000
0000FFE0001FF800
0001FF000003FC00
0007FC000001FE00
000FF00000007F00
001FC00000003F00
003F800000001F80
007F000000001F80
00FE000000000FC0
01FC0000000007C0
01F80000000007E0
03F00007FF0007E0
07E0003FFFE003E0
07E000FFFFF803E0
0FC001FFFFF003E0
0F8003FF1FF003F0
1F8007F003F003F0
1F000FE003F003F0
1F001F8003E001F0
3F003F0003E001F0
3E003F0007E003F0
3E007E0007E003F0
7E007C0007C003F0
7C00FC000FC003F0
7C00F8000FC003E0
7C01F8000FC003E0
FC01F8000F8003E0
FC01F0001F8007E0
FC01F0001F8007C0
FC01F0001F0007C0
FC01F0003F000FC0
FC01F0003F000F80
FC01F0007F001F80
FC01F0007F001F80
FC01F000FF003F00
FC01F801FF007E00
FC01F803FF00FE00
7C00FE0FCF81FC00
7C00FFFF8FFFF800
7E007FFF0FFFF000
7E003FFE07FFE000
7E001FF803FF8000
3F0003C0007C0000
3F00000000000000
1F80000000000000
1F80000000000000
0FC0000000000000
0FE0000000000000
07F0000000000000
03F8000000000000
01FE000000600000
00FF800003E00000
007FF0003FE00000
003FFFFFFFE00000
001FFFFFFFE00000
0007FFFFFF800000
0000FFFFF8000000
00000FFF80000000
ENDCHAR
STARTCHAR 0041
ENCODING 65
SWIDTH 552 0
DWIDTH 43 0
BBX 44 56 -4 0
BITMAP
00000003F800
00000007F800
00000007F800
0000000FF800
0000000FF800
0000001FF800
0000001FFC00
0000003FFC00
0000003FFC00
0000007EFC00
0000007EFC00
000000FCFC00
000001FCFC00
000001F87C00
000003F87E00
000003F07E00
000007F07E00
000007E07E00
00000FE07E00
00000FC07E00
00001FC07E00
00001F807E00
00003F807F00
00007F003F00
00007E003F00
0000FE003F00
0000FC003F00
0001FC003F00
0001F8003F00
0003F8003F00
0003F0003F80
0007F0003F80
000FE0001F80
000FFFFFFF80
001FFFFFFF80
001FFFFFFF80
003FFFFFFF80
003FFFFFFF80
007F00001FC0
007E00001FC0
00FE00000FC0
00FC00000FC0
01FC00000FC0
03F800000FC0
03F800000FC0
07F000000FC0
07F000000FE0
0FE000000FE0
0FE0000007E0
1FC0000007E0
1FC0000007E0
3F80000007E0
3F80000007E0
7F00000007E0
FE00000007F0
FE00000007F0
ENDCHAR
STARTCHAR 0042
ENCODING 66
SWIDTH 591 0
DWIDTH 46 0
BBX 43 56 3 0
BITMAP
000FFFF00000
000FFFFFC000
000FFFFFF800
001FFFFFFC00
001FFFFFFF00
001FFFFFFF00
001F8003FF80
001F80007FC0
003F80003FC0
003F80001FC0
003F00001FE0
003F00000FE0
007F00000FE0
007F00000FE0
007E00000FE0
007E00000FE0
007E00000FC0
00FE00001FC0
00FE00001FC0
00FC00003F80
00FC00003F80
00FC00007F00
01FC0001FE00
01FC0007FC00
01FFFFFFF800
01FFFFFFE000
03FFFFFF0000
03FFFFFE0000
03FFFFFF8000
03FFFFFFE000
03F0001FF000
07F00007F800
07F00003FC00
07E00001FC00
07E00001FC00
07E00000FE00
0FE00000FE00
0FE00000FE00
0FC00000FE00
0FC00000FE00
0FC00000FE00
1FC00000FE00
1FC00000FE00
1F800000FE00
1F800001FC00
3F800003FC00
3F800003F800
3F00000FF800
3F00001FF000
3F00007FE000
7FFFFFFFC000
7FFFFFFF8000
7FFFFFFF0000
7FFFFFFC0000
7FFFFFF00000
FFFFFF000000
ENDCHAR
STARTCHAR 0043
ENCODING 67
SWIDTH 578 0
DWIDTH 45 0
BBX 43 57 6 -1
BITMAP
000001FFF800
00000FFFFF00
00007FFFFFE0
0000FFFFFFE0
0003FFFFFFC0
0007FFF0FFC0
001FFE000780
003FF0000180
007FE0000000
007F80000000
00FF00000000
01FE00000000
03FC00000000
03F800000000
07F800000000
0FF000000000
0FE000000000
0FE000000000
1FC000000000
1FC000000000
3F8000000000
3F8000000000
3F8000000000
7F0000000000
7F0000000000
7F0000000000
7E0000000000
FE0000000000
FE0000000000
FE0000000000
FE0000000000
FE0000000000
FE0000000000
FE0000000000
FE0000000000
FE0000000000
FE0000000000
FE0000000000
FE0000000000
FE0000000000
FE0000000000
FE0000000000
FF0000000000
7F0000000000
7F8000000000
7F8000000000
3FC000000000
3FE000000000
1FF000000000
0FFC00018000
0FFF001F8000
07FFFFFF8000
03FFFFFF8000
00FFFFFF8000
007FFFFF8000
001FFFF80000
0000FF800000
ENDCHAR
STARTCHAR 0044
ENCODING 68
SWIDTH 655 0
DWIDTH 51 0
BBX 46 56 3 0
BITMAP
000FFF800000
000FFFFF8000
000FFFFFF000
001FFFFFFC00
001FFFFFFE00
001FFFFFFF00
001F8007FF80
001F8000FFC0
003F80003FE0
003F80001FF0
003F00000FF0
003F000007F8
007F000007F8
007F000003F8
007E000003FC
007E000001FC
007E000001FC
00FE000001FC
00FE000001FC
00FC000000FC
00FC000000FC
00FC000000FC
01FC000000FC
01FC000000FC
01F8000000FC
01F8000000FC
03F8000001FC
03F8000001FC
03F8000001FC
03F0000001FC
03F0000001FC
07F0000001FC
07F0000003F8
07E0000003F8
07E0000003F8
07E0000007F0
0FE0000007F0
0FE000000FF0
0FC000000FE0
0FC000001FE0
0FC000001FC0
1FC000003FC0
1FC000007F80
1F800000FF00
1F800001FF00
3F800003FE00
3F80000FFC00
3F00001FF800
3F00007FF000
3F0003FFE000
7FFFFFFF8000
7FFFFFFF0000
7FFFFFFC0000
7FFFFFF00000
7FFFFF800000
FFFFF8000000
ENDCHAR
STARTCHAR 0045
ENCODING 69
SWIDTH 514 0
DWIDTH 40 0
BBX 40 56 3 0
BITMAP
000FFFFFFF
000FFFFFFF
000FFFFFFF
001FFFFFFF
001FFFFFFE
001FFFFFFE
001F800000
001F800000
003F800000
003F800000
003F000000
003F000000
007F000000
007F000000
007E000000
007E000000
007E000000
00FE000000
00FE000000
00FC000000
00FC000000
00FC000000
01FC000000
01FC000000
01FFFFFFC0
01FFFFFF80
03FFFFFF80
03FFFFFF80
03FFFFFF80
03FFFFFF80
03F0000000
07F0000000
07F0000000
07E0000000
07E0000000
07E0000000
0FE0000000
0FE0000000
0FC0000000
0FC0000000
0FC0000000
1FC0000000
1FC0000000
1F80000000
1F80000000
3F80000000
3F80000000
3F00000000
3F00000000
3F00000000
7FFFFFFC00
7FFFFFF800
7FFFFFF800
7FFFFFF800
7FFFFFF800
FFFFFFF000
ENDCHAR
STARTCHAR 0046
ENCODING 70
SWIDTH 475 0
DWIDTH 37 0
BBX 40 56 3 0
BITMAP
000FFFFFFF
000FFFFFFF
000FFFFFFF
001FFFFFFF
001FFFFFFE
001FFFFFFE
001F800000
001F800000
003F800000
003F800000
003F000000
003F000000
007F000000
007F000000
007E000000
007E000000
007E000000
00FE000000
00FE000000
00FC000000
00FC000000
00FC000000
01FC000000
01FC000000
01F8000000
01F8000000
03F8000000
03FFFFFF80
03FFFFFF80
03FFFFFF80
03FFFFFF00
07FFFFFF00
07F0000000
07E0000000
07E0000000
07E0000000
0FE0000000
0FE0000000
0FC0000000
0FC0000000
0FC0000000
1FC0000000
1FC0000000
1F80000000
1F80000000
3F80000000
3F80000000
3F00000000
3F00000000
3F00000000
7F00000000
7F00000000
7E00000000
7E00000000
7E00000000
FE00000000
ENDCHAR
STARTCHAR 0047
ENCODING 71
SWIDTH 668 0
DWIDTH 52 0
BBX 45 57 6 -1
BITMAP
000001FFFC00
00000FFFFFC0
00007FFFFFF8
0000FFFFFFF8
0003FFFFFFF8
0007FFE0FFF8
001FFE0007F0
003FF8000070
007FE0000000
00FF80000000
00FF00000000
01FE00000000
03FC00000000
03F800000000
07F800000000
0FF000000000
0FE000000000
1FE000000000
1FC000000000
1FC000000000
3F8000000000
3F8000000000
3F0000000000
7F0000000000
7F0000000000
7F0000000000
7E0000000000
FE00007FFFE0
FE00007FFFC0
FE0000FFFFC0
FE0000FFFFC0
FE0000FFFFC0
FE0000FFFFC0
FE0000001F80
FE0000001F80
FE0000003F80
FE0000003F80
FE0000003F00
FE0000003F00
FE0000003F00
FE0000007F00
FE0000007F00
FF0000007E00
7F0000007E00
7F800000FE00
7F800000FE00
3FC00000FC00
3FE00000FC00
1FF00000FC00
0FFC0001FC00
07FF000FFC00
07FFFFFFF800
01FFFFFFF800
00FFFFFFF800
003FFFFFE000
000FFFFE0000
00007FC00000
ENDCHAR
STARTCHAR 0048
ENCODING 72
SWIDTH 668 0
DWIDTH 52 0
BBX 50 56 3 0
BITMAP
000FE000000FC0
000FC000000FC0
000FC000001FC0
001FC000001FC0
001FC000001F80
001F8000001F80
001F8000001F80
001F8000003F80
003F8000003F00
003F8000003F00
003F0000003F00
003F0000007F00
003F0000007F00
007F0000007E00
007F0000007E00
007E0000007E00
007E000000FE00
00FE000000FE00
00FE000000FC00
00FC000000FC00
00FC000000FC00
00FC000001FC00
01FC000001F800
01FC000001F800
01FFFFFFFFF800
01FFFFFFFFF800
01FFFFFFFFF800
03FFFFFFFFF000
03FFFFFFFFF000
03FFFFFFFFF000
03F0000007F000
03F0000007F000
07F0000007E000
07E0000007E000
07E0000007E000
07E000000FE000
0FE000000FE000
0FE000000FC000
0FC000000FC000
0FC000000FC000
0FC000001FC000
1FC000001F8000
1FC000001F8000
1F8000001F8000
1F8000003F8000
1F8000003F8000
3F8000003F0000
3F8000003F0000
3F0000003F0000
3F0000007F0000
7F0000007F0000
7F0000007E0000
7E0000007E0000
7E0000007E0000
7E000000FE0000
FE000000FE0000
ENDCHAR
STARTCHAR 0049
ENCODING 73
SWIDTH 270 0
DWIDTH 21 0
BBX 18 56 3 0
BITMAP
000FC0
000FC0
000FC0
001FC0
001FC0
001F80
001F80
001F80
003F80
003F00
003F00
003F00
003F00
007F00
007E00
007E00
007E00
00FE00
00FE00
00FC00
00FC00
00FC00
01FC00
01FC00
01F800
01F800
01F800
03F800
03F000
03F000
03F000
07F000
07F000
07E000
07E000
07E000
0FE000
0FE000
0FC000
0FC000
0FC000
1FC000
1F8000
1F8000
1F8000
3F8000
3F8000
3F0000
3F0000
3F0000
7F0000
7F0000
7E0000
7E0000
7E0000
FE0000
ENDCHAR
STARTCHAR 004A
ENCODING 74
SWIDTH 257 0
DWIDTH 20 0
BBX 34 71 -12 -15
BITMAP
0000001FC0
0000001F80
0000001F80
0000003F80
0000003F80
0000003F00
0000003F00
0000003F00
0000007F00
0000007F00
0000007E00
0000007E00
0000007E00
000000FE00
000000FE00
000000FC00
000000FC00
000001FC00
000001FC00
000001FC00
000001F800
000001F800
000003F800
000003F800
000003F000
000003F000
000003F000
000007F000
000007F000
000007E000
000007E000
00000FE000
00000FE000
00000FE000
00000FC000
00000FC000
00001FC000
00001FC000
00001F8000
00001F8000
00001F8000
00003F8000
00003F8000
00003F0000
00003F0000
00003F0000
00007F0000
00007F0000
00007E0000
00007E0000
0000FE0000
0000FE0000
0000FE0000
0000FC0000
0000FC0000
0001FC0000
0001FC0000
0001F80000
0001F80000
0003F80000
0003F00000
0007F00000
000FF00000
001FE00000
807FC00000
FFFFC00000
FFFF800000
FFFF000000
FFFC000000
FFF0000000
0E00000000
ENDCHAR
STARTCHAR 004B
ENCODING 75
SWIDTH 552 0
DWIDTH 43 0
BBX 47 56 3 0
BITMAP
000FC00000FE
000FC00001FC
000FC00003F8
001FC00007F0
001FC0000FE0
001F80001FC0
001F80003F80
001F80007F00
003F8000FE00
003F0001FC00
003F0003F800
003F0007F000
007F000FE000
007F001FC000
007E003F8000
007E007F0000
007E00FE0000
00FE01FC0000
00FE03F80000
00FC07F00000
00FC0FE00000
00FC1FC00000
01FC3F800000
01FC7F000000
01F8FE000000
01F9FE000000
03FBFF000000
03FFFF000000
03FFFF800000
03FFBF800000
03FF1F800000
07FC1FC00000
07F80FC00000
07F00FE00000
07E007E00000
07E007F00000
0FE007F00000
0FE003F00000
0FC003F80000
0FC001F80000
0FC001FC0000
1FC001FC0000
1F8000FE0000
1F8000FE0000
1F80007E0000
3F80007F0000
3F80007F0000
3F00003F8000
3F00003F8000
3F00001FC000
7F00001FC000
7F00000FC000
7E00000FE000
7E00000FE000
7E000007F000
FE000007F000
ENDCHAR
STARTCHAR 004C
ENCODING 76
SWIDTH 475 0
DWIDTH 37 0
BBX 30 56 3 0
BITMAP
000FC000
000FC000
000FC000
001FC000
001FC000
001F8000
001F8000
001F8000
003F8000
003F0000
003F0000
003F0000
007F0000
007F0000
007E0000
007E0000
007E0000
00FE0000
00FE0000
00FC0000
00FC0000
00FC0000
01FC0000
01FC0000
01F80000
01F80000
03F80000
03F80000
03F00000
03F00000
03F00000
07F00000
07F00000
07E00000
07E00000
07E00000
0FE00000
0FE00000
0FC00000
0FC00000
0FC00000
1FC00000
1F800000
1F800000
1F800000
3F800000
3F800000
3F000000
3F000000
3F000000
7FFFFFFC
7FFFFFF8
7FFFFFF8
7FFFFFF8
7FFFFFF8
FFFFFFF0
ENDCHAR
STARTCHAR 004D
ENCODING 77
SWIDTH 835 0
DWIDTH 65 0
BBX 62 56 3 0
BITMAP
000FF80000000FFC
000FF80000000FFC
001FF80000001FFC
001FF80000001FFC
001FFC0000003FF8
001FFC0000003FF8
001FFC0000007FF8
003FFC0000007FF8
003FFC000000FDF8
003F7C000001FBF0
003E7C000001FBF0
003E7C000003F3F0
007E7E000003F3F0
007E7E000007E7F0
007E7E000007E7E0
007E7E00000FC7E0
007E7E00000FC7E0
00FC3E00001F8FE0
00FC3E00001F0FE0
00FC3E00003F0FC0
00FC3F00007E0FC0
01FC3F00007E0FC0
01F83F0000FC1FC0
01F83F0000FC1FC0
01F81F0001F81F80
01F81F0001F81F80
03F01F0003F01F80
03F01F0003E03F80
03F01F8007E03F00
03F01F800FC03F00
03F01F800FC03F00
07E01F801F807F00
07E00F801F807F00
07E00F803F007E00
07E00F803F007E00
07E00F807E007E00
0FC00FC07C00FE00
0FC00FC0FC00FE00
0FC00FC1F800FC00
0FC00FC1F800FC00
1FC007C3F000FC00
1F8007C3F001FC00
1F8007C7E001FC00
1F8007C7E001F800
1F8007EFC001F800
3F0007EF8003F800
3F0007FF8003F800
3F0007FF0003F800
3F0003FF0003F000
3F0003FE0003F000
7E0003FE0007F000
7E0003FC0007F000
7E0003FC0007E000
7E0003F80007E000
FE0003F00007E000
FC0003F0000FE000
ENDCHAR
STARTCHAR 004E
ENCODING 78
SWIDTH 694 0
DWIDTH 54 0
BBX 52 56 3 0
BITMAP
000FE0000003F0
000FE0000003F0
001FE0000007F0
001FF0000007E0
001FF0000007E0
001FF8000007E0
001FF8000007E0
003FF800000FE0
003FFC00000FC0
003FFC00000FC0
003EFC00000FC0
003E7E00000FC0
007E7E00001F80
007E7F00001F80
007E3F00001F80
007E3F00001F80
007C3F80003F80
00FC1F80003F00
00FC1FC0003F00
00FC0FC0003F00
00FC0FC0003F00
01FC0FE0007F00
01F807E0007E00
01F807E0007E00
01F803F0007E00
01F803F0007E00
03F803F800FE00
03F001F800FC00
03F001F800FC00
03F001FC00FC00
03F000FC01FC00
07E000FC01F800
07E0007E01F800
07E0007E01F800
07E0007F01F800
07E0003F03F800
0FC0003F03F000
0FC0003F83F000
0FC0001F83F000
0FC0001F83F000
1FC0000FC7F000
1F80000FC7E000
1F80000FE7E000
1F800007E7E000
1F800007E7E000
3F000003F7E000
3F000003F7C000
3F000003FFC000
3F000001FFC000
3F000001FFC000
7E000001FF8000
7E000000FF8000
7E000000FF8000
7E0000007F8000
FE0000007F8000
FC0000007F0000
ENDCHAR
STARTCHAR 004F
ENCODING 79
SWIDTH 720 0
DWIDTH 56 0
BBX 48 57 6 -1
BITMAP
000007FFC000
00003FFFF800
0000FFFFFE00
0003FFFFFF00
0007FFFFFF80
000FFF83FFC0
003FF8007FE0
007FE0001FF0
00FF80000FF8
00FF000007F8
01FE000003FC
03FC000001FC
03F8000001FC
07F0000001FE
0FF0000000FE
0FE0000000FE
1FE0000000FE
1FC0000000FE
1FC00000007E
3F800000007E
3F800000007F
3F800000007F
7F000000007F
7F000000007E
7F000000007E
7E000000007E
FE00000000FE
FE00000000FE
FE00000000FE
FE00000000FE
FE00000000FE
FE00000000FE
FE00000001FC
FE00000001FC
FE00000001FC
FE00000003FC
FE00000003F8
FE00000003F8
FE00000007F8
FE00000007F0
FE0000000FF0
FE0000000FE0
7F0000001FE0
7F0000003FC0
7F8000003FC0
3F8000007F80
3FC00000FF00
3FE00001FF00
1FF00007FE00
0FF8001FFC00
07FF007FF800
07FFFFFFF000
01FFFFFFC000
00FFFFFF8000
003FFFFE0000
000FFFF00000
0000FF000000
ENDCHAR
STARTCHAR 0050
ENCODING 80
SWIDTH 565 0
DWIDTH 44 0
BBX 41 56 3 0
BITMAP
000FFF800000
000FFFFF0000
000FFFFFC000
001FFFFFF000
001FFFFFF800
001FFFFFFC00
001F800FFE00
001F8001FE00
003F8000FF00
003F80007F00
003F00003F80
003F00003F80
007F00003F80
007F00003F80
007E00003F80
007E00003F80
007E00003F80
00FE00003F80
00FE00003F80
00FC00003F80
00FC00003F00
00FC00007F00
01FC00007F00
01FC0000FE00
01F80001FE00
01F80003FC00
03F8000FF800
03F8003FF800
03F80FFFF000
03FFFFFFC000
03FFFFFF8000
07FFFFFE0000
07FFFFF00000
07FFFF800000
07E000000000
07E000000000
0FE000000000
0FE000000000
0FC000000000
0FC000000000
0FC000000000
1FC000000000
1FC000000000
1F8000000000
1F8000000000
3F8000000000
3F8000000000
3F0000000000
3F0000000000
3F0000000000
7F0000000000
7F0000000000
7E0000000000
7E0000000000
7E0000000000
FE0000000000
ENDCHAR
STARTCHAR 0051
ENCODING 81
SWIDTH 720 0
DWIDTH 56 0
BBX 48 69 6 -13
BITMAP
000007FFC000
00003FFFF800
0000FFFFFE00
0003FFFFFF00
0007FFFFFF80
000FFF83FFC0
003FF8007FE0
007FE0001FF0
00FF80000FF8
00FF000007F8
01FE000003FC
03FC000001FC
03F8000001FC
07F0000001FE
0FF0000000FE
0FE0000000FE
1FE0000000FE
1FC0000000FE
1FC00000007E
3F800000007E
3F800000007F
3F800000007F
7F000000007F
7F000000007E
7F000000007E
7E000000007E
FE00000000FE
FE00000000FE
FE00000000FE
FE00000000FE
FE00000000FE
FE00000000FE
FE00000001FC
FE00000001FC
FE00000001FC
FE00000001FC
FE00000003F8
FE00000003F8
FE00000007F8
FE00000007F0
FE0000000FF0
FE0000000FE0
7F0000001FE0
7F0000003FC0
7F8000003FC0
3F8000007F80
3FC00000FF00
3FE00001FE00
1FF00007FE00
0FF8000FFC00
07FF007FF800
07FFFFFFF000
01FFFFFFC000
00FFFFFF8000
003FFFFE0000
000FFFF00000
0000FFF00000
000003F80000
000001FC0000
000001FE0000
000000FE0000
0000007F0000
0000007F8000
0000003FC000
0000001FC000
0000001FE000
0000000FF000
00000007F800
00000007F800
ENDCHAR
STARTCHAR 0052
ENCODING 82
SWIDTH 565 0
DWIDTH 44 0
BBX 41 56 3 0
BITMAP
000FFFC00000
000FFFFF0000
000FFFFFE000
001FFFFFF000
001FFFFFF800
001FFFFFFC00
001F800FFE00
001F8001FF00
003F8000FF00
003F80007F00
003F00003F80
003F00003F80
007F00003F80
007F00003F80
007E00001F80
007E00001F80
007E00003F80
00FE00003F80
00FE00003F80
00FC00003F80
00FC00007F00
00FC00007F00
01FC0000FE00
01FC0001FE00
01F80003FC00
01F8000FFC00
03F8003FF800
03FFFFFFE000
03FFFFFFC000
03FFFFFF0000
03FFFFFC0000
07FFFFE00000
07FFFFF00000
07E007F00000
07E003F00000
07E003F80000
0FE001F80000
0FE001F80000
0FC001FC0000
0FC000FC0000
0FC000FE0000
1FC000FE0000
1FC0007E0000
1F80007F0000
1F80007F0000
3F80003F0000
3F80003F8000
3F00003F8000
3F00001F8000
3F00001FC000
7F00001FC000
7F00000FE000
7E00000FE000
7E00000FE000
7E000007F000
FE000007F000
ENDCHAR
STARTCHAR 0053
ENCODING 83
SWIDTH 501 0
DWIDTH 39 0
BBX 39 57 1 -1
BITMAP
00001FFF80
0000FFFFF0
0001FFFFFC
0007FFFFFE
000FFFFFFE
001FFF1FFC
003FF000FC
007FC00018
007F800000
00FF000000
00FE000000
00FE000000
00FC000000
01FC000000
01FC000000
01FC000000
01FC000000
01FC000000
01FE000000
00FE000000
00FF000000
00FF800000
007FC00000
003FE00000
003FF80000
001FFE0000
0007FF0000
0003FFC000
0001FFE000
00007FF800
00001FFC00
00000FFE00
000003FE00
000001FF00
000000FF80
0000007F80
0000003F80
0000003F80
0000001FC0
0000001FC0
0000001FC0
0000001FC0
0000001FC0
0000001F80
0000003F80
0000003F80
0000007F80
000000FF00
C00001FF00
F00007FE00
FE001FFC00
FFFFFFF800
FFFFFFF000
FFFFFFE000
7FFFFF8000
0FFFFC0000
007FC00000
ENDCHAR
STARTCHAR 0054
ENCODING 84
SWIDTH 488 0
DWIDTH 38 0
BBX 39 56 7 0
BITMAP
7FFFFFFFFE
7FFFFFFFFE
7FFFFFFFFC
7FFFFFFFFC
FFFFFFFFFC
FFFFFFFFFC
0001FC0000
0001FC0000
0001FC0000
0001F80000
0001F80000
0003F80000
0003F80000
0003F80000
0003F00000
0003F00000
0007F00000
0007F00000
0007E00000
0007E00000
000FE00000
000FE00000
000FE00000
000FC00000
000FC00000
001FC00000
001FC00000
001FC00000
001F800000
001F800000
003F800000
003F800000
003F000000
003F000000
003F000000
007F000000
007F000000
007E000000
007E000000
00FE000000
00FE000000
00FE000000
00FC000000
00FC000000
01FC000000
01FC000000
01F8000000
01F8000000
01F8000000
03F8000000
03F8000000
03F0000000
03F0000000
07F0000000
07F0000000
07F0000000
ENDCHAR
STARTCHAR 0055
ENCODING 85
SWIDTH 668 0
DWIDTH 52 0
BBX 48 57 6 -1
BITMAP
00FE0000007F
00FE0000007E
00FC0000007E
00FC0000007E
01FC000000FE
01FC000000FE
01F8000000FC
01F8000000FC
01F8000001FC
03F8000001FC
03F8000001F8
03F0000001F8
03F0000001F8
03F0000003F8
07F0000003F8
07F0000003F0
07E0000003F0
07E0000003F0
0FE0000007F0
0FE0000007F0
0FC0000007E0
0FC0000007E0
0FC000000FE0
1FC000000FE0
1FC000000FC0
1F8000000FC0
1F8000000FC0
1F8000001FC0
3F8000001FC0
3F8000001F80
3F0000001F80
3F0000001F80
7F0000003F80
7F0000003F80
7F0000003F00
7E0000003F00
7E0000007F00
7E0000007F00
FE0000007E00
FE0000007E00
FE000000FE00
FE000000FE00
FE000000FC00
FE000001FC00
FE000001F800
7E000003F800
7F000007F000
7F00000FF000
7F80001FE000
3FE0007FC000
1FF801FFC000
1FFFFFFF8000
0FFFFFFE0000
07FFFFFC0000
01FFFFF00000
007FFFC00000
0003F8000000
ENDCHAR
STARTCHAR 0056
ENCODING 86
SWIDTH 540 0
DWIDTH 42 0
BBX 43 56 7 0
BITMAP
FE0000000FE0
FE0000001FC0
FE0000001FC0
7E0000003F80
7E0000003F80
7E0000007F00
7E0000007F00
7E000000FE00
7E000000FE00
7F000001FC00
7F000003F800
7F000003F800
3F000007F000
3F000007F000
3F00000FE000
3F00000FE000
3F00001FC000
3F00001FC000
3F00003F8000
3F80003F8000
3F80007F0000
1F80007F0000
1F8000FE0000
1F8000FE0000
1F8001FC0000
1F8001F80000
1F8003F80000
1F8003F00000
1F8007F00000
1FC007E00000
0FC00FE00000
0FC00FC00000
0FC01FC00000
0FC01F800000
0FC03F800000
0FC03F000000
0FC07F000000
0FC0FE000000
0FE0FE000000
07E1FC000000
07E1F8000000
07E3F8000000
07E3F0000000
07E7F0000000
07E7E0000000
07E7E0000000
07EFC0000000
07EFC0000000
03FF80000000
03FF80000000
03FF00000000
03FF00000000
03FE00000000
03FE00000000
03FC00000000
03F800000000
ENDCHAR
STARTCHAR 0057
ENCODING 87
SWIDTH 848 0
DWIDTH 66 0
BBX 65 56 8 0
BITMAP
FE000007F000003F80
7E000007F000003F00
7E00000FF000007F00
7E00000FF000007F00
7E00000FF00000FE00
7E00001FF00000FE00
7E00001FF00001FC00
7E00003FF00001FC00
7E00003FF00001F800
7E00007FF00003F800
7E00007DF00003F000
7E0000FDF00007F000
7E0000F9F80007E000
7E0001F9F8000FE000
7E0001F9F8000FE000
7E0003F1F8000FC000
7E0003F1F8001FC000
7E0007E1F8001F8000
7E0007E1F8003F8000
7E000FC1F8003F0000
7E000FC1F8007F0000
7F000F81F8007E0000
7F001F80F800FE0000
7F001F80F800FC0000
3F003F00F800FC0000
3F003F00F801FC0000
3F007E00F801F80000
3F007E00F803F80000
3F00FC00F803F00000
3F00FC00F807F00000
3F01F800F807E00000
3F01F800F807E00000
3F03F000FC0FC00000
3F03F000FC0FC00000
3F07E000FC1F800000
3F07E000FC1F800000
3F07C000FC3F800000
3F0FC000FC3F000000
3F0FC000FC3F000000
3F1F8000FC7E000000
3F1F8000FC7E000000
3F3F0000FCFC000000
3F3F0000FCFC000000
3F3E00007CF8000000
3F7E00007DF8000000
3F7C00007DF0000000
3FFC00007DF0000000
3FF800007FF0000000
1FF800007FE0000000
1FF000007FE0000000
1FF000007FC0000000
1FF000007FC0000000
1FE000007F80000000
1FE000007F80000000
1FC000007F00000000
1FC000007F00000000
ENDCHAR
STARTCHAR 0058
ENCODING 88
SWIDTH 514 0
DWIDTH 40 0
BBX 51 56 -4 0
BITMAP
0007E000000FE0
0007F000001FC0
0003F000003F80
0003F000003F80
0003F800007F00
0001F80000FE00
0001F80001FC00
0001FC0003F800
0000FC0003F800
0000FC0007F000
00007E000FE000
00007E001FC000
00007F001F8000
00003F003F8000
00003F007F0000
00003F80FE0000
00001F81FC0000
00001F81F80000
00000FC3F80000
00000FC7F00000
00000FCFE00000
000007FFC00000
000007FF800000
000007FF800000
000003FF000000
000003FE000000
000001FC000000
000003FC000000
000007FC000000
00000FFE000000
00000FFE000000
00001FFF000000
00003FBF000000
00007F3F000000
00007E3F800000
0000FE1F800000
0001FC1F800000
0003F81FC00000
0007F00FC00000
0007F00FC00000
000FE00FE00000
001FC007E00000
003F8007F00000
003F0003F00000
007F0003F00000
00FE0003F80000
01FC0001F80000
03F80001F80000
03F80001FC0000
07F00000FC0000
0FE00000FC0000
1FC00000FE0000
1FC000007E0000
3F8000007F0000
7F0000007F0000
FE0000003F0000
ENDCHAR
STARTCHAR 0059
ENCODING 89
SWIDTH 501 0
DWIDTH 39 0
BBX 40 56 7 0
BITMAP
FE000000FF
FE000000FE
7E000001FC
7E000003FC
7F000003F8
3F000007F0
3F00000FE0
3F00000FE0
3F80001FC0
1F80003F80
1F80003F80
1F80007F00
1FC000FE00
0FC000FE00
0FC001FC00
0FC003F800
0FE003F800
07E007F000
07E00FE000
07E00FE000
07F01FC000
03F03F8000
03F03F0000
03F07F0000
01F8FE0000
01F8FC0000
01F9FC0000
01FBF80000
00FBF00000
00FFF00000
00FFE00000
00FFC00000
007FC00000
007F800000
007F000000
007F000000
007E000000
007E000000
007E000000
00FE000000
00FE000000
00FC000000
00FC000000
00FC000000
01FC000000
01FC000000
01F8000000
01F8000000
03F8000000
03F8000000
03F0000000
03F0000000
03F0000000
07F0000000
07F0000000
07E0000000
ENDCHAR
STARTCHAR 005A
ENCODING 90
SWIDTH 527 0
DWIDTH 41 0
BBX 46 56 -1 0
BITMAP
0007FFFFFFFC
0007FFFFFFF8
000FFFFFFFF8
000FFFFFFFF8
000FFFFFFFF8
000FFFFFFFF8
000000000FF0
000000000FE0
000000001FC0
000000003FC0
000000007F80
00000000FF00
00000000FE00
00000001FC00
00000003FC00
00000007F800
00000007F000
0000000FE000
0000001FC000
0000003FC000
0000007F8000
0000007F0000
000000FE0000
000001FC0000
000003FC0000
000007F80000
000007F00000
00000FE00000
00001FC00000
00003FC00000
00007F800000
00007F000000
0000FE000000
0001FE000000
0003FC000000
0007F8000000
0007F0000000
000FE0000000
001FE0000000
003FC0000000
003F80000000
007F00000000
00FE00000000
01FE00000000
03FC00000000
03F800000000
07F000000000
0FE000000000
1FE000000000
3FC000000000
3FFFFFFFF000
7FFFFFFFF000
7FFFFFFFE000
7FFFFFFFE000
7FFFFFFFE000
FFFFFFFFE000
ENDCHAR
STARTCHAR 005B
ENCODING 91
SWIDTH 282 0
DWIDTH 22 0
BBX 30 68 -1 -12
BITMAP
0001FFFC
0001FFFC
0003FFF8
0003FFF8
0003FFF8
0003FFF8
0007E000
0007E000
0007E000
0007E000
0007E000
000FC000
000FC000
000FC000
000FC000
000FC000
001F8000
001F8000
001F8000
001F8000
003F0000
003F0000
003F0000
003F0000
003F0000
007E0000
007E0000
007E0000
007E0000
007E0000
00FC0000
00FC0000
00FC0000
00FC0000
01FC0000
01F80000
01F80000
01F80000
01F80000
03F00000
03F00000
03F00000
03F00000
03F00000
07E00000
07E00000
07E00000
07E00000
07E00000
0FC00000
0FC00000
0FC00000
0FC00000
1F800000
1F800000
1F800000
1F800000
1F800000
3F000000
3F000000
3F000000
3F000000
3F000000
7FFF0000
7FFF0000
7FFF0000
7FFF0000
FFFF0000
ENDCHAR
STARTCHAR 005C
ENCODING 92
SWIDTH 347 0
DWIDTH 27 0
BBX 14 56 8 0
BITMAP
FC00
FC00
7C00
7E00
7E00
7E00
7E00
7E00
3E00
3E00
3F00
3F00
3F00
3F00
3F00
1F00
1F00
1F80
1F80
1F80
1F80
0F80
0F80
0FC0
0FC0
0FC0
0FC0
0FC0
07C0
07C0
07E0
07E0
07E0
07E0
07E0
03E0
03F0
03F0
03F0
03F0
03F0
01F0
01F0
01F8
01F8
01F8
01F8
01F8
00F8
00F8
00FC
00FC
00FC
00FC
007C
007C
ENDCHAR
STARTCHAR 005D
ENCODING 93
SWIDTH 282 0
DWIDTH 22 0
BBX 29 68 -5 -12
BITMAP
0003FFF8
0003FFF8
0007FFF0
0007FFF0
0007FFF0
0007FFF0
000007F0
000007E0
000007E0
000007E0
000007E0
00000FC0
00000FC0
00000FC0
00000FC0
00000FC0
00001F80
00001F80
00001F80
00001F80
00001F80
00003F00
00003F00
00003F00
00003F00
00007E00
00007E00
00007E00
00007E00
00007E00
0000FC00
0000FC00
0000FC00
0000FC00
0000FC00
0001F800
0001F800
0001F800
0001F800
0003F800
0003F000
0003F000
0003F000
0003F000
0007E000
0007E000
0007E000
0007E000
0007E000
000FC000
000FC000
000FC000
000FC000
000FC000
001F8000
001F8000
001F8000
001F8000
003F0000
003F0000
003F0000
003F0000
003F0000
FFFE0000
FFFE0000
FFFE0000
FFFE0000
FFFE0000
ENDCHAR
STARTCHAR 005E
ENCODING 94
SWIDTH 565 0
DWIDTH 44 0
BBX 38 35 3 21
BITMAP
0000780000
00007C0000
0000FC0000
0000FE0000
0001FE0000
0001FF0000
0003FF0000
0003EF8000
0007CF8000
0007C7C000
000FC7C000
000F87E000
001F83E000
001F03F000
003F01F000
003E01F800
007E00F800
007C00FC00
00FC007C00
00F8007E00
01F8003E00
01F0003F00
03F0001F00
03E0001F80
07E0000F80
07C0000FC0
0FC00007C0
0F800007E0
1F800007E0
1F000003F0
3F000003F0
3E000001F0
7E000001F8
7E000000F8
FC000000FC
ENDCHAR
STARTCHAR 005F
ENCODING 95
SWIDTH 385 0
DWIDTH 30 0
BBX 32 5 -7 -12
BITMAP
7FFFFFFF
7FFFFFFE
FFFFFFFE
FFFFFFFE
FFFFFFFE
ENDCHAR
STARTCHAR 0060
ENCODING 96
SWIDTH 270 0
DWIDTH 21 0
BBX 13 13 11 47
BITMAP
FE00
FE00
7F00
3F00
3F80
1F80
0FC0
0FC0
07E0
03E0
01F0
00F0
00F8
ENDCHAR
STARTCHAR 0061
ENCODING 97
SWIDTH 552 0
DWIDTH 43 0
BBX 38 43 4 -1
BITMAP
0001FF803C
0007FFE07C
001FFFF07C
003FFFF8FC
007FFFF8FC
00FFC0FCF8
01FF003DF8
03FC001FF8
07F8001FF8
07F0000FF8
0FE0000FF0
0FE0000FF0
1FC00007F0
1FC00007F0
3F800007E0
3F800007E0
3F00000FE0
7F00000FE0
7F00000FE0
7E00000FC0
7E00000FC0
FE00001FC0
FE00001FC0
FE00001FC0
FC00001F80
FC00003F80
FC00003F80
FC00007F80
FC00007F00
FC0000FF00
FC0001FF00
FC0001FF00
FE0003FF00
FE0007FE00
7F000FBE00
7F001F7E00
7F807E7E00
3FFFFC7E00
3FFFF87C00
1FFFF07C00
0FFFC07C00
03FF807C00
007C000000
ENDCHAR
STARTCHAR 0062
ENCODING 98
SWIDTH 565 0
DWIDTH 44 0
BBX 39 60 2 -1
BITMAP
0007E00000
000FE00000
000FE00000
000FC00000
000FC00000
000FC00000
001FC00000
001F800000
001F800000
001F800000
003F800000
003F800000
003F000000
003F000000
003F000000
007F000000
007F000000
007E01FF00
007E07FFC0
007E1FFFE0
00FE3FFFF0
00FC7FFFF8
00FCFE07F8
00FDF803FC
00FBE001FC
01FFC000FC
01FF8000FE
01FF0000FE
01FF0000FE
03FE00007E
03FC00007E
03FC00007E
03F800007E
03F80000FE
07F00000FE
07F00000FE
07E00000FE
07E00000FE
07E00000FC
0FE00000FC
0FC00001FC
0FC00001FC
0FC00001F8
1FC00003F8
1FC00003F8
1FC00003F0
1FC00007F0
1FC0000FF0
3FC0000FE0
3FE0001FE0
3FE0003FC0
3FF0007F80
3EF000FF80
7EFC01FF00
7E7FFFFE00
7C3FFFFC00
7C3FFFF800
7C0FFFE000
F807FF8000
0000F80000
ENDCHAR
STARTCHAR 0063
ENCODING 99
SWIDTH 450 0
DWIDTH 35 0
BBX 32 43 4 -1
BITMAP
0000FFF8
0007FFFF
001FFFFF
003FFFFE
007FFFFE
00FFC03E
01FF0004
03FC0000
07F80000
0FF00000
0FE00000
1FE00000
1FC00000
3F800000
3F800000
3F000000
7F000000
7F000000
7E000000
7E000000
FE000000
FE000000
FE000000
FC000000
FC000000
FC000000
FC000000
FC000000
FC000000
FC000000
FE000000
FE000000
FE000000
7F000000
7F800000
3FC00040
3FE003C0
1FFFFFC0
0FFFFFC0
07FFFFC0
03FFFF80
00FFFE00
0007E000
ENDCHAR
STARTCHAR 0064
ENCODING 100
SWIDTH 565 0
DWIDTH 44 0
BBX 42 60 4 -1
BITMAP
000000000FC0
000000000FC0
000000001FC0
000000001FC0
000000001F80
000000001F80
000000001F80
000000003F80
000000003F00
000000003F00
000000003F00
000000003F00
000000007F00
000000007E00
000000007E00
000000007E00
000000007E00
0001FF80FE00
0007FFE0FC00
001FFFF0FC00
003FFFF8FC00
007FFFFCFC00
00FFC0FCFC00
01FF003FF800
03FC001FF800
07F8000FF800
07F0000FF800
0FE0000FF000
1FE00007F000
1FC00007F000
1FC00007F000
3F800007F000
3F800007E000
3F000007E000
7F000007E000
7F00000FE000
7E00000FE000
7E00000FC000
FE00000FC000
FE00001FC000
FE00001FC000
FC00001F8000
FC00003F8000
FC00003F8000
FC00007F8000
FC00007F8000
FC0000FF0000
FC0000FF0000
FC0001FF0000
FE0003FF0000
FE0007FF0000
FE000FFE0000
7F001F7E0000
7F807E7E0000
3FFFFC7E0000
3FFFF87E0000
1FFFF07C0000
0FFFE07C0000
03FF807C0000
007C00000000
ENDCHAR
STARTCHAR 0065
ENCODING 101
SWIDTH 488 0
DWIDTH 38 0
BBX 32 43 4 -1
BITMAP
0001FFE0
0007FFF8
001FFFFC
003FFFFE
007FFFFE
00FF80FF
01FE007F
03FC003F
07F8003F
07F0003F
0FE0003F
0FC0003F
1FC0003F
1F80007F
3F8000FE
3F0001FE
7F0007FC
7F003FF8
7E1FFFF0
7FFFFFE0
FFFFFF80
FFFFFE00
FFFFF000
FFF80000
FC000000
FC000000
FC000000
FC000000
FC000000
FC000000
FE000000
FE000000
FE000000
7F000000
7F800000
3FC00060
3FE003E0
1FFFFFE0
0FFFFFE0
07FFFFE0
03FFFFC0
00FFFE00
000FE000
ENDCHAR
STARTCHAR 0066
ENCODING 102
SWIDTH 308 0
DWIDTH 24 0
BBX 43 79 -9 -19
BITMAP
000000001000
00000003FFC0
0000000FFFE0
0000001FFFE0
0000003FFFC0
0000007FFFC0
0000007F8040
000000FE0000
000000FC0000
000001FC0000
000001F80000
000001F80000
000003F80000
000003F00000
000003F00000
000003F00000
000007F00000
000007F00000
00000FFFF000
00007FFFF000
0007FFFFF000
0007FFFFF000
0007FFFFF000
00000FC00000
00000FC00000
00000FC00000
00001FC00000
00001FC00000
00001F800000
00001F800000
00001F800000
00003F800000
00003F000000
00003F000000
00003F000000
00003F000000
00007F000000
00007E000000
00007E000000
00007E000000
0000FE000000
0000FE000000
0000FC000000
0000FC000000
0000FC000000
0001FC000000
0001FC000000
0001F8000000
0001F8000000
0001F8000000
0003F8000000
0003F0000000
0003F0000000
0003F0000000
0003F0000000
0007F0000000
0007E0000000
0007E0000000
0007E0000000
000FE0000000
000FE0000000
000FC0000000
000FC0000000
000FC0000000
001FC0000000
001FC0000000
001F80000000
001F80000000
003F80000000
003F00000000
007F00000000
007F00000000
00FE00000000
FFFE00000000
FFFC00000000
FFF800000000
FFF000000000
FFC000000000
3F0000000000
ENDCHAR
STARTCHAR 0067
ENCODING 103
SWIDTH 514 0
DWIDTH 40 0
BBX 47 61 -4 -19
BITMAP
000003FFFFFE
00001FFFFFFE
00003FFFFFFC
0000FFFFFFFC
0001FF07FFF0
0003FC01FC00
0003F000FC00
0007E0007E00
0007E0007E00
000FC0003E00
000FC0003E00
001F80003E00
001F80003E00
001F80007E00
001F80007E00
001F80007E00
001F80007E00
001F8000FC00
001F8000FC00
001F8001F800
000FC003F800
000FE007F000
0007F81FE000
0003FFFFC000
0001FFFF8000
0000FFFE0000
0003FFF00000
0007C0000000
001F80000000
003F00000000
003E00000000
007E00000000
007E00000000
007E00000000
007F80000000
007FFF000000
003FFFF80000
001FFFFF0000
001FFFFFC000
00FFFFFFE000
03FC0FFFF000
07F0001FF000
0FC00007F800
1F800003F800
3F000001F800
7E000001F800
7E000001F800
7C000001F800
7C000001F800
FC000001F800
FC000003F000
7C000003F000
7E000007F000
7F00001FE000
7F80003FC000
3FE003FF8000
1FFFFFFF0000
0FFFFFFE0000
03FFFFF80000
00FFFFC00000
000FF0000000
ENDCHAR
STARTCHAR 0068
ENCODING 104
SWIDTH 565 0
DWIDTH 44 0
BBX 38 59 2 0
BITMAP
0007E00000
000FE00000
000FE00000
000FC00000
000FC00000
000FC00000
001FC00000
001F800000
001F800000
001F800000
003F800000
003F800000
003F000000
003F000000
003F000000
007F000000
007E000000
007E01FF80
007E07FFE0
007E1FFFF0
00FC3FFFF8
00FC7FFFF8
00FCFE07FC
00FDF801FC
00FBE001FC
01FFC000FC
01FF8000FC
01FF0000FC
01FE0000FC
03FE0000FC
03FC0000FC
03FC0000FC
03F80001FC
03F80001FC
07F00001F8
07F00001F8
07E00001F8
07E00003F8
07E00003F8
0FE00003F0
0FC00003F0
0FC00007F0
0FC00007F0
1FC00007E0
1FC00007E0
1F800007E0
1F80000FE0
1F80000FE0
3F80000FC0
3F80000FC0
3F00000FC0
3F00001FC0
3F00001FC0
7F00001F80
7F00001F80
7E00001F80
7E00003F80
7E00003F00
FE00003F00
ENDCHAR
STARTCHAR 0069
ENCODING 105
SWIDTH 244 0
DWIDTH 19 0
BBX 19 57 2 0
BITMAP
000780
000FC0
001FC0
001FE0
001FC0
001FC0
001F80
000F00
000000
000000
000000
000000
000000
000000
000000
007E00
007E00
007E00
00FE00
00FE00
00FC00
00FC00
00FC00
01FC00
01F800
01F800
01F800
03F800
03F800
03F000
03F000
03F000
07F000
07F000
07E000
07E000
07E000
0FE000
0FC000
0FC000
0FC000
1FC000
1FC000
1F8000
1F8000
1F8000
3F8000
3F8000
3F0000
3F0000
3F0000
7F0000
7F0000
7E0000
7E0000
7E0000
FE0000
ENDCHAR
STARTCHAR 006A
ENCODING 106
SWIDTH 244 0
DWIDTH 19 0
BBX 31 76 -10 -19
BITMAP
00000078
000000FC
000001FC
000001FE
000001FC
000001FC
000001F8
000000F0
00000000
00000000
00000000
00000000
00000000
00000000
00000000
000007E0
000007E0
000007E0
00000FE0
00000FC0
00000FC0
00000FC0
00000FC0
00001FC0
00001F80
00001F80
00001F80
00003F80
00003F80
00003F00
00003F00
00003F00
00007F00
00007E00
00007E00
00007E00
00007E00
0000FE00
0000FC00
0000FC00
0000FC00
0000FC00
0001FC00
0001F800
0001F800
0001F800
0003F800
0003F800
0003F000
0003F000
0003F000
0007F000
0007E000
0007E000
0007E000
0007E000
000FE000
000FC000
000FC000
000FC000
000FC000
001FC000
001F8000
001F8000
001F8000
003F8000
003F0000
007F0000
007F0000
00FE0000
FFFE0000
FFFC0000
FFF80000
FFF00000
FFC00000
1E000000
ENDCHAR
STARTCHAR 006B
ENCODING 107
SWIDTH 488 0
DWIDTH 38 0
BBX 38 59 2 0
BITMAP
0007E00000
000FE00000
000FE00000
000FC00000
000FC00000
001FC00000
001FC00000
001F800000
001F800000
001F800000
003F800000
003F800000
003F000000
003F000000
003F000000
007F000000
007F000000
007E0001FC
007E0003F8
00FE0007F0
00FE000FE0
00FC001FC0
00FC003F80
00FC007F00
01FC00FE00
01FC01FC00
01F803F800
01F807F000
01F80FE000
03F81FC000
03F03F8000
03F07F0000
03F0FE0000
03F1FC0000
07E3F80000
07E7F80000
07EFF80000
07DFF80000
0FFFFC0000
0FFEFC0000
0FFCFE0000
0FF87E0000
0FF07F0000
1FC03F0000
1FC03F8000
1F803F8000
1F801FC000
1F801FC000
3F800FE000
3F000FE000
3F0007F000
3F0007F000
7F0003F800
7F0003F800
7E0001F800
7E0001FC00
7E0001FC00
FE0000FE00
FE0000FE00
ENDCHAR
STARTCHAR 006C
ENCODING 108
SWIDTH 244 0
DWIDTH 19 0
BBX 19 59 2 0
BITMAP
0007E0
000FE0
000FE0
000FC0
000FC0
000FC0
001FC0
001F80
001F80
001F80
003F80
003F80
003F00
003F00
003F00
007F00
007F00
007E00
007E00
007E00
00FE00
00FC00
00FC00
00FC00
01FC00
01FC00
01F800
01F800
01F800
03F800
03F800
03F000
03F000
03F000
07F000
07E000
07E000
07E000
0FE000
0FE000
0FC000
0FC000
0FC000
1FC000
1FC000
1F8000
1F8000
1F8000
3F8000
3F8000
3F0000
3F0000
7F0000
7F0000
7E0000
7E0000
7E0000
FE0000
FE0000
ENDCHAR
STARTCHAR 006D
ENCODING 109
SWIDTH 861 0
DWIDTH 67 0
BBX 61 42 2 0
BITMAP
007C03FF0003FF00
007C07FF800FFFC0
007C1FFFC01FFFE0
00FC3FFFE03FFFF0
00FC7FFFE07FFFF0
00FCFC0FF0FE0FF8
00F9F007F1F803F8
00FBE003F3E003F8
01FFC003FFC001F8
01FF8001FF8001F8
01FF0001FF0001F8
01FE0001FE0001F8
03FE0001FE0001F8
03FC0003FC0001F8
03F80003FC0001F8
03F80003F80003F8
03F80003F80003F8
07F00003F00003F0
07F00007F00003F0
07E00007F00003F0
07E00007E00007F0
07E00007E00007F0
0FE00007E00007E0
0FC0000FE00007E0
0FC0000FE00007E0
0FC0000FC0000FE0
1FC0000FC0000FC0
1FC0000FC0000FC0
1F80001FC0000FC0
1F80001F80001FC0
1F80001F80001FC0
3F80001F80001F80
3F80003F80001F80
3F00003F80001F80
3F00003F00003F80
3F00003F00003F80
7F00003F00003F00
7F00007F00003F00
7E00007F00003F00
7E00007E00007F00
7E00007E00007E00
FE00007E00007E00
ENDCHAR
STARTCHAR 006E
ENCODING 110
SWIDTH 565 0
DWIDTH 44 0
BBX 39 43 2 0
BITMAP
0000001800
007C03FF80
007C0FFFE0
00FC1FFFF0
00FC3FFFF8
00FC7FFFF8
00FCFF07FC
01FDF803FC
01FFF001FC
01FFC000FE
01FF8000FE
01FF0000FE
03FF0000FE
03FE0000FC
03FC0000FC
03FC0001FC
03F80001FC
07F80001FC
07F00001FC
07F00001F8
07F00003F8
07E00003F8
0FE00003F8
0FE00003F8
0FE00007F0
0FC00007F0
1FC00007F0
1FC00007F0
1FC00007E0
1FC0000FE0
1F80000FE0
3F80000FE0
3F80000FE0
3F80000FC0
3F80001FC0
3F00001FC0
7F00001FC0
7F00001F80
7F00003F80
7E00003F80
FE00003F80
FE00003F80
FE00003F00
ENDCHAR
STARTCHAR 006F
ENCODING 111
SWIDTH 552 0
DWIDTH 43 0
BBX 36 43 4 -1
BITMAP
0000FFC000
0007FFF000
001FFFFC00
003FFFFE00
00FFFFFF00
01FFC0FF80
01FE003FC0
03FC001FC0
07F8000FE0
0FF0000FE0
0FE00007E0
1FC00007F0
1FC00007F0
3F800003F0
3F800003F0
3F000003F0
7F000003F0
7E000003F0
7E000007F0
7E000007F0
FE000007F0
FE000007F0
FC000007E0
FC000007E0
FC00000FE0
FC00000FE0
FC00000FC0
FC00000FC0
FC00001FC0
FC00001F80
FE00003F80
FE00007F00
7E00007F00
7F0000FE00
7F8001FC00
3FC003FC00
3FE00FF800
1FFFFFF000
0FFFFFE000
07FFFF8000
01FFFF0000
007FFC0000
0003000000
ENDCHAR
STARTCHAR 0070
ENCODING 112
SWIDTH 565 0
DWIDTH 44 0
BBX 43 61 -2 -19
BITMAP
0007C01FF000
0007C07FFC00
0007C1FFFE00
000FC3FFFF00
000FC7FFFF80
000FCFE07F80
000F9F803FC0
000FBE001FC0
001FFC000FC0
001FF8000FE0
001FF0000FE0
001FF0000FE0
003FE00007E0
003FC00007E0
003FC00007E0
003F800007E0
003F80000FE0
007F00000FE0
007F00000FE0
007E00000FE0
007E00000FE0
007E00000FC0
00FE00000FC0
00FC00001FC0
00FC00001FC0
00FC00001F80
00FC00003F80
01FC00003F80
01FC00003F00
01FC00007F00
01FC0000FF00
03FC0000FE00
03FE0001FE00
03FE0003FC00
03FF0007F800
03EF000FF800
07EFC01FF000
07E7FFFFE000
07E3FFFFC000
07E1FFFF8000
07E0FFFE0000
0FE07FF80000
0FC00F800000
0FC000000000
0FC000000000
1FC000000000
1FC000000000
1F8000000000
1F8000000000
1F8000000000
3F8000000000
3F8000000000
3F0000000000
3F0000000000
3F0000000000
7F0000000000
7E0000000000
7E0000000000
7E0000000000
7E0000000000
FE0000000000
ENDCHAR
STARTCHAR 0071
ENCODING 113
SWIDTH 565 0
DWIDTH 44 0
BBX 39 61 4 -19
BITMAP
0001FF803E
0007FFE07C
001FFFF07C
003FFFF87C
007FFFFCFC
00FFC0FCFC
01FF003EF8
03FC001FF8
07F8001FF8
07F0000FF8
0FE0000FF0
1FE00007F0
1FC00007F0
1FC00007F0
3F800007F0
3F800007E0
3F000007E0
7F000007E0
7F00000FE0
7E00000FE0
7E00000FC0
FE00000FC0
FE00001FC0
FE00001FC0
FC00001F80
FC00003F80
FC00003F80
FC00007F80
FC00007F80
FC0000FF00
FC0001FF00
FC0001FF00
FE0003FF00
FE0007FF00
FE000FFE00
7F001F7E00
7F807E7E00
3FFFFC7E00
3FFFF8FE00
1FFFF0FC00
0FFFE0FC00
03FF80FC00
007C01FC00
000001F800
000001F800
000001F800
000001F800
000003F800
000003F000
000003F000
000003F000
000007F000
000007F000
000007E000
000007E000
000007E000
00000FE000
00000FC000
00000FC000
00000FC000
00000FC000
ENDCHAR
STARTCHAR 0072
ENCODING 114
SWIDTH 385 0
DWIDTH 30 0
BBX 31 42 2 0
BITMAP
007C03FE
007C0FFE
007C1FFE
00FC3FFC
00FC7FFC
00FCFF9C
00F9F800
00FBF000
01FFC000
01FF8000
01FF0000
01FF0000
03FE0000
03FC0000
03FC0000
03F80000
03F80000
07F00000
07F00000
07F00000
07E00000
07E00000
0FE00000
0FC00000
0FC00000
0FC00000
1FC00000
1FC00000
1F800000
1F800000
1F800000
3F800000
3F800000
3F000000
3F000000
3F000000
7F000000
7F000000
7E000000
7E000000
7E000000
FE000000
ENDCHAR
STARTCHAR 0073
ENCODING 115
SWIDTH 424 0
DWIDTH 33 0
BBX 32 43 0 -1
BITMAP
0003FFE0
001FFFFC
003FFFFF
00FFFFFF
00FFFFFE
01FF00FE
03FC000C
03F80000
03F00000
07F00000
07F00000
07F00000
07F00000
03F00000
03F80000
03FC0000
01FF0000
01FF8000
00FFE000
007FF800
001FFC00
000FFE00
0003FF80
0001FFC0
00007FC0
00001FE0
00000FE0
000007F0
000007F0
000007F0
000003F0
000003F0
000007F0
000007F0
80000FE0
E0001FE0
FC003FC0
FFE7FFC0
FFFFFF80
FFFFFF00
7FFFFC00
0FFFF000
00FE0000
ENDCHAR
STARTCHAR 0074
ENCODING 116
SWIDTH 321 0
DWIDTH 25 0
BBX 24 52 4 -1
BITMAP
001E00
001E00
003E00
003E00
007C00
007C00
00FC00
00FC00
01F800
07FFFF
3FFFFF
FFFFFF
FFFFFE
FFFFFE
03F000
03F000
07F000
07F000
07E000
07E000
07E000
0FE000
0FE000
0FC000
0FC000
0FC000
1FC000
1FC000
1F8000
1F8000
3F8000
3F8000
3F0000
3F0000
3F0000
7F0000
7F0000
7E0000
7E0000
7E0000
7E0000
FE0000
FE0000
FE0000
FE0000
7F0000
7FCF80
7FFF80
3FFF80
1FFF80
0FFF00
01F000
ENDCHAR
STARTCHAR 0075
ENCODING 117
SWIDTH 565 0
DWIDTH 44 0
BBX 38 43 4 -1
BITMAP
01F80000FC
03F80000FC
03F80000FC
03F00000FC
03F00001FC
07F00001F8
07F00001F8
07E00001F8
07E00001F8
07E00003F8
0FE00003F0
0FE00003F0
0FC00003F0
0FC00007F0
0FC00007E0
1FC00007E0
1FC00007E0
1F800007E0
1F80000FE0
3F80000FC0
3F80000FC0
3F00000FC0
3F00001FC0
3F00001FC0
7F00001F80
7F00003F80
7E00003F80
7E00007F80
7E00007F80
FE0000FF00
FE0000FF00
FE0001FF00
FE0003FF00
FE0007FE00
FE000FFE00
7F001F7E00
7F807E7E00
7FF7FC7E00
3FFFF87C00
1FFFF07C00
0FFFC07C00
07FF807C00
00F8000000
ENDCHAR
STARTCHAR 0076
ENCODING 118
SWIDTH 450 0
DWIDTH 35 0
BBX 36 42 4 0
BITMAP
FC000007F0
FC00000FE0
FC00000FC0
FC00001FC0
FE00001F80
FE00003F80
FE00007F00
7E00007F00
7E0000FE00
7E0000FE00
7E0001FC00
7E0001FC00
7E0003F800
7E0003F000
7F0007F000
3F0007E000
3F000FE000
3F000FC000
3F001FC000
3F003F8000
3F003F8000
3F007F0000
3F007F0000
1F80FE0000
1F80FC0000
1F81FC0000
1F81F80000
1F83F80000
1F83F00000
1F87F00000
1F87E00000
1F8FE00000
0F8FC00000
0F9FC00000
0F9F800000
0FBF000000
0FFF000000
0FFE000000
0FFE000000
0FFC000000
07FC000000
07F8000000
ENDCHAR
STARTCHAR 0077
ENCODING 119
SWIDTH 707 0
DWIDTH 55 0
BBX 54 42 4 0
BITMAP
FE0000FE0000FC
FE0001FE0001FC
7E0001FE0001FC
7E0003FE0003F8
7E0003FE0003F8
7E0007FE0003F0
7E0007FE0007F0
7E000FFE0007E0
7E000FBE000FE0
7E001FBE000FC0
7E001F3E001FC0
7E003F3E001F80
7E003E3E003F80
7E003E3E003F00
7E007E3E007F00
7E007C3F007F00
7E00FC3F007E00
7E00F83F00FE00
7E01F83F00FC00
7E01F03F01FC00
7E03F03F01F800
7E03E03F03F800
7E07E03F03F000
7E07C01F07F000
7E0FC01F07E000
3E0F801F07E000
3E1F801F0FC000
3E1F801F0FC000
3E1F001F1F8000
3E3F001F1F8000
3E3E001F1F8000
3E7E001F3F0000
3E7C001F3F0000
3EFC001F7E0000
3EF8001F7E0000
3EF8001F7C0000
3FF0001FFC0000
3FF0001FF80000
3FE0001FF80000
3FE0000FF00000
3FC0000FF00000
3FC0000FE00000
ENDCHAR
STARTCHAR 0078
ENCODING 120
SWIDTH 475 0
DWIDTH 37 0
BBX 41 42 -2 0
BITMAP
00FE00003F80
007E00007F00
007F0000FF00
003F0001FE00
003F0001FC00
001F8003F800
001F8007F000
001FC00FE000
000FC01FC000
000FC01FC000
0007E03F8000
0007E07F0000
0003F0FE0000
0003F1FC0000
0001F9F80000
0001FBF00000
0001FFF00000
0000FFE00000
0000FFC00000
00007F800000
00007F000000
0000FF000000
0000FF800000
0001FF800000
0003FFC00000
0007FFC00000
000FEFC00000
001FC7E00000
001F87E00000
003F83F00000
007F03F00000
00FE03F80000
01FC01F80000
03F801FC0000
07F800FC0000
07F000FE0000
0FE0007E0000
1FC0007F0000
3F80003F0000
7F80003F0000
FF00003F8000
FE00001F8000
ENDCHAR
STARTCHAR 0079
ENCODING 121
SWIDTH 450 0
DWIDTH 35 0
BBX 47 61 -7 -19
BITMAP
001F800000FE
001F800001FC
001F800001F8
001FC00003F8
001FC00003F0
001FC00007F0
000FC00007E0
000FC0000FE0
000FC0001FC0
000FC0001FC0
000FC0003F80
000FE0003F80
0007E0007F00
0007E0007E00
0007E000FE00
0007E000FC00
0007E001FC00
0007E001F800
0007F003F800
0003F003F000
0003F007F000
0003F007E000
0003F00FE000
0003F01FC000
0003F01F8000
0001F03F8000
0001F83F0000
0001F87F0000
0001F87E0000
0001F8FE0000
0001F8FC0000
0001F8FC0000
0000F9F80000
0000F9F80000
0000FBF00000
0000FBE00000
0000FFE00000
0000FFC00000
00007FC00000
00007F800000
00007F800000
00007F000000
00007F000000
00007E000000
0000FE000000
0001FC000000
0001F8000000
0003F8000000
0003F0000000
0007F0000000
000FE0000000
000FE0000000
001FC0000000
003F80000000
00FF80000000
FFFF00000000
FFFE00000000
FFFC00000000
FFF800000000
FFE000000000
3E0000000000
ENDCHAR
STARTCHAR 007A
ENCODING 122
SWIDTH 437 0
DWIDTH 34 0
BBX 35 42 -1 0
BITMAP
003FFFFFE0
003FFFFFE0
007FFFFFE0
007FFFFFE0
007FFFFFC0
0000001FC0
0000003F80
0000007F00
000000FF00
000000FE00
000001FC00
000003F800
000007F000
00000FF000
00000FE000
00001FC000
00003F8000
00007F0000
0000FE0000
0000FE0000
0001FC0000
0003F80000
0007F00000
000FE00000
001FC00000
001FC00000
003F800000
007F000000
00FE000000
01FC000000
01FC000000
03F8000000
07F0000000
0FE0000000
1FC0000000
3F80000000
3F80000000
7FFFFFF000
7FFFFFF000
FFFFFFF000
FFFFFFF000
FFFFFFE000
ENDCHAR
STARTCHAR 007B
ENCODING 123
SWIDTH 347 0
DWIDTH 27 0
BBX 30 68 1 -12
BITMAP
0000000C
000003FC
00000FFC
00003FF8
00007FF8
00007FF8
0000FF00
0000FE00
0001FC00
0001F800
0001F800
0003F000
0003F000
0003F000
0003F000
0003F000
0007E000
0007E000
0007E000
0007E000
0007C000
000FC000
000FC000
000FC000
000FC000
001F8000
001F8000
003F8000
003F0000
00FF0000
03FE0000
7FFC0000
7FF80000
7FE00000
FF000000
FFE00000
FFF00000
07F00000
01F80000
01F80000
00F80000
00FC0000
00FC0000
00FC0000
00F80000
01F80000
01F80000
01F80000
01F80000
03F00000
03F00000
03F00000
03F00000
03F00000
07E00000
07E00000
07E00000
07E00000
07E00000
07E00000
07E00000
07E00000
07F80000
07FF8000
03FF8000
03FF8000
00FF8000
003F8000
ENDCHAR
STARTCHAR 007C
ENCODING 124
SWIDTH 540 0
DWIDTH 42 0
BBX 6 78 20 -19
BITMAP
FC
FC
FC
FC
FC
FC
FC
FC
FC
FC
FC
FC
FC
FC
FC
FC
FC
FC
FC
FC
FC
FC
FC
FC
FC
FC
FC
FC
FC
FC
FC
FC
FC
FC
FC
FC
FC
FC
FC
FC
FC
FC
FC
FC
FC
FC
FC
FC
FC
FC
FC
FC
FC
FC
FC
FC
FC
FC
FC
FC
FC
FC
FC
FC
FC
FC
FC
FC
FC
FC
FC
FC
FC
FC
FC
FC
FC
FC
ENDCHAR
STARTCHAR 007D
ENCODING 125
SWIDTH 347 0
DWIDTH 27 0
BBX 29 68 -3 -12
BITMAP
00040000
0007F000
0007FC00
0007FE00
000FFF00
000FFF00
00007F80
00003F80
00001F80
00001F80
00001F80
00001F80
00001F80
00001F00
00003F00
00003F00
00003F00
00003E00
00007E00
00007E00
00007E00
00007E00
00007C00
0000FC00
0000FC00
0000FC00
0000FC00
0000FC00
0000FC00
0000FC00
00007E00
00007F80
00003FF8
00001FF8
000003F8
00001FF8
00007FF8
0001FFF0
0001FE00
0003F800
0007F000
0007E000
000FC000
000FC000
000FC000
000FC000
000F8000
001F8000
001F8000
001F8000
001F8000
003F0000
003F0000
003F0000
003F0000
007E0000
007E0000
007E0000
007E0000
00FE0000
00FC0000
01FC0000
0FF80000
FFF80000
FFF00000
FFE00000
FFC00000
FE000000
ENDCHAR
STARTCHAR 007E
ENCODING 126
SWIDTH 565 0
DWIDTH 44 0
BBX 37 9 5 23
BITMAP
07FF000008
1FFFC00018
3FFFF80038
7FFFFE00F8
FFFFFFFFF8
FC03FFFFF8
F000FFFFF0
E0001FFFE0
800007FF80
ENDCHAR
STARTCHAR 00A0
ENCODING 160
SWIDTH 257 0
DWIDTH 20 0
BBX 0 0 0 0
BITMAP
ENDCHAR
STARTCHAR 00A1
ENCODING 161
SWIDTH 244 0
DWIDTH 19 0
BBX 20 56 -1 -14
BITMAP
0007C0
000FE0
001FE0
001FF0
003FE0
003FE0
003FE0
001FC0
001F80
000000
000000
000000
000000
000000
000000
000000
003E00
003E00
003C00
003C00
007C00
007C00
007C00
007C00
00F800
00F800
00F800
00F800
01F800
01F000
01F000
01F000
03F000
03F000
03F000
03E000
07E000
07E000
07E000
07E000
0FE000
0FC000
0FC000
0FC000
1FC000
1FC000
1FC000
3F8000
3F8000
3F8000
3F8000
7F8000
7F8000
7F0000
7F0000
FF0000
ENDCHAR
STARTCHAR 00A2
ENCODING 162
SWIDTH 540 0
DWIDTH 42 0
BBX 32 57 8 -1
BITMAP
00000780
00000F80
00000F80
00000F80
00000F00
00000F00
00003FE0
0001FFFE
0007FFFF
001FFFFF
003FFFFF
007FF87E
00FF8006
01FE0000
03FC0000
07F80000
07F00000
0FE00000
0FE00000
1FC00000
1FC00000
3F800000
3F800000
3F000000
7F000000
7F000000
7F000000
7E000000
7E000000
7E000000
FE000000
FE000000
FE000000
FE000000
FE000000
FE000000
FE000000
7E000000
7F000000
7F000000
7F800000
3FC00000
3FE000C0
1FF80FC0
0FFFFFC0
07FFFFC0
03FFFFC0
00FFFF80
003FF800
001E0000
001E0000
003E0000
003E0000
003E0000
003C0000
003C0000
007C0000
ENDCHAR
STARTCHAR 00A3
ENCODING 163
SWIDTH 540 0
DWIDTH 42 0
BBX 46 56 -1 0
BITMAP
0000000FFF00
0000007FFFE0
000001FFFFF8
000003FFFFFC
000007FFFFF8
00000FFC07F8
00001FE000F0
00001FC00030
00003F800000
00003F800000
00003F000000
00007F000000
00007E000000
00007E000000
00007E000000
0000FE000000
0000FC000000
0000FC000000
0000FC000000
0001FC000000
0001FC000000
0001F8000000
0001F8000000
0001F8000000
0003F8000000
0003F0000000
03FFFFFFC000
03FFFFFFC000
03FFFFFFC000
03FFFFFFC000
03FFFFFF8000
0007E0000000
0007E0000000
000FE0000000
000FE0000000
000FC0000000
000FC0000000
000FC0000000
001FC0000000
001F80000000
001F80000000
001F80000000
003F80000000
003F00000000
007F00000000
007E00000000
00FE00000000
01FC00000000
03F800000000
0FE000000000
3FFFFFFFFC00
7FFFFFFFF800
7FFFFFFFF800
7FFFFFFFF800
FFFFFFFFF800
FFFFFFFFF800
ENDCHAR
STARTCHAR 00A4
ENCODING 164
SWIDTH 552 0
DWIDTH 43 0
BBX 32 33 7 11
BITMAP
20000004
7000000E
F80FF01F
FC3FFC3F
7EFFFF7E
3FFFFFFC
1FFFFFF8
0FF00FF0
0FC003F0
1F8001F8
1F0000F8
3F0000F8
3E00007C
3E00007C
3C00003C
7C00003C
7C00003C
7C00003C
3C00003C
3E00007C
3E00007C
3F0000FC
1F0000F8
1F8001F8
0FC003F0
0FF00FF0
1FFFFFF8
3FFFFFFC
7EFFFFFE
FC3FFC7F
F80FF03F
7000001E
20000004
ENDCHAR
STARTCHAR 00A5
ENCODING 165
SWIDTH 540 0
DWIDTH 42 0
BBX 43 56 5 0
BITMAP
0FC000000FE0
0FC000001FC0
07E000001F80
07E000003F80
07E000007F00
07E000007E00
03F00000FE00
03F00001FC00
03F00001F800
03F00003F800
01F80007F000
01F80007E000
01F8000FC000
00F8001FC000
00FC001F8000
00FC003F0000
00FC007F0000
007C007E0000
007E00FC0000
007E01FC0000
007E01F80000
003E03F00000
003F07E00000
003F07E00000
001F0FC00000
001F1F800000
001F9F800000
001FBF000000
000FFE000000
000FFE000000
1FFFFFFE0000
1FFFFFFE0000
1FFFFFFE0000
3FFFFFFE0000
3FFFFFFC0000
0007E0000000
0007E0000000
0007C0000000
000FC0000000
000FC0000000
000FC0000000
7FFFFFF80000
FFFFFFF80000
FFFFFFF80000
FFFFFFF00000
FFFFFFF00000
001F80000000
001F00000000
003F00000000
003F00000000
003F00000000
003F00000000
007E00000000
007E00000000
007E00000000
007E00000000
ENDCHAR
STARTCHAR 00A6
ENCODING 166
SWIDTH 540 0
DWIDTH 42 0
BBX 6 78 20 -19
BITMAP
FC
FC
FC
FC
FC
FC
FC
FC
FC
FC
FC
FC
FC
FC
FC
FC
FC
FC
FC
FC
FC
FC
FC
FC
FC
FC
FC
FC
FC
00
00
00
00
00
00
00
00
00
00
00
00
00
00
00
00
00
00
00
FC
FC
FC
FC
FC
FC
FC
FC
FC
FC
FC
FC
FC
FC
FC
FC
FC
FC
FC
FC
FC
FC
FC
FC
FC
FC
FC
FC
FC
FC
ENDCHAR
STARTCHAR 00A7
ENCODING 167
SWIDTH 475 0
DWIDTH 37 0
BBX 36 59 2 0
BITMAP
00007FFE00
0001FFFFE0
0007FFFFF0
000FFFFFE0
001FFC7FE0
003FC003E0
003F800040
003F000000
007F000000
007E000000
007E000000
007E000000
007F000000
003F800000
003FC00000
001FF00000
000FFC0000
0007FF0000
0007FFC000
001FFFF000
003FFFF800
00FF0FFC00
01FC03FE00
01F801FE00
03F0007F00
07E0003F00
07E0003F00
07C0003F00
07C0001F00
07C0001F00
07E0003F00
07E0003F00
07E0003E00
07F0007E00
03FC00FC00
03FE01F800
01FF83F000
00FFEFE000
003FFFC000
001FFF0000
0007FF0000
0001FFC000
00007FC000
00001FE000
00000FF000
000007F000
000003F000
000003F000
000003F000
000003F000
000007E000
000007E000
C0000FE000
F8003FC000
FFEFFF8000
FFFFFF0000
FFFFFE0000
7FFFF80000
0FFFC00000
ENDCHAR
STARTCHAR 00A8
ENCODING 168
SWIDTH 552 0
DWIDTH 43 0
BBX 20 8 18 49
BITMAP
3000C0
7C01F0
FC03F0
FC03F0
FC07F0
FC03F0
F803E0
7001C0
ENDCHAR
STARTCHAR 00A9
ENCODING 169
SWIDTH 822 0
DWIDTH 64 0
BBX 57 57 4 -1
BITMAP
000007FFF0000000
00003FFFFE000000
0001FFFFFF800000
0003FFFFFFE00000
000FF8001FF80000
003FC00003FC0000
007F000000FE0000
00FE0000003F0000
01F80000001F8000
03F00000000FC000
03E000000003E000
07C0007FE003F000
0F8001FFFC01F000
0F0007FFFE00F800
1F000FFFFE007C00
3E001FFFFC007C00
3E003FC01C003E00
3C007F0000003E00
7C00FE0000001E00
7800FC0000001F00
7801F80000000F00
F801F80000000F00
F001F80000000F00
F001F00000000F80
F003F00000000F80
F003F00000000780
F003F00000000780
F003F00000000780
F003F00000000780
F003F00000000780
F003F00000000780
F003F00000000780
F003F00000000F80
F001F00000000F80
F801F80000000F00
7801F80000000F00
7801FC0000001F00
7C00FC0000001F00
7C00FE0000001E00
3C007F0004003E00
3E003FE07C003C00
1F001FFFFC007C00
1F000FFFFC00F800
0F8007FFFC00F800
0FC001FFF001F000
07E0000E0003F000
03F000000007E000
01F80000000FC000
00FC0000001F8000
007F0000007F0000
003FC00001FE0000
001FF00007FC0000
0007FF007FF00000
0003FFFFFFC00000
00007FFFFF000000
00001FFFF8000000
000000FF00000000
ENDCHAR
STARTCHAR 00AA
ENCODING 170
SWIDTH 334 0
DWIDTH 26 0
BBX 24 26 6 30
BITMAP
007F0F
01FF8F
03FFCE
07FFFE
0FC0FE
0F807E
1F007E
1E007C
3E007C
3C007C
7C007C
7C0078
780078
780078
7800F8
F800F8
F800F0
F801F0
F803F0
7803F0
7C07F0
7C1EE0
3FFDE0
3FF9E0
1FF1E0
07E1C0
ENDCHAR
STARTCHAR 00AB
ENCODING 171
SWIDTH 462 0
DWIDTH 36 0
BBX 33 31 3 5
BITMAP
0003000C00
0007800E00
000FC01F80
001F803F00
003F007E00
007E00FC00
00FC01F800
01FC03F800
03F807F000
07F00FE000
0FE01FC000
1FC03F8000
3F803F8000
7F007F0000
FE00FE0000
FE01FC0000
7E01FC0000
7F00FC0000
3F00FE0000
3F807E0000
1F807F0000
0FC03F0000
0FC03F0000
07C01F8000
07E01F8000
03E00FC000
03F007C000
01F007E000
01F803E000
00F803F000
00E001C000
ENDCHAR
STARTCHAR 00AC
ENCODING 172
SWIDTH 565 0
DWIDTH 44 0
BBX 37 20 5 10
BITMAP
FFFFFFFFF8
FFFFFFFFF8
FFFFFFFFF8
FFFFFFFFF8
FFFFFFFFF8
00000000F8
00000000F8
00000000F8
00000000F8
00000000F8
00000000F8
00000000F8
00000000F8
00000000F8
00000000F8
00000000F8
00000000F8
00000000F8
00000000F8
00000000F8
ENDCHAR
STARTCHAR 00AD
ENCODING 173
SWIDTH 308 0
DWIDTH 24 0
BBX 20 6 2 18
BITMAP
7FFFF0
7FFFE0
7FFFE0
7FFFE0
FFFFE0
FFFFE0
ENDCHAR
STARTCHAR 00AE
ENCODING 174
SWIDTH 822 0
DWIDTH 64 0
BBX 57 57 4 -1
BITMAP
000007FFF0000000
00003FFFFE000000
0001FFFFFF800000
0003FFFFFFE00000
000FF8001FF80000
003FC00003FC0000
007F000000FE0000
00FE0000003F0000
01F80000001F8000
03F00000000FC000
03E000000003E000
07C03FFE0003F000
0F803FFFE001F000
0F003FFFF800F800
1F003FFFFC007C00
3E003FFFFC007C00
3E003E01FE003E00
3C003E007E003E00
7C003E003F001E00
78003E003F001F00
78003E003F000F00
F8003E003F000F00
F0003E003F000F00
F0003E003F000F80
F0003E007E000F80
F0003E007E000780
F0003E01FC000780
F0003FFFFC000780
F0003FFFF8000780
F0003FFFE0000780
F0003FFFC0000780
F0003FFFC0000780
F0003E07E0000F80
F0003E03F0000F80
F8003E03F0000F00
78003E01F8000F00
78003E01F8001F00
7C003E00FC001F00
7C003E007E001E00
3C003E007E003E00
3E003E003F003C00
1F003E003F007C00
1F003E001F80F800
0F803E001FC0F800
0FC03E000FC1F000
07E000000003F000
03F000000007E000
01F80000000FC000
00FC0000001F8000
007F0000007F0000
003FC00001FE0000
001FF00007FC0000
0007FF007FF00000
0003FFFFFFC00000
00007FFFFF000000
00001FFFF8000000
000000FF00000000
ENDCHAR
STARTCHAR 00AF
ENCODING 175
SWIDTH 398 0
DWIDTH 31 0
BBX 32 5 8 59
BITMAP
7FFFFFFF
7FFFFFFE
FFFFFFFE
FFFFFFFE
FFFFFFFE
ENDCHAR
STARTCHAR 00B0
ENCODING 176
SWIDTH 424 0
DWIDTH 33 0
BBX 25 23 4 33
BITMAP
00FFC000
03FFF000
0FFFF800
1FFFFC00
3F80FE00
3F003E00
7E001F00
7C001F00
7C000F80
78000F80
F8000F80
F8000F80
F8000F80
78000F80
7C000F80
7C001F00
7E001F00
3F003E00
3F80FE00
1FFFFC00
0FFFF800
03FFF000
00FFC000
ENDCHAR
STARTCHAR 00B1
ENCODING 177
SWIDTH 565 0
DWIDTH 44 0
BBX 37 46 5 0
BITMAP
0000F80000
0000F80000
0000F80000
0000F80000
0000F80000
0000F80000
0000F80000
0000F80000
0000F80000
0000F80000
0000F80000
0000F80000
0000F80000
0000F80000
0000F80000
0000F80000
FFFFFFFFF8
FFFFFFFFF8
FFFFFFFFF8
FFFFFFFFF8
FFFFFFFFF8
0000F80000
0000F80000
0000F80000
0000F80000
0000F80000
0000F80000
0000F80000
0000F80000
0000F80000
0000F80000
0000F80000
0000F80000
0000F80000
0000F80000
0000F80000
0000F80000
0000000000
0000000000
0000000000
0000000000
FFFFFFFFF8
FFFFFFFFF8
FFFFFFFFF8
FFFFFFFFF8
FFFFFFFFF8
ENDCHAR
STARTCHAR 00B2
ENCODING 178
SWIDTH 347 0
DWIDTH 27 0
BBX 26 34 5 32
BITMAP
000FFC00
007FFE00
00FFFF00
03FFFF80
01F81F80
00E00F80
00800FC0
000007C0
000007C0
000007C0
00000F80
00000F80
00000F80
00001F00
00003F00
00007E00
0000FC00
0001F800
0003F000
0007E000
000FC000
001F8000
003F0000
00FE0000
01F80000
03F00000
07E00000
0FC00000
1F800000
7FFFFE00
7FFFFE00
7FFFFC00
7FFFFC00
FFFFFC00
ENDCHAR
STARTCHAR 00B3
ENCODING 179
SWIDTH 347 0
DWIDTH 27 0
BBX 25 34 6 32
BITMAP
003FF000
01FFFC00
03FFFE00
07FFFF00
03E03F00
01801F00
00001F80
00000F80
00000F80
00000F00
00001F00
00001F00
00003E00
0000FC00
00FFF800
00FFE000
01FF8000
01FFE000
000FF000
0001F800
0000FC00
00007C00
00007C00
00007C00
00007C00
00007C00
00007C00
0000FC00
E001F800
F807F800
FFFFF000
FFFFE000
7FFF8000
0FFE0000
ENDCHAR
STARTCHAR 00B4
ENCODING 180
SWIDTH 257 0
DWIDTH 20 0
BBX 16 13 9 47
BITMAP
007F
00FF
01FE
01FC
03F8
07F0
0FE0
0FC0
1F80
3F00
7E00
FC00
F000
ENDCHAR
STARTCHAR 00B5
ENCODING 181
SWIDTH 578 0
DWIDTH 45 0
BBX 45 61 -2 -19
BITMAP
0007E00001F8
0007E00001F8
0007E00003F8
000FE00003F0
000FC00003F0
000FC00003F0
000FC00007F0
001FC00007E0
001FC00007E0
001F800007E0
001F800007E0
001F80000FE0
003F80000FC0
003F80000FC0
003F00000FC0
003F00001FC0
003F00001FC0
007F00001F80
007F00001F80
007E00001F80
007E00003F80
007E00003F00
00FE00003F00
00FC00007F00
00FC00007F00
00FC00007F00
01FC0000FE00
01FC0000FE00
01F80001FE00
01F80001FE00
01F80003FE00
03F80007FC00
03F8000FFC00
03F8001FFC00
03FC003EFC00
03FC007CF800
07FE01F8F800
07FFFFF9F800
07FFFFF1F800
07FFFFC1F800
07CFFF81F000
0FC7FE01F000
0FC1F0000000
0FC000000000
0FC000000000
1FC000000000
1F8000000000
1F8000000000
1F8000000000
1F8000000000
3F8000000000
3F0000000000
3F0000000000
3F0000000000
3F0000000000
7F0000000000
7E0000000000
7E0000000000
7E0000000000
7E0000000000
FE0000000000
ENDCHAR
STARTCHAR 00B6
ENCODING 182
SWIDTH 642 0
DWIDTH 50 0
BBX 37 69 8 -10
BITMAP
001FFFFFF8
00FFFFFFF8
03FFFFFFF8
07FFFFFFF8
0FFFFFFFF8
1FFFFF8078
3FFFFF8078
3FFFFF8078
7FFFFF8078
7FFFFF8078
7FFFFF8078
FFFFFF8078
FFFFFF8078
FFFFFF8078
FFFFFF8078
FFFFFF8078
FFFFFF8078
FFFFFF8078
FFFFFF8078
FFFFFF8078
FFFFFF8078
FFFFFF8078
FFFFFF8078
FFFFFF8078
FFFFFF8078
FFFFFF8078
FFFFFF8078
7FFFFF8078
7FFFFF8078
7FFFFF8078
3FFFFF8078
3FFFFF8078
1FFFFF8078
0FFFFF8078
07FFFF8078
03FFFF8078
00FFFF8078
000FE78078
0000078078
0000078078
0000078078
0000078078
0000078078
0000078078
0000078078
0000078078
0000078078
0000078078
0000078078
0000078078
0000078078
0000078078
0000078078
0000078078
0000078078
0000078078
0000078078
0000078078
0000078078
0000078078
0000078078
0000078078
0000078078
0000078078
0000078078
0000078078
0000078078
0000078078
0000078078
ENDCHAR
STARTCHAR 00B7
ENCODING 183
SWIDTH 244 0
DWIDTH 19 0
BBX 10 10 6 22
BITMAP
1F00
3F80
7F80
7FC0
7FC0
FF80
FF80
7F80
7F00
3C00
ENDCHAR
STARTCHAR 00B8
ENCODING 184
SWIDTH 192 0
DWIDTH 15 0
BBX 15 19 -7 -19
BITMAP
00F0
01F0
01E0
03E0
03C0
07F0
07FC
01FC
007E
003E
003E
003E
007E
00FC
87FC
FFF8
FFF0
FFC0
3C00
ENDCHAR
STARTCHAR 00B9
ENCODING 185
SWIDTH 347 0
DWIDTH 27 0
BBX 16 34 11 32
BITMAP
001F
003F
00FF
01FE
07FE
0FFE
3FBE
FF3E
7C7C
387C
207C
007C
00F8
00F8
00F8
00F8
01F8
01F0
01F0
01F0
01F0
03F0
03E0
03E0
03E0
03E0
07E0
07C0
07C0
07C0
0FC0
0F80
0F80
0F80
ENDCHAR
STARTCHAR 00BA
ENCODING 186
SWIDTH 334 0
DWIDTH 26 0
BBX 22 26 7 30
BITMAP
00FF80
03FFE0
07FFF0
0FFFF0
1F81F8
1F00F8
3E0078
7C007C
7C003C
78003C
F8003C
F8003C
F0007C
F0007C
F00078
F00078
F000F8
F000F8
F000F0
F801F0
F803E0
7E07C0
7FFFC0
3FFF80
0FFE00
07F800
ENDCHAR
STARTCHAR 00BB
ENCODING 187
SWIDTH 462 0
DWIDTH 36 0
BBX 32 32 1 4
BITMAP
00000100
03C00700
07C01F80
07E00F80
03E00FC0
03F007C0
03F007E0
01F807E0
01F803F0
00FC03F0
00FC01F8
007E01F8
007E00FC
003F00FC
003F007E
001F807E
003F807F
007F007F
00FF00FF
00FE01FE
01FC03FC
03F807F8
07F00FF0
0FE00FE0
0FC01FC0
1F803F80
3F007E00
7E00FC00
FC01F800
F803F000
7801E000
3000C000
ENDCHAR
STARTCHAR 00BC
ENCODING 188
SWIDTH 720 0
DWIDTH 56 0
BBX 47 56 7 0
BITMAP
0007C000007E
000F800000FC
003F800001F8
00FF800001F0
01FF800003F0
07FF800007E0
0FFF00000FC0
3F9F00000F80
1F1F00001F80
1C1F00003F00
083F00007E00
003E00007C00
003E0000FC00
003E0001F800
007E0003F000
007C0003E000
007C0007E000
007C000FC000
007C001F8000
00FC001F8000
00F8003F0000
00F8007E0000
00F800FC007E
00F800FC00FC
01F801F800FC
01F003F001FC
01F003E003FC
01F007E007F8
03F00FC00FF8
03F01F801FF8
03E01F001EF8
03E03F003EF8
03E07E007CF0
07E0FC00F9F0
0000F801F1F0
0001F803E1F0
0003F003C1F0
0007E007C3E0
0007C00F83E0
000FC01F03E0
001F803E03E0
003F007C03C0
003E00F807C0
007E00F807C0
00FC01FFFFFE
01F801FFFFFC
01F003FFFFFC
03F003FFFFFC
07E000000F80
0FC000000F80
0F8000000F00
1F8000001F00
3F0000001F00
7E0000001F00
7E0000001F00
FC0000001E00
ENDCHAR
STARTCHAR 00BD
ENCODING 189
SWIDTH 784 0
DWIDTH 61 0
BBX 52 56 7 0
BITMAP
0007C000007E00
000F800000FC00
003F800001F800
00FF800001F000
01FF800003F000
07FF800007E000
0FFF00000FC000
3F9F00000FC000
1F1F00001F8000
1C1F00003F0000
083F00007E0000
003E00007E0000
003E0000FC0000
003E0001F80000
007E0001F00000
007C0003F00000
007C0007E00000
007C000FC00000
007C000F800000
00FC001F800000
00F8003F000000
00F8007E000000
00F8007C03FE00
00F800FC0FFF80
01F801F83FFFC0
01F003F07FFFC0
01F003E07E0FE0
01F007E07803E0
03F00FC02003F0
03F01F800001F0
03E01F000001F0
03E03F000001F0
03E07E000003E0
07E0FC000003E0
0000F8000003E0
0001F8000007C0
0003F000000FC0
0007E000001F80
0007C000003F00
000FC000007E00
001F800000FC00
003F000001F800
003F000003F000
007E000007E000
00FC00000FC000
01F800001F8000
01F800003F0000
03F00000FC0000
07E00001F80000
07C00003F00000
0FC00007E00000
1F80000FFFFF80
3F00001FFFFF80
3E00001FFFFF00
7E00001FFFFF00
FC00003FFFFF00
ENDCHAR
STARTCHAR 00BE
ENCODING 190
SWIDTH 771 0
DWIDTH 60 0
BBX 54 56 4 0
BITMAP
003FF00000007C
00FFFC000000FC
03FFFE000001F8
07FFFF000003F0
03E07F000003E0
03801F000007E0
00001F00000FC0
00001F80001F80
00000F00001F00
00001F00003F00
00001F00007E00
00001F0000FC00
00003E0000F800
0000FC0001F800
00FFF80003F000
01FFE00007E000
01FF800007C000
01FFE0000FC000
001FF0001F8000
0001F8003F0000
0000F8003E0000
00007C007E0000
00007C00FC007C
00007C01F800FC
00007C01F801F8
00007C03F003F8
0000FC07E007F8
0000F80FC00FF8
C001F80FC00FF8
F807F01F801EF0
FFFFF03F003FF0
FFFFE07E007DF0
7FFF807E00F9F0
1FFE00FC01F1F0
000001F801E3E0
000001F003E3E0
000003F007C3E0
000007E00F83E0
00000FC01F03C0
00000F803E07C0
00001F803C07C0
00003F007C07C0
00007E00F807C0
00007C01F00F80
0000FC03FFFFFC
0001F803FFFFFC
0003F003FFFFFC
0003E003FFFFF8
0007E000001F00
000FC000001F00
001F8000001F00
001F0000001F00
003F0000001E00
007E0000003E00
00FC0000003E00
00F80000003E00
ENDCHAR
STARTCHAR 00BF
ENCODING 191
SWIDTH 424 0
DWIDTH 33 0
BBX 30 57 -2 -15
BITMAP
000001F0
000003F8
000007F8
000007FC
00000FF8
00000FF8
00000FF8
000007F0
000007E0
00000000
00000000
00000000
00000000
00000000
00000000
00000000
00000FC0
00000F80
00000F80
00000F80
00001F80
00001F00
00003F00
00007E00
0000FE00
0001FC00
0007F800
000FF000
001FE000
003FC000
00FF8000
01FF0000
03FE0000
07F80000
0FF00000
1FE00000
1FC00000
3F800000
3F000000
7F000000
7E000000
7E000000
7E000000
7E000000
FE000000
FE000000
7E000000
7E000000
7F000040
7F8001C0
3FC007E0
3FFDFFE0
1FFFFFF0
0FFFFFF0
07FFFF80
03FFFE00
007FE000
ENDCHAR
STARTCHAR 00C0
ENCODING 192
SWIDTH 552 0
DWIDTH 43 0
BBX 44 74 -4 0
BITMAP
0000003F8000
0000003F8000
0000001FC000
0000000FC000
0000000FE000
00000007E000
00000007F000
00000003F000
00000001F800
00000000F800
000000007C00
000000007C00
000000003E00
000000000000
000000000000
000000000000
000000000000
000000000000
00000003F800
00000007F800
00000007F800
0000000FF800
0000000FF800
0000001FF800
0000001FFC00
0000003FFC00
0000003FFC00
0000007EFC00
0000007EFC00
000000FCFC00
000001FCFC00
000001F87C00
000003F87E00
000003F07E00
000007F07E00
000007E07E00
00000FE07E00
00000FC07E00
00001FC07E00
00001F807E00
00003F807F00
00007F003F00
00007E003F00
0000FE003F00
0000FC003F00
0001FC003F00
0001F8003F00
0003F8003F00
0003F0003F80
0007F0003F80
000FE0001F80
000FFFFFFF80
001FFFFFFF80
001FFFFFFF80
003FFFFFFF80
003FFFFFFF80
007F00001FC0
007E00001FC0
00FE00000FC0
00FC00000FC0
01FC00000FC0
03F800000FC0
03F800000FC0
07F000000FC0
07F000000FE0
0FE000000FE0
0FE0000007E0
1FC0000007E0
1FC0000007E0
3F80000007E0
3F80000007E0
7F00000007E0
FE00000007F0
FE00000007F0
ENDCHAR
STARTCHAR 00C1
ENCODING 193
SWIDTH 552 0
DWIDTH 43 0
BBX 47 74 -4 0
BITMAP
0000000001FE
0000000001FC
0000000003FC
0000000007F8
0000000007F0
000000000FE0
000000001FC0
000000003F80
000000003F00
000000007E00
00000000FC00
00000001F000
00000001E000
000000000000
000000000000
000000000000
000000000000
000000000000
00000003F800
00000007F800
00000007F800
0000000FF800
0000000FF800
0000001FF800
0000001FFC00
0000003FFC00
0000003FFC00
0000007EFC00
0000007EFC00
000000FCFC00
000001FCFC00
000001F87C00
000003F87E00
000003F07E00
000007F07E00
000007E07E00
00000FE07E00
00000FC07E00
00001FC07E00
00001F807E00
00003F807F00
00007F003F00
00007E003F00
0000FE003F00
0000FC003F00
0001FC003F00
0001F8003F00
0003F8003F00
0003F0003F80
0007F0003F80
000FE0001F80
000FFFFFFF80
001FFFFFFF80
001FFFFFFF80
003FFFFFFF80
003FFFFFFF80
007F00001FC0
007E00001FC0
00FE00000FC0
00FC00000FC0
01FC00000FC0
03F800000FC0
03F800000FC0
07F000000FC0
07F000000FE0
0FE000000FE0
0FE0000007E0
1FC0000007E0
1FC0000007E0
3F80000007E0
3F80000007E0
7F00000007E0
FE00000007F0
FE00000007F0
ENDCHAR
STARTCHAR 00C2
ENCODING 194
SWIDTH 552 0
DWIDTH 43 0
BBX 45 73 -4 0
BITMAP
00000000FE00
00000001FF00
00000001FF00
00000003FF80
00000007FF80
0000000FCFC0
0000001F87E0
0000003F03E0
0000007E03F0
000000FC01F0
000001F000F8
000003E00078
000000000000
000000000000
000000000000
000000000000
000000000000
00000003F800
00000007F800
00000007F800
0000000FF800
0000000FF800
0000001FF800
0000001FFC00
0000003FFC00
0000003FFC00
0000007EFC00
0000007EFC00
000000FCFC00
000001FCFC00
000001F87C00
000003F87E00
000003F07E00
000007F07E00
000007E07E00
00000FE07E00
00000FC07E00
00001FC07E00
00001F807E00
00003F807F00
00007F003F00
00007E003F00
0000FE003F00
0000FC003F00
0001FC003F00
0001F8003F00
0003F8003F00
0003F0003F80
0007F0003F80
000FE0001F80
000FFFFFFF80
001FFFFFFF80
001FFFFFFF80
003FFFFFFF80
003FFFFFFF80
007F00001FC0
007E00001FC0
00FE00000FC0
00FC00000FC0
01FC00000FC0
03F800000FC0
03F800000FC0
07F000000FC0
07F000000FE0
0FE000000FE0
0FE0000007E0
1FC0000007E0
1FC0000007E0
3F80000007E0
3F80000007E0
7F00000007E0
FE00000007F0
FE00000007F0
ENDCHAR
STARTCHAR 00C3
ENCODING 195
SWIDTH 552 0
DWIDTH 43 0
BBX 49 71 -4 0
BITMAP
0000000F800780
0000003FE00780
0000007FF00F80
000000FFFC0F00
000001FFFFFF00
000001F9FFFE00
000003E07FFE00
000003C01FFC00
000003C00FF800
0000078003E000
00000000000000
00000000000000
00000000000000
00000000000000
00000000000000
00000003F80000
00000007F80000
00000007F80000
0000000FF80000
0000000FF80000
0000001FF80000
0000001FFC0000
0000003FFC0000
0000003FFC0000
0000007EFC0000
0000007EFC0000
000000FCFC0000
000001FCFC0000
000001F87C0000
000003F87E0000
000003F07E0000
000007F07E0000
000007E07E0000
00000FE07E0000
00000FC07E0000
00001FC07E0000
00001F807E0000
00003F807F0000
00007F003F0000
00007E003F0000
0000FE003F0000
0000FC003F0000
0001FC003F0000
0001F8003F0000
0003F8003F0000
0003F0003F8000
0007F0003F8000
000FE0001F8000
000FFFFFFF8000
001FFFFFFF8000
001FFFFFFF8000
003FFFFFFF8000
003FFFFFFF8000
007F00001FC000
007E00001FC000
00FE00000FC000
00FC00000FC000
01FC00000FC000
03F800000FC000
03F800000FC000
07F000000FC000
07F000000FE000
0FE000000FE000
0FE0000007E000
1FC0000007E000
1FC0000007E000
3F80000007E000
3F80000007E000
7F00000007E000
FE00000007F000
FE00000007F000
ENDCHAR
STARTCHAR 00C4
ENCODING 196
SWIDTH 552 0
DWIDTH 43 0
BBX 46 71 -4 0
BITMAP
000000080000
0000003E00F8
0000007F01FC
0000007F01FC
0000007F01FC
0000007E01F8
0000007E01F8
0000003800E0
000000000000
000000000000
000000000000
000000000000
000000000000
000000000000
000000000000
00000003F800
00000007F800
00000007F800
0000000FF800
0000000FF800
0000001FF800
0000001FFC00
0000003FFC00
0000003FFC00
0000007EFC00
0000007EFC00
000000FCFC00
000001FCFC00
000001F87C00
000003F87E00
000003F07E00
000007F07E00
000007E07E00
00000FE07E00
00000FC07E00
00001FC07E00
00001F807E00
00003F807F00
00007F003F00
00007E003F00
0000FE003F00
0000FC003F00
0001FC003F00
0001F8003F00
0003F8003F00
0003F0003F80
0007F0003F80
000FE0001F80
000FFFFFFF80
001FFFFFFF80
001FFFFFFF80
003FFFFFFF80
003FFFFFFF80
007F00001FC0
007E00001FC0
00FE00000FC0
00FC00000FC0
01FC00000FC0
03F800000FC0
03F800000FC0
07F000000FC0
07F000000FE0
0FE000000FE0
0FE0000007E0
1FC0000007E0
1FC0000007E0
3F80000007E0
3F80000007E0
7F00000007E0
FE00000007F0
FE00000007F0
ENDCHAR
STARTCHAR 00C5
ENCODING 197
SWIDTH 552 0
DWIDTH 43 0
BBX 44 76 -4 0
BITMAP
00000001FE00
00000007FF80
0000000FFF80
0000001F87C0
0000001E03E0
0000001E01E0
0000003C01E0
0000003C01E0
0000003C01E0
0000001E01E0
0000001E03E0
0000001F07C0
0000000FFFC0
00000007FF80
00000003FF00
00000000F800
000000000000
000000000000
000000000000
000000000000
00000003F800
00000007F800
00000007F800
0000000FF800
0000000FF800
0000001FF800
0000001FFC00
0000003FFC00
0000003FFC00
0000007EFC00
0000007EFC00
000000FCFC00
000001FCFC00
000001F87C00
000003F87E00
000003F07E00
000007F07E00
000007E07E00
00000FE07E00
00000FC07E00
00001FC07E00
00001F807E00
00003F807F00
00007F003F00
00007E003F00
0000FE003F00
0000FC003F00
0001FC003F00
0001F8003F00
0003F8003F00
0003F0003F80
0007F0003F80
000FE0001F80
000FFFFFFF80
001FFFFFFF80
001FFFFFFF80
003FFFFFFF80
003FFFFFFF80
007F00001FC0
007E00001FC0
00FE00000FC0
00FC00000FC0
01FC00000FC0
03F800000FC0
03F800000FC0
07F000000FC0
07F000000FE0
0FE000000FE0
0FE0000007E0
1FC0000007E0
1FC0000007E0
3F80000007E0
3F80000007E0
7F00000007E0
FE00000007F0
FE00000007F0
ENDCHAR
STARTCHAR 00C6
ENCODING 198
SWIDTH 810 0
DWIDTH 63 0
BBX 71 56 -4 0
BITMAP
000000001FFFFFFFFE
000000003FFFFFFFFE
000000003FFFFFFFFC
000000007FFFFFFFFC
00000000FFFFFFFFFC
00000000FFFFFFFFFC
00000001FC7F000000
00000003F87F000000
00000003F87E000000
00000007F07E000000
00000007E0FE000000
0000000FE0FE000000
0000001FC0FC000000
0000001FC0FC000000
0000003F80FC000000
0000007F01FC000000
0000007F01FC000000
000000FE01F8000000
000001FC01F8000000
000001FC03F8000000
000003F803F8000000
000003F803F0000000
000007F003F0000000
00000FE003F0000000
00000FE007FFFFFF00
00001FC007FFFFFF00
00003F8007FFFFFF00
00003F8007FFFFFF00
00007F0007FFFFFF00
0000FF000FFFFFFE00
0000FE000FE0000000
0001FC000FE0000000
0001FC000FC0000000
0003FFFFFFC0000000
0007FFFFFFC0000000
0007FFFFFFC0000000
000FFFFFFF80000000
001FFFFFFF80000000
001FC0003F80000000
003F80003F80000000
007F80003F80000000
007F00003F00000000
00FE00003F00000000
00FE00007F00000000
01FC00007F00000000
03F800007F00000000
03F800007E00000000
07F000007E00000000
0FF00000FE00000000
0FE00000FE00000000
1FC00000FFFFFFF000
3FC00000FFFFFFF000
3F800000FFFFFFF000
7F000001FFFFFFF000
FF000001FFFFFFE000
FE000001FFFFFFE000
ENDCHAR
STARTCHAR 00C7
ENCODING 199
SWIDTH 578 0
DWIDTH 45 0
BBX 43 75 6 -19
BITMAP
000001FFF800
00000FFFFF00
00007FFFFFE0
0000FFFFFFE0
0003FFFFFFC0
0007FFF0FFC0
001FFE000780
003FF0000180
007FE0000000
007F80000000
00FF00000000
01FE00000000
03FC00000000
03F800000000
07F800000000
0FF000000000
0FE000000000
0FE000000000
1FC000000000
1FC000000000
3F8000000000
3F8000000000
3F8000000000
7F0000000000
7F0000000000
7F0000000000
7E0000000000
FE0000000000
FE0000000000
FE0000000000
FE0000000000
FE0000000000
FE0000000000
FE0000000000
FE0000000000
FE0000000000
FE0000000000
FE0000000000
FE0000000000
FE0000000000
FE0000000000
FE0000000000
FF0000000000
7F0000000000
7F8000000000
7F8000000000
3FC000000000
3FE000000000
1FF000000000
0FFC00018000
0FFF001F8000
07FFFFFF8000
03FFFFFF8000
00FFFFFF8000
007FFFFF8000
001FFFF80000
0000FF800000
0000F0000000
0001E0000000
0003E0000000
0003C0000000
0007F0000000
0007FC000000
0000FE000000
00007E000000
00003E000000
00003E000000
00003E000000
00007E000000
00007E000000
0003FC000000
007FF8000000
007FF0000000
007FC0000000
003C00000000
ENDCHAR
STARTCHAR 00C8
ENCODING 200
SWIDTH 514 0
DWIDTH 40 0
BBX 40 74 3 0
BITMAP
00001FC000
00001FC000
00000FC000
00000FE000
000007E000
000007F000
000003F000
000001F800
000000F800
000000FC00
0000007C00
0000003E00
0000001E00
0000000000
0000000000
0000000000
0000000000
0000000000
000FFFFFFF
000FFFFFFF
000FFFFFFF
001FFFFFFF
001FFFFFFE
001FFFFFFE
001F800000
001F800000
003F800000
003F800000
003F000000
003F000000
007F000000
007F000000
007E000000
007E000000
007E000000
00FE000000
00FE000000
00FC000000
00FC000000
00FC000000
01FC000000
01FC000000
01FFFFFFC0
01FFFFFF80
03FFFFFF80
03FFFFFF80
03FFFFFF80
03FFFFFF80
03F0000000
07F0000000
07F0000000
07E0000000
07E0000000
07E0000000
0FE0000000
0FE0000000
0FC0000000
0FC0000000
0FC0000000
1FC0000000
1FC0000000
1F80000000
1F80000000
3F80000000
3F80000000
3F00000000
3F00000000
3F00000000
7FFFFFFC00
7FFFFFF800
7FFFFFF800
7FFFFFF800
7FFFFFF800
FFFFFFF000
ENDCHAR
STARTCHAR 00C9
ENCODING 201
SWIDTH 514 0
DWIDTH 40 0
BBX 40 74 3 0
BITMAP
00000000FE
00000001FE
00000001FC
00000003F8
00000007F0
0000000FE0
0000000FC0
0000001F80
0000003F00
0000007E00
000000FC00
000001F800
000001F000
0000000000
0000000000
0000000000
0000000000
0000000000
000FFFFFFF
000FFFFFFF
000FFFFFFF
001FFFFFFF
001FFFFFFE
001FFFFFFE
001F800000
001F800000
003F800000
003F800000
003F000000
003F000000
007F000000
007F000000
007E000000
007E000000
007E000000
00FE000000
00FE000000
00FC000000
00FC000000
00FC000000
01FC000000
01FC000000
01FFFFFFC0
01FFFFFF80
03FFFFFF80
03FFFFFF80
03FFFFFF80
03FFFFFF80
03F0000000
07F0000000
07F0000000
07E0000000
07E0000000
07E0000000
0FE0000000
0FE0000000
0FC0000000
0FC0000000
0FC0000000
1FC0000000
1FC0000000
1F80000000
1F80000000
3F80000000
3F80000000
3F00000000
3F00000000
3F00000000
7FFFFFFC00
7FFFFFF800
7FFFFFF800
7FFFFFF800
7FFFFFF800
FFFFFFF000
ENDCHAR
STARTCHAR 00CA
ENCODING 202
SWIDTH 514 0
DWIDTH 40 0
BBX 40 73 3 0
BITMAP
0000007F00
000000FF00
000001FF80
000003FFC0
000007FFC0
00000FE7E0
00001FC7E0
00003F83F0
00007E01F8
0000FC00F8
0001F8007C
0001E0003C
0000000000
0000000000
0000000000
0000000000
0000000000
000FFFFFFF
000FFFFFFF
000FFFFFFF
001FFFFFFF
001FFFFFFE
001FFFFFFE
001F800000
001F800000
003F800000
003F800000
003F000000
003F000000
007F000000
007F000000
007E000000
007E000000
007E000000
00FE000000
00FE000000
00FC000000
00FC000000
00FC000000
01FC000000
01FC000000
01FFFFFFC0
01FFFFFF80
03FFFFFF80
03FFFFFF80
03FFFFFF80
03FFFFFF80
03F0000000
07F0000000
07F0000000
07E0000000
07E0000000
07E0000000
0FE0000000
0FE0000000
0FC0000000
0FC0000000
0FC0000000
1FC0000000
1FC0000000
1F80000000
1F80000000
3F80000000
3F80000000
3F00000000
3F00000000
3F00000000
7FFFFFFC00
7FFFFFF800
7FFFFFF800
7FFFFFF800
7FFFFFF800
FFFFFFF000
ENDCHAR
STARTCHAR 00CB
ENCODING 203
SWIDTH 514 0
DWIDTH 40 0
BBX 40 71 3 0
BITMAP
0000040010
00001F007C
00003F00FC
00003F00FC
00003F01FC
00003F00FC
00003E00F8
00001C0070
0000000000
0000000000
0000000000
0000000000
0000000000
0000000000
0000000000
000FFFFFFF
000FFFFFFF
000FFFFFFF
001FFFFFFF
001FFFFFFE
001FFFFFFE
001F800000
001F800000
003F800000
003F800000
003F000000
003F000000
007F000000
007F000000
007E000000
007E000000
007E000000
00FE000000
00FE000000
00FC000000
00FC000000
00FC000000
01FC000000
01FC000000
01FFFFFFC0
01FFFFFF80
03FFFFFF80
03FFFFFF80
03FFFFFF80
03FFFFFF80
03F0000000
07F0000000
07F0000000
07E0000000
07E0000000
07E0000000
0FE0000000
0FE0000000
0FC0000000
0FC0000000
0FC0000000
1FC0000000
1FC0000000
1F80000000
1F80000000
3F80000000
3F80000000
3F00000000
3F00000000
3F00000000
7FFFFFFC00
7FFFFFF800
7FFFFFF800
7FFFFFF800
7FFFFFF800
FFFFFFF000
ENDCHAR
STARTCHAR 00CC
ENCODING 204
SWIDTH 270 0
DWIDTH 21 0
BBX 20 74 3 0
BITMAP
00FE00
00FE00
00FE00
007F00
003F00
003F80
001F80
000FC0
000FC0
0007E0
0003E0
0001F0
0000F0
000000
000000
000000
000000
000000
000FC0
000FC0
000FC0
001FC0
001FC0
001F80
001F80
001F80
003F80
003F00
003F00
003F00
003F00
007F00
007E00
007E00
007E00
00FE00
00FE00
00FC00
00FC00
00FC00
01FC00
01FC00
01F800
01F800
01F800
03F800
03F000
03F000
03F000
07F000
07F000
07E000
07E000
07E000
0FE000
0FE000
0FC000
0FC000
0FC000
1FC000
1F8000
1F8000
1F8000
3F8000
3F8000
3F0000
3F0000
3F0000
7F0000
7F0000
7E0000
7E0000
7E0000
FE0000
ENDCHAR
STARTCHAR 00CD
ENCODING 205
SWIDTH 270 0
DWIDTH 21 0
BBX 29 74 3 0
BITMAP
000003F8
000007F8
00000FF0
00000FE0
00001FC0
00003F80
00007F00
00007E00
0000FC00
0001F800
0003F000
0007E000
00078000
00000000
00000000
00000000
00000000
00000000
000FC000
000FC000
000FC000
001FC000
001FC000
001F8000
001F8000
001F8000
003F8000
003F0000
003F0000
003F0000
003F0000
007F0000
007E0000
007E0000
007E0000
00FE0000
00FE0000
00FC0000
00FC0000
00FC0000
01FC0000
01FC0000
01F80000
01F80000
01F80000
03F80000
03F00000
03F00000
03F00000
07F00000
07F00000
07E00000
07E00000
07E00000
0FE00000
0FE00000
0FC00000
0FC00000
0FC00000
1FC00000
1F800000
1F800000
1F800000
3F800000
3F800000
3F000000
3F000000
3F000000
7F000000
7F000000
7E000000
7E000000
7E000000
FE000000
ENDCHAR
STARTCHAR 00CE
ENCODING 206
SWIDTH 270 0
DWIDTH 21 0
BBX 28 73 3 0
BITMAP
0001FC00
0003FC00
0007FE00
000FFE00
001FFF00
003F9F80
007F1F80
00FE0FC0
01F807C0
03F003E0
07E001F0
078000F0
00000000
00000000
00000000
00000000
00000000
000FC000
000FC000
000FC000
001FC000
001FC000
001F8000
001F8000
001F8000
003F8000
003F0000
003F0000
003F0000
003F0000
007F0000
007E0000
007E0000
007E0000
00FE0000
00FE0000
00FC0000
00FC0000
00FC0000
01FC0000
01FC0000
01F80000
01F80000
01F80000
03F80000
03F00000
03F00000
03F00000
07F00000
07F00000
07E00000
07E00000
07E00000
0FE00000
0FE00000
0FC00000
0FC00000
0FC00000
1FC00000
1F800000
1F800000
1F800000
3F800000
3F800000
3F000000
3F000000
3F000000
7F000000
7F000000
7E000000
7E000000
7E000000
FE000000
ENDCHAR
STARTCHAR 00CF
ENCODING 207
SWIDTH 270 0
DWIDTH 21 0
BBX 28 70 3 1
BITMAP
007C03F0
00FC03F0
01FC07F0
01FC07F0
01FC07F0
00F803E0
007001C0
00000000
00000000
00000000
00000000
00000000
00000000
00000000
000FC000
000FC000
000FC000
001FC000
001FC000
001F8000
001F8000
001F8000
003F8000
003F0000
003F0000
003F0000
003F0000
007F0000
007E0000
007E0000
007E0000
00FE0000
00FE0000
00FC0000
00FC0000
00FC0000
01FC0000
01FC0000
01F80000
01F80000
01F80000
03F80000
03F00000
03F00000
03F00000
07F00000
07F00000
07E00000
07E00000
07E00000
0FE00000
0FE00000
0FC00000
0FC00000
0FC00000
1FC00000
1F800000
1F800000
1F800000
3F800000
3F800000
3F000000
3F000000
3F000000
7F000000
7F000000
7E000000
7E000000
7E000000
FE000000
ENDCHAR
STARTCHAR 00D0
ENCODING 208
SWIDTH 655 0
DWIDTH 51 0
BBX 46 56 3 0
BITMAP
000FFF800000
000FFFFF8000
000FFFFFF000
001FFFFFFC00
001FFFFFFE00
001FFFFFFF00
001F8007FF80
003F8000FFC0
003F80003FE0
003F80001FF0
003F00000FF0
003F000007F8
007F000007F8
007F000003F8
007E000003FC
007E000001FC
007E000001FC
00FE000001FC
00FE000001FC
00FC000000FC
00FC000000FC
01FC000000FC
01FC000000FC
01FC000000FC
01F8000000FC
01F8000000FC
7FFFFF8001FC
FFFFFF8001FC
FFFFFF8001FC
FFFFFF8001FC
FFFFFF8001FC
07F0000001FC
07F0000003F8
07E0000003F8
07E0000003F8
07E0000007F0
0FE0000007F0
0FE000000FF0
0FC000000FE0
0FC000001FE0
1FC000001FC0
1FC000003FC0
1FC000007F80
1F800000FF00
1F800001FF00
3F800003FE00
3F80000FFC00
3F00001FF800
3F00007FF000
3F0003FFE000
7FFFFFFF8000
7FFFFFFF0000
7FFFFFFC0000
7FFFFFF00000
7FFFFF800000
FFFFF8000000
ENDCHAR
STARTCHAR 00D1
ENCODING 209
SWIDTH 694 0
DWIDTH 54 0
BBX 52 71 3 0
BITMAP
0000001F000F00
0000007FC00F00
000000FFE01F00
000001FFF81E00
000003FFFFFE00
000003F3FFFC00
000007C0FFFC00
000007803FF800
000007801FF000
00000F0007C000
00000000000000
00000000000000
00000000000000
00000000000000
00000000000000
000FE0000003F0
000FE0000003F0
001FE0000007F0
001FF0000007E0
001FF0000007E0
001FF8000007E0
001FF8000007E0
003FF800000FE0
003FFC00000FC0
003FFC00000FC0
003EFC00000FC0
003E7E00000FC0
007E7E00001F80
007E7F00001F80
007E3F00001F80
007E3F00001F80
007C3F80003F80
00FC1F80003F00
00FC1FC0003F00
00FC0FC0003F00
00FC0FC0003F00
01FC0FE0007F00
01F807E0007E00
01F807E0007E00
01F803F0007E00
01F803F0007E00
03F803F800FE00
03F001F800FC00
03F001F800FC00
03F001FC00FC00
03F000FC01FC00
07E000FC01F800
07E0007E01F800
07E0007E01F800
07E0007F01F800
07E0003F03F800
0FC0003F03F000
0FC0003F83F000
0FC0001F83F000
0FC0001F83F000
1FC0000FC7F000
1F80000FC7E000
1F80000FE7E000
1F800007E7E000
1F800007E7E000
3F000003F7E000
3F000003F7C000
3F000003FFC000
3F000001FFC000
3F000001FFC000
7E000001FF8000
7E000000FF8000
7E000000FF8000
7E0000007F8000
FE0000007F8000
FC0000007F0000
ENDCHAR
STARTCHAR 00D2
ENCODING 210
SWIDTH 720 0
DWIDTH 56 0
BBX 48 75 6 -1
BITMAP
000003F80000
000003F80000
000001FC0000
000000FC0000
000000FE0000
0000007E0000
0000003F0000
0000003F0000
0000001F8000
0000000F8000
00000007C000
00000007C000
00000003E000
000000000000
000000000000
000000000000
000000000000
000000000000
000007FFC000
00003FFFF800
0000FFFFFE00
0003FFFFFF00
0007FFFFFF80
000FFF83FFC0
003FF8007FE0
007FE0001FF0
00FF80000FF8
00FF000007F8
01FE000003FC
03FC000001FC
03F8000001FC
07F0000001FE
0FF0000000FE
0FE0000000FE
1FE0000000FE
1FC0000000FE
1FC00000007E
3F800000007E
3F800000007F
3F800000007F
7F000000007F
7F000000007E
7F000000007E
7E000000007E
FE00000000FE
FE00000000FE
FE00000000FE
FE00000000FE
FE00000000FE
FE00000000FE
FE00000001FC
FE00000001FC
FE00000001FC
FE00000003FC
FE00000003F8
FE00000003F8
FE00000007F8
FE00000007F0
FE0000000FF0
FE0000000FE0
7F0000001FE0
7F0000003FC0
7F8000003FC0
3F8000007F80
3FC00000FF00
3FE00001FF00
1FF00007FE00
0FF8001FFC00
07FF007FF800
07FFFFFFF000
01FFFFFFC000
00FFFFFF8000
003FFFFE0000
000FFFF00000
0000FF000000
ENDCHAR
STARTCHAR 00D3
ENCODING 211
SWIDTH 720 0
DWIDTH 56 0
BBX 48 75 6 -1
BITMAP
000000001FE0
000000001FC0
000000003FC0
000000007F80
000000007F00
00000000FE00
00000001FC00
00000003F800
00000003F000
00000007E000
0000000FC000
0000001F0000
0000001E0000
000000000000
000000000000
000000000000
000000000000
000000000000
000007FFC000
00003FFFF800
0000FFFFFE00
0003FFFFFF00
0007FFFFFF80
000FFF83FFC0
003FF8007FE0
007FE0001FF0
00FF80000FF8
00FF000007F8
01FE000003FC
03FC000001FC
03F8000001FC
07F0000001FE
0FF0000000FE
0FE0000000FE
1FE0000000FE
1FC0000000FE
1FC00000007E
3F800000007E
3F800000007F
3F800000007F
7F000000007F
7F000000007E
7F000000007E
7E000000007E
FE00000000FE
FE00000000FE
FE00000000FE
FE00000000FE
FE00000000FE
FE00000000FE
FE00000001FC
FE00000001FC
FE00000001FC
FE00000003FC
FE00000003F8
FE00000003F8
FE00000007F8
FE00000007F0
FE0000000FF0
FE0000000FE0
7F0000001FE0
7F0000003FC0
7F8000003FC0
3F8000007F80
3FC00000FF00
3FE00001FF00
1FF00007FE00
0FF8001FFC00
07FF007FF800
07FFFFFFF000
01FFFFFFC000
00FFFFFF8000
003FFFFE0000
000FFFF00000
0000FF000000
ENDCHAR
STARTCHAR 00D4
ENCODING 212
SWIDTH 720 0
DWIDTH 56 0
BBX 48 74 6 -1
BITMAP
0000000FE000
0000001FF000
0000001FF000
0000003FF800
0000007FF800
000000FCFC00
000001F87E00
000003F03E00
000007E03F00
00000FC01F80
00001F000F80
00003E000780
000000000000
000000000000
000000000000
000000000000
000000000000
000007FFC000
00003FFFF800
0000FFFFFE00
0003FFFFFF00
0007FFFFFF80
000FFF83FFC0
003FF8007FE0
007FE0001FF0
00FF80000FF8
00FF000007F8
01FE000003FC
03FC000001FC
03F8000001FC
07F0000001FE
0FF0000000FE
0FE0000000FE
1FE0000000FE
1FC0000000FE
1FC00000007E
3F800000007E
3F800000007F
3F800000007F
7F000000007F
7F000000007E
7F000000007E
7E000000007E
FE00000000FE
FE00000000FE
FE00000000FE
FE00000000FE
FE00000000FE
FE00000000FE
FE00000001FC
FE00000001FC
FE00000001FC
FE00000003FC
FE00000003F8
FE00000003F8
FE00000007F8
FE00000007F0
FE0000000FF0
FE0000000FE0
7F0000001FE0
7F0000003FC0
7F8000003FC0
3F8000007F80
3FC00000FF00
3FE00001FF00
1FF00007FE00
0FF8001FFC00
07FF007FF800
07FFFFFFF000
01FFFFFFC000
00FFFFFF8000
003FFFFE0000
000FFFF00000
0000FF000000
ENDCHAR
STARTCHAR 00D5
ENCODING 213
SWIDTH 720 0
DWIDTH 56 0
BBX 48 72 6 -1
BITMAP
000000F80078
000003FE0078
000007FF00F8
00000FFFC0F0
00001FFFFFF0
00001F9FFFE0
00003E07FFE0
00003C01FFC0
00003C00FF80
000078001E00
000000000000
000000000000
000000000000
000000000000
000000000000
000007FFC000
00003FFFF800
0000FFFFFE00
0003FFFFFF00
0007FFFFFF80
000FFF83FFC0
003FF8007FE0
007FE0001FF0
00FF80000FF8
00FF000007F8
01FE000003FC
03FC000001FC
03F8000001FC
07F0000001FE
0FF0000000FE
0FE0000000FE
1FE0000000FE
1FC0000000FE
1FC00000007E
3F800000007E
3F800000007F
3F800000007F
7F000000007F
7F000000007E
7F000000007E
7E000000007E
FE00000000FE
FE00000000FE
FE00000000FE
FE00000000FE
FE00000000FE
FE00000000FE
FE00000001FC
FE00000001FC
FE00000001FC
FE00000003FC
FE00000003F8
FE00000003F8
FE00000007F8
FE00000007F0
FE0000000FF0
FE0000000FE0
7F0000001FE0
7F0000003FC0
7F8000003FC0
3F8000007F80
3FC00000FF00
3FE00001FF00
1FF00007FE00
0FF8001FFC00
07FF007FF800
07FFFFFFF000
01FFFFFFC000
00FFFFFF8000
003FFFFE0000
000FFFF00000
0000FF000000
ENDCHAR
STARTCHAR 00D6
ENCODING 214
SWIDTH 720 0
DWIDTH 56 0
BBX 48 72 6 -1
BITMAP
000000800200
000003E00F80
000007F01FC0
000007F01FC0
000007F01FC0
000007E01F80
000007E01F80
000003800E00
000000000000
000000000000
000000000000
000000000000
000000000000
000000000000
000000000000
000007FFC000
00003FFFF800
0000FFFFFE00
0003FFFFFF00
0007FFFFFF80
000FFF83FFC0
003FF8007FE0
007FE0001FF0
00FF80000FF8
00FF000007F8
01FE000003FC
03FC000001FC
03F8000001FC
07F0000001FE
0FF0000000FE
0FE0000000FE
1FE0000000FE
1FC0000000FE
1FC00000007E
3F800000007E
3F800000007F
3F800000007F
7F000000007F
7F000000007E
7F000000007E
7E000000007E
FE00000000FE
FE00000000FE
FE00000000FE
FE00000000FE
FE00000000FE
FE00000000FE
FE00000001FC
FE00000001FC
FE00000001FC
FE00000003FC
FE00000003F8
FE00000003F8
FE00000007F8
FE00000007F0
FE0000000FF0
FE0000000FE0
7F0000001FE0
7F0000003FC0
7F8000003FC0
3F8000007F80
3FC00000FF00
3FE00001FF00
1FF00007FE00
0FF8001FFC00
07FF007FF800
07FFFFFFF000
01FFFFFFC000
00FFFFFF8000
003FFFFE0000
000FFFF00000
0000FF000000
ENDCHAR
STARTCHAR 00D7
ENCODING 215
SWIDTH 565 0
DWIDTH 44 0
BBX 33 34 7 11
BITMAP
3000000600
7800000F00
FC00001F80
FE00003F80
7F00007F00
3F8000FE00
1FC001FC00
0FE003F800
07F007F000
03F80FE000
01FC1FC000
00FE3F8000
007F7F0000
003FFE0000
001FFC0000
000FF80000
0007F00000
000FF80000
001FFC0000
003FFE0000
007F7F0000
00FE3F8000
01FC1FC000
03F80FE000
07F807F000
0FF003F800
1FE001FC00
3FC000FE00
7F80007F00
FF00003F80
FE00001F80
7C00000F00
3800000600
1000000000
ENDCHAR
STARTCHAR 00D8
ENCODING 216
SWIDTH 720 0
DWIDTH 56 0
BBX 51 61 4 -3
BITMAP
00000000000180
000000000003C0
000001FFF007E0
00000FFFFE0FE0
00003FFFFF1FC0
0000FFFFFFDFC0
0001FFFFFFFF80
0003FFC0FFFF00
000FFE001FFE00
001FF80007FC00
003FE00003FC00
003FC00003FE00
007F800007FE00
00FF00000FFF00
00FE00001FFF00
01FC00003FFF00
03FC00003FBF80
03F800007F3F80
07F80000FE3F80
07F00001FC1F80
07F00003F81F80
0FE00003F81F80
0FE00007F01FC0
0FC0000FE01FC0
1FC0001FC01FC0
1FC0003F801F80
1FC0003F801F80
1F80007F001F80
3F8000FE001F80
3F8001FC003F80
3F8003F8003F80
3F8007F0003F80
3F8007F0003F80
3F800FE0003F80
3F801FC0007F00
3F003F80007F00
3F007F00007F00
3F007E00007F00
3F00FE0000FE00
3F81FC0000FE00
3F83F80001FE00
3F87F00001FC00
3F87E00003FC00
3F8FE00003F800
1FDFC00007F800
1FFF80000FF000
1FFF00000FF000
0FFE00001FE000
0FFC00003FC000
07FC00007FC000
07FC0001FF8000
07FE0003FF0000
0FFFC01FFE0000
0FFFFFFFFC0000
1FFFFFFFF00000
3FBFFFFFE00000
7F0FFFFF800000
FE03FFFC000000
7C003FC0000000
3C000000000000
08000000000000
ENDCHAR
STARTCHAR 00D9
ENCODING 217
SWIDTH 668 0
DWIDTH 52 0
BBX 48 75 6 -1
BITMAP
000007F00000
000007F00000
000007F00000
000003F80000
000001F80000
000001FC0000
000000FC0000
0000007E0000
0000003E0000
0000003F0000
0000001F0000
0000000F8000
000000078000
000000000000
000000000000
000000000000
000000000000
000000000000
00FE0000007F
00FE0000007E
00FC0000007E
00FC0000007E
01FC000000FE
01FC000000FE
01F8000000FC
01F8000000FC
01F8000001FC
03F8000001FC
03F8000001F8
03F0000001F8
03F0000001F8
03F0000003F8
07F0000003F8
07F0000003F0
07E0000003F0
07E0000003F0
0FE0000007F0
0FE0000007F0
0FC0000007E0
0FC0000007E0
0FC000000FE0
1FC000000FE0
1FC000000FC0
1F8000000FC0
1F8000000FC0
1F8000001FC0
3F8000001FC0
3F8000001F80
3F0000001F80
3F0000001F80
7F0000003F80
7F0000003F80
7F0000003F00
7E0000003F00
7E0000007F00
7E0000007F00
FE0000007E00
FE0000007E00
FE000000FE00
FE000000FE00
FE000000FC00
FE000001FC00
FE000001F800
7E000003F800
7F000007F000
7F00000FF000
7F80001FE000
3FE0007FC000
1FF801FFC000
1FFFFFFF8000
0FFFFFFE0000
07FFFFFC0000
01FFFFF00000
007FFFC00000
0003F8000000
ENDCHAR
STARTCHAR 00DA
ENCODING 218
SWIDTH 668 0
DWIDTH 52 0
BBX 48 75 6 -1
BITMAP
000000003F80
000000007F80
00000000FF00
00000000FE00
00000001FC00
00000003F800
00000003F000
00000007E000
0000000FC000
0000001F8000
0000003F0000
0000007E0000
0000007C0000
000000000000
000000000000
000000000000
000000000000
000000000000
00FE0000007F
00FE0000007E
00FC0000007E
00FC0000007E
01FC000000FE
01FC000000FE
01F8000000FC
01F8000000FC
01F8000001FC
03F8000001FC
03F8000001F8
03F0000001F8
03F0000001F8
03F0000003F8
07F0000003F8
07F0000003F0
07E0000003F0
07E0000003F0
0FE0000007F0
0FE0000007F0
0FC0000007E0
0FC0000007E0
0FC000000FE0
1FC000000FE0
1FC000000FC0
1F8000000FC0
1F8000000FC0
1F8000001FC0
3F8000001FC0
3F8000001F80
3F0000001F80
3F0000001F80
7F0000003F80
7F0000003F80
7F0000003F00
7E0000003F00
7E0000007F00
7E0000007F00
FE0000007E00
FE0000007E00
FE000000FE00
FE000000FE00
FE000000FC00
FE000001FC00
FE000001F800
7E000003F800
7F000007F000
7F00000FF000
7F80001FE000
3FE0007FC000
1FF801FFC000
1FFFFFFF8000
0FFFFFFE0000
07FFFFFC0000
01FFFFF00000
007FFFC00000
0003F8000000
ENDCHAR
STARTCHAR 00DB
ENCODING 219
SWIDTH 668 0
DWIDTH 52 0
BBX 48 74 6 -1
BITMAP
0000001FC000
0000003FC000
0000007FE000
000000FFE000
000001FFF000
000003F9F000
000007F1F800
00000FC0FC00
00001F807C00
00003F003E00
00007E001F00
0000F8000F00
000000000000
000000000000
000000000000
000000000000
000000000000
00FE0000007F
00FE0000007E
00FC0000007E
00FC0000007E
01FC000000FE
01FC000000FE
01F8000000FC
01F8000000FC
01F8000001FC
03F8000001FC
03F8000001F8
03F0000001F8
03F0000001F8
03F0000003F8
07F0000003F8
07F0000003F0
07E0000003F0
07E0000003F0
0FE0000007F0
0FE0000007F0
0FC0000007E0
0FC0000007E0
0FC000000FE0
1FC000000FE0
1FC000000FC0
1F8000000FC0
1F8000000FC0
1F8000001FC0
3F8000001FC0
3F8000001F80
3F0000001F80
3F0000001F80
7F0000003F80
7F0000003F80
7F0000003F00
7E0000003F00
7E0000007F00
7E0000007F00
FE0000007E00
FE0000007E00
FE000000FE00
FE000000FE00
FE000000FC00
FE000001FC00
FE000001F800
7E000003F800
7F000007F000
7F00000FF000
7F80001FE000
3FE0007FC000
1FF801FFC000
1FFFFFFF8000
0FFFFFFE0000
07FFFFFC0000
01FFFFF00000
007FFFC00000
0003F8000000
ENDCHAR
STARTCHAR 00DC
ENCODING 220
SWIDTH 668 0
DWIDTH 52 0
BBX 48 71 6 0
BITMAP
000007C01F00
00000FC03F00
00000FC07F00
00001FC07F00
00001FC07F00
00000F803E00
000007001C00
000000000000
000000000000
000000000000
000000000000
000000000000
000000000000
000000000000
00FE0000007F
00FE0000007E
00FC0000007E
00FC0000007E
01FC000000FE
01FC000000FE
01F8000000FC
01F8000000FC
01F8000001FC
03F8000001FC
03F8000001F8
03F0000001F8
03F0000001F8
03F0000003F8
07F0000003F8
07F0000003F0
07E0000003F0
07E0000003F0
0FE0000007F0
0FE0000007F0
0FC0000007E0
0FC0000007E0
0FC000000FE0
1FC000000FE0
1FC000000FC0
1F8000000FC0
1F8000000FC0
1F8000001FC0
3F8000001FC0
3F8000001F80
3F0000001F80
3F0000001F80
7F0000003F80
7F0000003F80
7F0000003F00
7E0000003F00
7E0000007F00
7E0000007F00
FE0000007E00
FE0000007E00
FE000000FE00
FE000000FE00
FE000000FC00
FE000001FC00
FE000001F800
7E000003F800
7F000007F000
7F00000FF000
7F80001FE000
3FE0007FC000
1FF801FFC000
1FFFFFFF8000
0FFFFFFE0000
07FFFFFC0000
01FFFFF00000
007FFFC00000
0003F8000000
ENDCHAR
STARTCHAR 00DD
ENCODING 221
SWIDTH 501 0
DWIDTH 39 0
BBX 40 74 7 0
BITMAP
0000003F80
0000003F80
0000007F00
000000FE00
000001FE00
000001FC00
000003F800
000007F000
00000FE000
00001F8000
00001F0000
00003E0000
00007C0000
0000000000
0000000000
0000000000
0000000000
0000000000
FE000000FF
FE000000FE
7E000001FC
7E000003FC
7F000003F8
3F000007F0
3F00000FE0
3F00000FE0
3F80001FC0
1F80003F80
1F80003F80
1F80007F00
1FC000FE00
0FC000FE00
0FC001FC00
0FC003F800
0FE003F800
07E007F000
07E00FE000
07E00FE000
07F01FC000
03F03F8000
03F03F0000
03F07F0000
01F8FE0000
01F8FC0000
01F9FC0000
01FBF80000
00FBF00000
00FFF00000
00FFE00000
00FFC00000
007FC00000
007F800000
007F000000
007F000000
007E000000
007E000000
007E000000
00FE000000
00FE000000
00FC000000
00FC000000
00FC000000
01FC000000
01FC000000
01F8000000
01F8000000
03F8000000
03F8000000
03F0000000
03F0000000
03F0000000
07F0000000
07F0000000
07E0000000
ENDCHAR
STARTCHAR 00DE
ENCODING 222
SWIDTH 565 0
DWIDTH 44 0
BBX 39 56 3 0
BITMAP
000FC00000
000FC00000
000FC00000
001FC00000
001FC00000
001F800000
001F800000
001F800000
003F800000
003F800000
003FFFC000
003FFFFE00
007FFFFF80
007FFFFFC0
007FFFFFF0
007FFFFFF0
007E001FF8
00FE0007FC
00FE0003FC
00FC0001FC
00FC0000FE
00FC0000FE
01FC0000FE
01F80000FE
01F80000FE
01F80000FE
03F80000FE
03F80000FE
03F00000FE
03F00000FE
03F00001FC
07F00001FC
07F00003FC
07E00003F8
07E00007F8
07E0001FF0
0FE0007FE0
0FE001FFC0
0FFFFFFF80
0FFFFFFF00
0FFFFFFC00
1FFFFFF000
1FFFFF8000
1FFFF00000
1F80000000
3F80000000
3F80000000
3F00000000
3F00000000
3F00000000
7F00000000
7F00000000
7E00000000
7E00000000
7E00000000
FE00000000
ENDCHAR
STARTCHAR 00DF
ENCODING 223
SWIDTH 565 0
DWIDTH 44 0
BBX 52 79 -10 -19
BITMAP
00000000010000
00000000FFFC00
00000003FFFF00
00000007FFFF80
0000001FFFFFC0
0000003FFFFFE0
0000007FC01FF0
0000007F0007F0
000000FE0003F0
000000FC0003F0
000001FC0003F0
000001F80003F0
000003F80003F0
000003F00003F0
000003F00007F0
000003F00007E0
000007F0000FE0
000007E0003FC0
000007E0007F80
000007E000FF00
000007E003FE00
00000FE007FC00
00000FC00FF800
00000FC01FE000
00000FC03FC000
00001FC07F8000
00001FC07F0000
00001F807E0000
00001F80FE0000
00001F80FC0000
00003F80FE0000
00003F80FE0000
00003F007F0000
00003F007F8000
00003F003FC000
00007F003FE000
00007E001FF000
00007E000FF800
00007E0007FC00
00007E0001FE00
0000FE0000FF00
0000FC00007F80
0000FC00003F80
0000FC00003F80
0001FC00001FC0
0001FC00001FC0
0001F800001FC0
0001F800001FC0
0001F800001FC0
0003F800001FC0
0003F800001F80
0003F000003F80
0003F000003F80
0003F0C0007F00
0007F0F001FF00
0007E0FF9FFE00
0007E0FFFFFC00
0007E0FFFFF800
0007E07FFFF000
000FE01FFFC000
000FC001F80000
000FC000000000
000FC000000000
001FC000000000
001FC000000000
001F8000000000
001F8000000000
003F8000000000
003F8000000000
003F0000000000
007F0000000000
00FE0000000000
01FE0000000000
FFFC0000000000
FFFC0000000000
FFF80000000000
FFF00000000000
FFC00000000000
1C000000000000
ENDCHAR
STARTCHAR 00E0
ENCODING 224
SWIDTH 552 0
DWIDTH 43 0
BBX 38 61 4 -1
BITMAP
0000FC0000
0000FE0000
0000FE0000
00007F0000
00003F0000
00003F0000
00001F8000
00000F8000
00000FC000
000007E000
000003E000
000001F000
000000F000
0000000000
0000000000
0000000000
0000000000
0000000000
0001FF803C
0007FFE07C
001FFFF07C
003FFFF8FC
007FFFF8FC
00FFC0FCF8
01FF003DF8
03FC001FF8
07F8001FF8
07F0000FF8
0FE0000FF0
0FE0000FF0
1FC00007F0
1FC00007F0
3F800007E0
3F800007E0
3F00000FE0
7F00000FE0
7F00000FE0
7E00000FC0
7E00000FC0
FE00001FC0
FE00001FC0
FE00001FC0
FC00001F80
FC00003F80
FC00003F80
FC00007F80
FC00007F00
FC0000FF00
FC0001FF00
FC0001FF00
FE0003FF00
FE0007FE00
7F000FBE00
7F001F7E00
7F807E7E00
3FFFFC7E00
3FFFF87C00
1FFFF07C00
0FFFC07C00
03FF807C00
007C000000
ENDCHAR
STARTCHAR 00E1
ENCODING 225
SWIDTH 552 0
DWIDTH 43 0
BBX 38 61 4 -1
BITMAP
0000000FF0
0000000FE0
0000001FE0
0000003FC0
0000003F80
0000007F00
000000FE00
000001FC00
000001F800
000003F000
000007E000
00000F8000
00000F0000
0000000000
0000000000
0000000000
0000000000
0000000000
0001FF803C
0007FFE07C
001FFFF07C
003FFFF8FC
007FFFF8FC
00FFC0FCF8
01FF003DF8
03FC001FF8
07F8001FF8
07F0000FF8
0FE0000FF0
0FE0000FF0
1FC00007F0
1FC00007F0
3F800007E0
3F800007E0
3F00000FE0
7F00000FE0
7F00000FE0
7E00000FC0
7E00000FC0
FE00001FC0
FE00001FC0
FE00001FC0
FC00001F80
FC00003F80
FC00003F80
FC00007F80
FC00007F00
FC0000FF00
FC0001FF00
FC0001FF00
FE0003FF00
FE0007FE00
7F000FBE00
7F001F7E00
7F807E7E00
3FFFFC7E00
3FFFF87C00
1FFFF07C00
0FFFC07C00
03FF807C00
007C000000
ENDCHAR
STARTCHAR 00E2
ENCODING 226
SWIDTH 552 0
DWIDTH 43 0
BBX 38 61 4 -1
BITMAP
000003F000
000007F800
000007F800
00000FFC00
00001FFC00
00003FFE00
00007F7E00
0000FC3F00
0001F81F00
0003F00F80
0007E00FC0
000F8007C0
001F0003E0
0000000000
0000000000
0000000000
0000000000
0000000000
0001FF803C
0007FFE07C
001FFFF07C
003FFFF8FC
007FFFF8FC
00FFC0FCF8
01FF003DF8
03FC001FF8
07F8001FF8
07F0000FF8
0FE0000FF0
0FE0000FF0
1FC00007F0
1FC00007F0
3F800007E0
3F800007E0
3F00000FE0
7F00000FE0
7F00000FE0
7E00000FC0
7E00000FC0
FE00001FC0
FE00001FC0
FE00001FC0
FC00001F80
FC00003F80
FC00003F80
FC00007F80
FC00007F00
FC0000FF00
FC0001FF00
FC0001FF00
FE0003FF00
FE0007FE00
7F000FBE00
7F001F7E00
7F807E7E00
3FFFFC7E00
3FFFF87C00
1FFFF07C00
0FFFC07C00
03FF807C00
007C000000
ENDCHAR
STARTCHAR 00E3
ENCODING 227
SWIDTH 552 0
DWIDTH 43 0
BBX 38 58 4 -1
BITMAP
00007C003C
0001FF003C
0003FFC07C
0007FFE078
000FFFFFF8
000F8FFFF0
001F03FFF0
001E00FFE0
001E007FC0
003C000E00
0000000000
0000000000
0000000000
0000000000
0000000000
0001FF803C
0007FFE07C
001FFFF07C
003FFFF8FC
007FFFF8FC
00FFC0FCF8
01FF003DF8
03FC001FF8
07F8001FF8
07F0000FF8
0FE0000FF0
0FE0000FF0
1FC00007F0
1FC00007F0
3F800007E0
3F800007E0
3F00000FE0
7F00000FE0
7F00000FE0
7E00000FC0
7E00000FC0
FE00001FC0
FE00001FC0
FE00001FC0
FC00001F80
FC00003F80
FC00003F80
FC00007F80
FC00007F00
FC0000FF00
FC0001FF00
FC0001FF00
FE0003FF00
FE0007FE00
7F000FBE00
7F001F7E00
7F807E7E00
3FFFFC7E00
3FFFF87C00
1FFFF07C00
0FFFC07C00
03FF807C00
007C000000
ENDCHAR
STARTCHAR 00E4
ENCODING 228
SWIDTH 552 0
DWIDTH 43 0
BBX 38 58 4 -1
BITMAP
0000400180
0001F007C0
0001F807E0
0003F80FE0
0003F80FE0
0003F00FC0
0001F00FC0
0000E00300
0000000000
0000000000
0000000000
0000000000
0000000000
0000000000
0000000000
0001FF803C
0007FFE07C
001FFFF07C
003FFFF8FC
007FFFF8FC
00FFC0FCF8
01FF003DF8
03FC001FF8
07F8001FF8
07F0000FF8
0FE0000FF0
0FE0000FF0
1FC00007F0
1FC00007F0
3F800007E0
3F800007E0
3F00000FE0
7F00000FE0
7F00000FE0
7E00000FC0
7E00000FC0
FE00001FC0
FE00001FC0
FE00001FC0
FC00001F80
FC00003F80
FC00003F80
FC00007F80
FC00007F00
FC0000FF00
FC0001FF00
FC0001FF00
FE0003FF00
FE0007FE00
7F000FBE00
7F001F7E00
7F807E7E00
3FFFFC7E00
3FFFF87C00
1FFFF07C00
0FFFC07C00
03FF807C00
007C000000
ENDCHAR
STARTCHAR 00E5
ENCODING 229
SWIDTH 552 0
DWIDTH 43 0
BBX 38 64 4 -1
BITMAP
00000FF000
00003FFC00
00007FFE00
00007C3E00
0000F81F00
0000F00F00
0000F00F00
0000F00700
0000F00F00
0000F00F00
0000F00F00
0000F81F00
00007FFE00
00003FFC00
00001FF800
000007C000
0000000000
0000000000
0000000000
0000000000
0000000000
0001FF803C
0007FFE07C
001FFFF07C
003FFFF8FC
007FFFF8FC
00FFC0FCF8
01FF003DF8
03FC001FF8
07F8001FF8
07F0000FF8
0FE0000FF0
0FE0000FF0
1FC00007F0
1FC00007F0
3F800007E0
3F800007E0
3F00000FE0
7F00000FE0
7F00000FE0
7E00000FC0
7E00000FC0
FE00001FC0
FE00001FC0
FE00001FC0
FC00001F80
FC00003F80
FC00003F80
FC00007F80
FC00007F00
FC0000FF00
FC0001FF00
FC0001FF00
FE0003FF00
FE0007FE00
7F000FBE00
7F001F7E00
7F807E7E00
3FFFFC7E00
3FFFF87C00
1FFFF07C00
0FFFC07C00
03FF807C00
007C000000
ENDCHAR
STARTCHAR 00E6
ENCODING 230
SWIDTH 810 0
DWIDTH 63 0
BBX 58 43 4 -1
BITMAP
0001FF00F03FF000
000FFF80F0FFFC00
001FFFC1F1FFFF00
003FFFE1E7FFFF00
007FFFF3EFFFFF80
00FF81F3FFE07F80
01FE007BFF801FC0
03FC007FFE001FC0
07F8003FFC000FC0
07F0003FF8000FC0
0FE0001FF8000FC0
0FE0001FF0000FC0
1FC0001FE0001FC0
1FC0001FE0001F80
3F80001FC0003F80
3F80001FC0007F00
3F00001FC001FF00
7F00001F800FFE00
7F00001F8FFFFC00
7E00003FFFFFF000
7E00003FFFFFE000
FE00003FFFFF0000
FE00003FFFF80000
FE00007FFF000000
FC00007F00000000
FC00007F00000000
FC0000FF00000000
FC0000FF00000000
FC0001FF00000000
FC0001FF00000000
FC0003FF00000000
FC0007FF00000000
FE0007FF80000000
FE000FFF80000000
FE001EFFC0000000
7F007EFFE0003800
7F80FCF7F800F800
3FFFF8F7FFFFF800
3FFFF1F3FFFFF800
1FFFE1F1FFFFF800
0FFF81F0FFFFF000
07FF01E03FFF8000
01F8000003F00000
ENDCHAR
STARTCHAR 00E7
ENCODING 231
SWIDTH 450 0
DWIDTH 35 0
BBX 32 61 4 -19
BITMAP
0000FFF8
0007FFFF
001FFFFF
003FFFFE
007FFFFE
00FFC03E
01FF0004
03FC0000
07F80000
0FF00000
0FE00000
1FE00000
1FC00000
3F800000
3F800000
3F000000
7F000000
7F000000
7E000000
7E000000
FE000000
FE000000
FE000000
FC000000
FC000000
FC000000
FC000000
FC000000
FC000000
FC000000
FE000000
FE000000
FE000000
7F000000
7F800000
3FC00040
3FE003C0
1FFFFFC0
0FFFFFC0
07FFFFC0
03FFFF80
00FFFE00
001FE000
003C0000
003C0000
00780000
00780000
00FE0000
00FF8000
003F8000
000FC000
0007C000
0007C000
0007C000
000FC000
001F8000
10FF8000
1FFF0000
1FFE0000
1FF80000
0F800000
ENDCHAR
STARTCHAR 00E8
ENCODING 232
SWIDTH 488 0
DWIDTH 38 0
BBX 32 61 4 -1
BITMAP
0003F000
0003F800
0003F800
0001F800
0001FC00
0000FC00
00007E00
00007E00
00003F00
00001F00
00000F80
000007C0
000003C0
00000000
00000000
00000000
00000000
00000000
0001FFE0
0007FFF8
001FFFFC
003FFFFE
007FFFFE
00FF80FF
01FE007F
03FC003F
07F8003F
07F0003F
0FE0003F
0FC0003F
1FC0003F
1F80007F
3F8000FE
3F0001FE
7F0007FC
7F003FF8
7E1FFFF0
7FFFFFE0
FFFFFF80
FFFFFE00
FFFFF000
FFF80000
FC000000
FC000000
FC000000
FC000000
FC000000
FC000000
FE000000
FE000000
FE000000
7F000000
7F800000
3FC00060
3FE003E0
1FFFFFE0
0FFFFFE0
07FFFFE0
03FFFFC0
00FFFE00
000FE000
ENDCHAR
STARTCHAR 00E9
ENCODING 233
SWIDTH 488 0
DWIDTH 38 0
BBX 34 61 4 -1
BITMAP
0000003FC0
0000003F80
0000007F80
000000FF00
000000FE00
000001FC00
000003F800
000007F000
000007E000
00000FC000
00001F8000
00003E0000
00003C0000
0000000000
0000000000
0000000000
0000000000
0000000000
0001FFE000
0007FFF800
001FFFFC00
003FFFFE00
007FFFFE00
00FF80FF00
01FE007F00
03FC003F00
07F8003F00
07F0003F00
0FE0003F00
0FC0003F00
1FC0003F00
1F80007F00
3F8000FE00
3F0001FE00
7F0007FC00
7F003FF800
7E1FFFF000
7FFFFFE000
FFFFFF8000
FFFFFE0000
FFFFF00000
FFF8000000
FC00000000
FC00000000
FC00000000
FC00000000
FC00000000
FC00000000
FE00000000
FE00000000
FE00000000
7F00000000
7F80000000
3FC0006000
3FE003E000
1FFFFFE000
0FFFFFE000
07FFFFE000
03FFFFC000
00FFFE0000
000FE00000
ENDCHAR
STARTCHAR 00EA
ENCODING 234
SWIDTH 488 0
DWIDTH 38 0
BBX 33 61 4 -1
BITMAP
00000FC000
00001FC000
00003FE000
00003FE000
00007FF000
0000FFF800
0001F9F800
0003F0FC00
0007E07C00
000FC07E00
001F803F00
003E001F00
007C000F80
0000000000
0000000000
0000000000
0000000000
0000000000
0001FFE000
0007FFF800
001FFFFC00
003FFFFE00
007FFFFE00
00FF80FF00
01FE007F00
03FC003F00
07F8003F00
07F0003F00
0FE0003F00
0FC0003F00
1FC0003F00
1F80007F00
3F8000FE00
3F0001FE00
7F0007FC00
7F003FF800
7E1FFFF000
7FFFFFE000
FFFFFF8000
FFFFFE0000
FFFFF00000
FFF8000000
FC00000000
FC00000000
FC00000000
FC00000000
FC00000000
FC00000000
FE00000000
FE00000000
FE00000000
7F00000000
7F80000000
3FC0006000
3FE003E000
1FFFFFE000
0FFFFFE000
07FFFFE000
03FFFFC000
00FFFE0000
000FE00000
ENDCHAR
STARTCHAR 00EB
ENCODING 235
SWIDTH 488 0
DWIDTH 38 0
BBX 33 58 4 -1
BITMAP
0001000400
0007C01F00
000FE03F80
000FE03F80
000FE03F80
000FC03F00
000FC03F00
0003001C00
0000000000
0000000000
0000000000
0000000000
0000000000
0000000000
0000000000
0001FFE000
0007FFF800
001FFFFC00
003FFFFE00
007FFFFE00
00FF80FF00
01FE007F00
03FC003F00
07F8003F00
07F0003F00
0FE0003F00
0FC0003F00
1FC0003F00
1F80007F00
3F8000FE00
3F0001FE00
7F0007FC00
7F003FF800
7E1FFFF000
7FFFFFE000
FFFFFF8000
FFFFFE0000
FFFFF00000
FFF8000000
FC00000000
FC00000000
FC00000000
FC00000000
FC00000000
FC00000000
FE00000000
FE00000000
FE00000000
7F00000000
7F80000000
3FC0006000
3FE003E000
1FFFFFE000
0FFFFFE000
07FFFFE000
03FFFFC000
00FFFE0000
000FE00000
ENDCHAR
STARTCHAR 00EC
ENCODING 236
SWIDTH 244 0
DWIDTH 19 0
BBX 18 60 2 0
BITMAP
07F000
07F000
03F800
01F800
01FC00
00FC00
007E00
007E00
003F00
001F00
000F80
000F80
0007C0
000000
000000
000000
000000
000000
007E00
007E00
007E00
00FE00
00FE00
00FC00
00FC00
00FC00
01FC00
01F800
01F800
01F800
03F800
03F800
03F000
03F000
03F000
07F000
07F000
07E000
07E000
07E000
0FE000
0FC000
0FC000
0FC000
1FC000
1FC000
1F8000
1F8000
1F8000
3F8000
3F8000
3F0000
3F0000
3F0000
7F0000
7F0000
7E0000
7E0000
7E0000
FE0000
ENDCHAR
STARTCHAR 00ED
ENCODING 237
SWIDTH 244 0
DWIDTH 19 0
BBX 26 60 2 0
BITMAP
00003FC0
00003F80
00007F00
0000FE00
0001FE00
0001FC00
0003F800
0007F000
000FE000
000F8000
001F0000
003E0000
007C0000
00000000
00000000
00000000
00000000
00000000
007E0000
007E0000
007E0000
00FE0000
00FE0000
00FC0000
00FC0000
00FC0000
01FC0000
01F80000
01F80000
01F80000
03F80000
03F80000
03F00000
03F00000
03F00000
07F00000
07F00000
07E00000
07E00000
07E00000
0FE00000
0FC00000
0FC00000
0FC00000
1FC00000
1FC00000
1F800000
1F800000
1F800000
3F800000
3F800000
3F000000
3F000000
3F000000
7F000000
7F000000
7E000000
7E000000
7E000000
FE000000
ENDCHAR
STARTCHAR 00EE
ENCODING 238
SWIDTH 244 0
DWIDTH 19 0
BBX 24 60 2 0
BITMAP
000FC0
001FC0
003FE0
007FE0
007FF0
00FFF0
01F9F8
03F0FC
07E07C
0FC07E
1F003F
7E001F
7C000F
000000
000000
000000
000000
000000
007E00
007E00
007E00
00FE00
00FE00
00FC00
00FC00
00FC00
01FC00
01F800
01F800
01F800
03F800
03F800
03F000
03F000
03F000
07F000
07F000
07E000
07E000
07E000
0FE000
0FC000
0FC000
0FC000
1FC000
1FC000
1F8000
1F8000
1F8000
3F8000
3F8000
3F0000
3F0000
3F0000
7F0000
7F0000
7E0000
7E0000
7E0000
FE0000
ENDCHAR
STARTCHAR 00EF
ENCODING 239
SWIDTH 244 0
DWIDTH 19 0
BBX 25 57 2 0
BITMAP
01000400
07C01F00
0FE03F80
0FE03F80
0FE03F80
0FC03F00
0FC03F00
07001C00
00000000
00000000
00000000
00000000
00000000
00000000
00000000
007E0000
007E0000
007E0000
00FE0000
00FE0000
00FC0000
00FC0000
00FC0000
01FC0000
01F80000
01F80000
01F80000
03F80000
03F80000
03F00000
03F00000
03F00000
07F00000
07F00000
07E00000
07E00000
07E00000
0FE00000
0FC00000
0FC00000
0FC00000
1FC00000
1FC00000
1F800000
1F800000
1F800000
3F800000
3F800000
3F000000
3F000000
3F000000
7F000000
7F000000
7E000000
7E000000
7E000000
FE000000
ENDCHAR
STARTCHAR 00F0
ENCODING 240
SWIDTH 565 0
DWIDTH 44 0
BBX 40 60 3 -1
BITMAP
00000C000C
00001E001E
00003F807E
00007FC1FF
00003FE7FE
00000FFFF8
000007FFE0
000003FF80
000003FE00
00000FFE00
00001FFF00
00007FFF80
0001FF1F80
0003FC1FC0
0003F80FC0
0001E007E0
00008007E0
00000003F0
00000003F0
00000003F0
00000001F0
00000001F8
00003C01F8
0007FFC1F8
001FFFF1F8
003FFFF9F8
00FFFFFCF8
01FFFFFEF8
03FE007EF8
07F8001FF8
07F0000FF8
0FE0000FF8
1FC00007F8
1FC00007F8
3F800007F8
3F800003F8
3F000003F8
7F000003F8
7F000003F0
7E000003F0
7E000007F0
7E000007F0
FE000007E0
FE000007E0
FE00000FE0
FE00000FC0
FE00000FC0
7E00001FC0
7E00003F80
7F00003F80
7F00007F00
3F8000FE00
3FC003FE00
1FE007FC00
1FFEFFF800
0FFFFFF000
07FFFFC000
03FFFF8000
00FFFE0000
0007C00000
ENDCHAR
STARTCHAR 00F1
ENCODING 241
SWIDTH 565 0
DWIDTH 44 0
BBX 41 57 2 0
BITMAP
00001F000780
00007FE00F80
0000FFF00F00
0001FFFC1F00
0001FFFFFE00
0003F1FFFE00
0003E07FFC00
0003C03FF800
0007800FF000
00078003C000
000000000000
000000000000
000000000000
000000000000
000000180000
007C03FF8000
007C0FFFE000
00FC1FFFF000
00FC3FFFF800
00FC7FFFF800
00FCFF07FC00
01FDF803FC00
01FFF001FC00
01FFC000FE00
01FF8000FE00
01FF0000FE00
03FF0000FE00
03FE0000FC00
03FC0000FC00
03FC0001FC00
03F80001FC00
07F80001FC00
07F00001FC00
07F00001F800
07F00003F800
07E00003F800
0FE00003F800
0FE00003F800
0FE00007F000
0FC00007F000
1FC00007F000
1FC00007F000
1FC00007E000
1FC0000FE000
1F80000FE000
3F80000FE000
3F80000FE000
3F80000FC000
3F80001FC000
3F00001FC000
7F00001FC000
7F00001F8000
7F00003F8000
7E00003F8000
FE00003F8000
FE00003F8000
FE00003F0000
ENDCHAR
STARTCHAR 00F2
ENCODING 242
SWIDTH 552 0
DWIDTH 43 0
BBX 36 61 4 -1
BITMAP
0003F80000
0003F80000
0001FC0000
0001FC0000
0000FE0000
00007E0000
00007F0000
00003F0000
00001F8000
00000F8000
00000FC000
000007C000
000003E000
0000000000
0000000000
0000000000
0000000000
0000000000
0000FFC000
0007FFF000
001FFFFC00
003FFFFE00
00FFFFFF00
01FFC0FF80
01FE003FC0
03FC001FC0
07F8000FE0
0FF0000FE0
0FE00007E0
1FC00007F0
1FC00007F0
3F800003F0
3F800003F0
3F000003F0
7F000003F0
7E000003F0
7E000007F0
7E000007F0
FE000007F0
FE000007F0
FC000007E0
FC000007E0
FC00000FE0
FC00000FE0
FC00000FC0
FC00000FC0
FC00001FC0
FC00001F80
FE00003F80
FE00007F00
7E00007F00
7F0000FE00
7F8001FC00
3FC003FC00
3FE00FF800
1FFFFFF000
0FFFFFE000
07FFFF8000
01FFFF0000
007FFC0000
0003000000
ENDCHAR
STARTCHAR 00F3
ENCODING 243
SWIDTH 552 0
DWIDTH 43 0
BBX 36 61 4 -1
BITMAP
0000001FC0
0000001FC0
0000003F80
0000007F00
000000FF00
000000FE00
000001FC00
000003F800
000007E000
00000FC000
00000F8000
00001F0000
00003E0000
0000000000
0000000000
0000000000
0000000000
0000000000
0000FFC000
0007FFF000
001FFFFC00
003FFFFE00
00FFFFFF00
01FFC0FF80
01FE003FC0
03FC001FC0
07F8000FE0
0FF0000FE0
0FE00007E0
1FC00007F0
1FC00007F0
3F800003F0
3F800003F0
3F000003F0
7F000003F0
7E000003F0
7E000007F0
7E000007F0
FE000007F0
FE000007F0
FC000007E0
FC000007E0
FC00000FE0
FC00000FE0
FC00000FC0
FC00000FC0
FC00001FC0
FC00001F80
FE00003F80
FE00007F00
7E00007F00
7F0000FE00
7F8001FC00
3FC003FC00
3FE00FF800
1FFFFFF000
0FFFFFE000
07FFFF8000
01FFFF0000
007FFC0000
0003000000
ENDCHAR
STARTCHAR 00F4
ENCODING 244
SWIDTH 552 0
DWIDTH 43 0
BBX 36 61 4 -1
BITMAP
000007E000
00000FE000
00001FF000
00003FF000
00007FF800
0000FFF800
0001FCFC00
0003F87C00
0007F07E00
000FE03F00
001F801F00
003F000F80
003E000780
0000000000
0000000000
0000000000
0000000000
0000000000
0000FFC000
0007FFF000
001FFFFC00
003FFFFE00
00FFFFFF00
01FFC0FF80
01FE003FC0
03FC001FC0
07F8000FE0
0FF0000FE0
0FE00007E0
1FC00007F0
1FC00007F0
3F800003F0
3F800003F0
3F000003F0
7F000003F0
7E000003F0
7E000007F0
7E000007F0
FE000007F0
FE000007F0
FC000007E0
FC000007E0
FC00000FE0
FC00000FE0
FC00000FC0
FC00000FC0
FC00001FC0
FC00001F80
FE00003F80
FE00007F00
7E00007F00
7F0000FE00
7F8001FC00
3FC003FC00
3FE00FF800
1FFFFFF000
0FFFFFE000
07FFFF8000
01FFFF0000
007FFC0000
0003000000
ENDCHAR
STARTCHAR 00F5
ENCODING 245
SWIDTH 552 0
DWIDTH 43 0
BBX 37 58 4 -1
BITMAP
0001F80078
0003FE0078
000FFF00F0
000FFFC1F0
001FFFFFF0
001F1FFFE0
003E07FFC0
003C01FF80
007C00FF00
0078001C00
0000000000
0000000000
0000000000
0000000000
0000000000
0000FFC000
0007FFF000
001FFFFC00
003FFFFE00
00FFFFFF00
01FFC0FF80
01FE003FC0
03FC001FC0
07F8000FE0
0FF0000FE0
0FE00007E0
1FC00007F0
1FC00007F0
3F800003F0
3F800003F0
3F000003F0
7F000003F0
7E000003F0
7E000007F0
7E000007F0
FE000007F0
FE000007F0
FC000007E0
FC000007E0
FC00000FE0
FC00000FE0
FC00000FC0
FC00000FC0
FC00001FC0
FC00001F80
FE00003F80
FE00007F00
7E00007F00
7F0000FE00
7F8001FC00
3FC003FC00
3FE00FF800
1FFFFFF000
0FFFFFE000
07FFFF8000
01FFFF0000
007FFC0000
0003000000
ENDCHAR
STARTCHAR 00F6
ENCODING 246
SWIDTH 552 0
DWIDTH 43 0
BBX 36 58 4 -1
BITMAP
0000800200
0003E00F80
0007F01FC0
0007F01FC0
0007F01FC0
0007E01F80
0007E01F80
0003800E00
0000000000
0000000000
0000000000
0000000000
0000000000
0000000000
0000000000
0000FFC000
0007FFF000
001FFFFC00
003FFFFE00
00FFFFFF00
01FFC0FF80
01FE003FC0
03FC001FC0
07F8000FE0
0FF0000FE0
0FE00007E0
1FC00007F0
1FC00007F0
3F800003F0
3F800003F0
3F000003F0
7F000003F0
7E000003F0
7E000007F0
7E000007F0
FE000007F0
FE000007F0
FC000007E0
FC000007E0
FC00000FE0
FC00000FE0
FC00000FC0
FC00000FC0
FC00001FC0
FC00001F80
FE00003F80
FE00007F00
7E00007F00
7F0000FE00
7F8001FC00
3FC003FC00
3FE00FF800
1FFFFFF000
0FFFFFE000
07FFFF8000
01FFFF0000
007FFC0000
0003000000
ENDCHAR
STARTCHAR 00F7
ENCODING 247
SWIDTH 565 0
DWIDTH 44 0
BBX 37 35 5 10
BITMAP
0000F80000
0001FC0000
0001FE0000
0001FE0000
0001FE0000
0001FE0000
0001FC0000
0000FC0000
0000700000
0000000000
0000000000
0000000000
0000000000
0000000000
0000000000
FFFFFFFFF8
FFFFFFFFF8
FFFFFFFFF8
FFFFFFFFF8
FFFFFFFFF8
0000000000
0000000000
0000000000
0000000000
0000000000
0000000000
0000000000
0000FC0000
0001FC0000
0001FE0000
0001FE0000
0001FE0000
0001FE0000
0001FC0000
0000F80000
ENDCHAR
STARTCHAR 00F8
ENCODING 248
SWIDTH 552 0
DWIDTH 43 0
BBX 40 47 2 -3
BITMAP
000000000C
000000001E
00003FF03F
0001FFFE7E
0007FFFFFC
000FFFFFFC
003FFFFFF8
007FF03FF0
007F800FF0
00FF000FF8
01FC001FF8
03F8001FF8
03F8003FF8
07F0007FFC
07E000FCFC
0FE001FCFC
0FC001F8FC
0FC003F0FC
1FC007E0FC
1F800FC0FC
1F801F80FC
1F803F80FC
3F003F00FC
3F007E01F8
3F00FC01F8
3F01F801F8
3F03F001F8
3F07F003F0
3F07E003F0
3F0FC003F0
3F1F8007E0
3F3F0007E0
3F7F000FE0
3FFE000FC0
1FFC001FC0
1FF8003F80
1FF0007F00
0FE000FE00
0FF803FE00
0FFFBFFC00
1FFFFFF800
3FFFFFE000
7E7FFFC000
FE1FFF0000
7C00C00000
3800000000
1000000000
ENDCHAR
STARTCHAR 00F9
ENCODING 249
SWIDTH 565 0
DWIDTH 44 0
BBX 38 61 4 -1
BITMAP
0000FE0000
0000FE0000
00007E0000
00007F0000
00003F0000
00003F8000
00001F8000
00000FC000
000007C000
000007E000
000003E000
000001F000
000000F000
0000000000
0000000000
0000000000
0000000000
0000000000
01F80000FC
03F80000FC
03F80000FC
03F00000FC
03F00001FC
07F00001F8
07F00001F8
07E00001F8
07E00001F8
07E00003F8
0FE00003F0
0FE00003F0
0FC00003F0
0FC00007F0
0FC00007E0
1FC00007E0
1FC00007E0
1F800007E0
1F80000FE0
3F80000FC0
3F80000FC0
3F00000FC0
3F00001FC0
3F00001FC0
7F00001F80
7F00003F80
7E00003F80
7E00007F80
7E00007F80
FE0000FF00
FE0000FF00
FE0001FF00
FE0003FF00
FE0007FE00
FE000FFE00
7F001F7E00
7F807E7E00
7FF7FC7E00
3FFFF87C00
1FFFF07C00
0FFFC07C00
07FF807C00
00F8000000
ENDCHAR
STARTCHAR 00FA
ENCODING 250
SWIDTH 565 0
DWIDTH 44 0
BBX 38 61 4 -1
BITMAP
00000007F0
0000000FF0
0000000FE0
0000001FC0
0000003F80
0000007F00
0000007E00
000000FC00
000001F800
000003F000
000007E000
00000FC000
00000F0000
0000000000
0000000000
0000000000
0000000000
0000000000
01F80000FC
03F80000FC
03F80000FC
03F00000FC
03F00001FC
07F00001F8
07F00001F8
07E00001F8
07E00001F8
07E00003F8
0FE00003F0
0FE00003F0
0FC00003F0
0FC00007F0
0FC00007E0
1FC00007E0
1FC00007E0
1F800007E0
1F80000FE0
3F80000FC0
3F80000FC0
3F00000FC0
3F00001FC0
3F00001FC0
7F00001F80
7F00003F80
7E00003F80
7E00007F80
7E00007F80
FE0000FF00
FE0000FF00
FE0001FF00
FE0003FF00
FE0007FE00
FE000FFE00
7F001F7E00
7F807E7E00
7FF7FC7E00
3FFFF87C00
1FFFF07C00
0FFFC07C00
07FF807C00
00F8000000
ENDCHAR
STARTCHAR 00FB
ENCODING 251
SWIDTH 565 0
DWIDTH 44 0
BBX 38 61 4 -1
BITMAP
000003F800
000003F800
000007F800
00000FFC00
00001FFC00
00003FFE00
00007F3F00
0000FE3F00
0001FC1F80
0003F00F80
0007E007C0
000FC003E0
000F0001E0
0000000000
0000000000
0000000000
0000000000
0000000000
01F80000FC
03F80000FC
03F80000FC
03F00000FC
03F00001FC
07F00001F8
07F00001F8
07E00001F8
07E00001F8
07E00003F8
0FE00003F0
0FE00003F0
0FC00003F0
0FC00007F0
0FC00007E0
1FC00007E0
1FC00007E0
1F800007E0
1F80000FE0
3F80000FC0
3F80000FC0
3F00000FC0
3F00001FC0
3F00001FC0
7F00001F80
7F00003F80
7E00003F80
7E00007F80
7E00007F80
FE0000FF00
FE0000FF00
FE0001FF00
FE0003FF00
FE0007FE00
FE000FFE00
7F001F7E00
7F807E7E00
7FF7FC7E00
3FFFF87C00
1FFFF07C00
0FFFC07C00
07FF807C00
00F8000000
ENDCHAR
STARTCHAR 00FC
ENCODING 252
SWIDTH 565 0
DWIDTH 44 0
BBX 38 58 4 -1
BITMAP
0000200080
0000F803E0
0001F807E0
0001F80FE0
0003F80FE0
0003F80FE0
0001F007C0
0000E00380
0000000000
0000000000
0000000000
0000000000
0000000000
0000000000
0000000000
01F80000FC
03F80000FC
03F80000FC
03F00000FC
03F00001FC
07F00001F8
07F00001F8
07E00001F8
07E00001F8
07E00003F8
0FE00003F0
0FE00003F0
0FC00003F0
0FC00007F0
0FC00007E0
1FC00007E0
1FC00007E0
1F800007E0
1F80000FE0
3F80000FC0
3F80000FC0
3F00000FC0
3F00001FC0
3F00001FC0
7F00001F80
7F00003F80
7E00003F80
7E00007F80
7E00007F80
FE0000FF00
FE0000FF00
FE0001FF00
FE0003FF00
FE0007FE00
FE000FFE00
7F001F7E00
7F807E7E00
7FF7FC7E00
3FFFF87C00
1FFFF07C00
0FFFC07C00
07FF807C00
00F8000000
ENDCHAR
STARTCHAR 00FD
ENCODING 253
SWIDTH 450 0
DWIDTH 35 0
BBX 47 79 -7 -19
BITMAP
000000003F80
000000007F80
000000007F00
00000000FE00
00000001FC00
00000003F800
00000003F000
00000007E000
0000000FC000
0000001F8000
0000003F0000
0000007E0000
0000007C0000
000000000000
000000000000
000000000000
000000000000
000000000000
001F800000FE
001F800001FC
001F800001F8
001FC00003F8
001FC00003F0
001FC00007F0
000FC00007E0
000FC0000FE0
000FC0001FC0
000FC0001FC0
000FC0003F80
000FE0003F80
0007E0007F00
0007E0007E00
0007E000FE00
0007E000FC00
0007E001FC00
0007E001F800
0007F003F800
0003F003F000
0003F007F000
0003F007E000
0003F00FE000
0003F01FC000
0003F01F8000
0001F03F8000
0001F83F0000
0001F87F0000
0001F87E0000
0001F8FE0000
0001F8FC0000
0001F8FC0000
0000F9F80000
0000F9F80000
0000FBF00000
0000FBE00000
0000FFE00000
0000FFC00000
00007FC00000
00007F800000
00007F800000
00007F000000
00007F000000
00007E000000
0000FE000000
0001FC000000
0001F8000000
0003F8000000
0003F0000000
0007F0000000
000FE0000000
000FE0000000
001FC0000000
003F80000000
00FF80000000
FFFF00000000
FFFE00000000
FFFC00000000
FFF800000000
FFE000000000
3E0000000000
ENDCHAR
STARTCHAR 00FE
ENCODING 254
SWIDTH 565 0
DWIDTH 44 0
BBX 43 78 -2 -19
BITMAP
00007E000000
0000FE000000
0000FE000000
0000FC000000
0000FC000000
0000FC000000
0001FC000000
0001F8000000
0001F8000000
0001F8000000
0003F8000000
0003F8000000
0003F0000000
0003F0000000
0003F0000000
0007F0000000
0007E0000000
0007E01FF000
0007E07FFC00
0007E1FFFE00
000FC3FFFF00
000FC7FFFF80
000FCFE07F80
000FDF803FC0
000FBE001FC0
001FFC000FC0
001FF8000FE0
001FF0000FE0
001FE0000FE0
003FE00007E0
003FC00007E0
003FC00007E0
003F800007E0
003F80000FE0
007F00000FE0
007F00000FE0
007E00000FE0
007E00000FE0
007E00000FC0
00FE00000FC0
00FC00001FC0
00FC00001FC0
00FC00001F80
00FC00003F80
01FC00003F80
01FC00003F00
01FC00007F00
01FC0000FF00
03FC0000FE00
03FE0001FE00
03FE0003FC00
03FF0007F800
03EF000FF800
07EFC01FF000
07E7FFFFE000
07E3FFFFC000
07E1FFFF8000
07E0FFFE0000
0FE07FF80000
0FC00F800000
0FC000000000
0FC000000000
1FC000000000
1FC000000000
1F8000000000
1F8000000000
1F8000000000
3F8000000000
3F8000000000
3F0000000000
3F0000000000
3F0000000000
7F0000000000
7E0000000000
7E0000000000
7E0000000000
7E0000000000
FE0000000000
ENDCHAR
STARTCHAR 00FF
ENCODING 255
SWIDTH 450 0
DWIDTH 35 0
BBX 47 76 -7 -19
BITMAP
000001000400
000007C01F00
00000FC03F00
00000FC03F00
00000FC03F00
00000FC03F00
00000F803E00
000007001C00
000000000000
000000000000
000000000000
000000000000
000000000000
000000000000
000000000000
001F800000FE
001F800001FC
001F800001F8
001FC00003F8
001FC00003F0
001FC00007F0
000FC00007E0
000FC0000FE0
000FC0001FC0
000FC0001FC0
000FC0003F80
000FE0003F80
0007E0007F00
0007E0007E00
0007E000FE00
0007E000FC00
0007E001FC00
0007E001F800
0007F003F800
0003F003F000
0003F007F000
0003F007E000
0003F00FE000
0003F01FC000
0003F01F8000
0001F03F8000
0001F83F0000
0001F87F0000
0001F87E0000
0001F8FE0000
0001F8FC0000
0001F8FC0000
0000F9F80000
0000F9F80000
0000FBF00000
0000FBE00000
0000FFE00000
0000FFC00000
00007FC00000
00007F800000
00007F800000
00007F000000
00007F000000
00007E000000
0000FE000000
0001FC000000
0001F8000000
0003F8000000
0003F0000000
0007F0000000
000FE0000000
000FE0000000
001FC0000000
003F80000000
00FF80000000
FFFF00000000
FFFE00000000
FFFC00000000
FFF800000000
FFE000000000
3E0000000000
ENDCHAR
STARTCHAR 0100
ENCODING 256
SWIDTH 552 0
DWIDTH 43 0
BBX 45 66 -4 0
BITMAP
0000007FFFF8
000000FFFFF8
000000FFFFF8
000000FFFFF8
000000FFFFF8
000000000000
000000000000
000000000000
000000000000
000000000000
00000003F800
00000007F800
00000007F800
0000000FF800
0000000FF800
0000001FF800
0000001FFC00
0000003FFC00
0000003FFC00
0000007EFC00
0000007EFC00
000000FCFC00
000001FCFC00
000001F87C00
000003F87E00
000003F07E00
000007F07E00
000007E07E00
00000FE07E00
00000FC07E00
00001FC07E00
00001F807E00
00003F807F00
00007F003F00
00007E003F00
0000FE003F00
0000FC003F00
0001FC003F00
0001F8003F00
0003F8003F00
0003F0003F80
0007F0003F80
000FE0001F80
000FFFFFFF80
001FFFFFFF80
001FFFFFFF80
003FFFFFFF80
003FFFFFFF80
007F00001FC0
007E00001FC0
00FE00000FC0
00FC00000FC0
01FC00000FC0
03F800000FC0
03F800000FC0
07F000000FC0
07F000000FE0
0FE000000FE0
0FE0000007E0
1FC0000007E0
1FC0000007E0
3F80000007E0
3F80000007E0
7F00000007E0
FE00000007F0
FE00000007F0
ENDCHAR
STARTCHAR 0101
ENCODING 257
SWIDTH 552 0
DWIDTH 43 0
BBX 38 53 4 -1
BITMAP
0003FFFFE0
0003FFFFC0
0007FFFFC0
0007FFFFC0
0007FFFFC0
0000000000
0000000000
0000000000
0000000000
0000000000
0001FF803C
0007FFE07C
001FFFF07C
003FFFF8FC
007FFFF8FC
00FFC0FCF8
01FF003DF8
03FC001FF8
07F8001FF8
07F0000FF8
0FE0000FF0
0FE0000FF0
1FC00007F0
1FC00007F0
3F800007E0
3F800007E0
3F00000FE0
7F00000FE0
7F00000FE0
7E00000FC0
7E00000FC0
FE00001FC0
FE00001FC0
FE00001FC0
FC00001F80
FC00003F80
FC00003F80
FC00007F80
FC00007F00
FC0000FF00
FC0001FF00
FC0001FF00
FE0003FF00
FE0007FE00
7F000FBE00
7F001F7E00
7F807E7E00
3FFFFC7E00
3FFFF87C00
1FFFF07C00
0FFFC07C00
03FF807C00
007C000000
ENDCHAR
STARTCHAR 0102
ENCODING 258
SWIDTH 552 0
DWIDTH 43 0
BBX 46 71 -4 0
BITMAP
00000078003C
00000078003C
00000078007C
0000007C00F8
0000007F8FF8
0000003FFFF0
0000003FFFE0
0000001FFFC0
0000000FFF80
00000001FC00
000000000000
000000000000
000000000000
000000000000
000000000000
00000003F800
00000007F800
00000007F800
0000000FF800
0000000FF800
0000001FF800
0000001FFC00
0000003FFC00
0000003FFC00
0000007EFC00
0000007EFC00
000000FCFC00
000001FCFC00
000001F87C00
000003F87E00
000003F07E00
000007F07E00
000007E07E00
00000FE07E00
00000FC07E00
00001FC07E00
00001F807E00
00003F807F00
00007F003F00
00007E003F00
0000FE003F00
0000FC003F00
0001FC003F00
0001F8003F00
0003F8003F00
0003F0003F80
0007F0003F80
000FE0001F80
000FFFFFFF80
001FFFFFFF80
001FFFFFFF80
003FFFFFFF80
003FFFFFFF80
007F00001FC0
007E00001FC0
00FE00000FC0
00FC00000FC0
01FC00000FC0
03F800000FC0
03F800000FC0
07F000000FC0
07F000000FE0
0FE000000FE0
0FE0000007E0
1FC0000007E0
1FC0000007E0
3F80000007E0
3F80000007E0
7F00000007E0
FE00000007F0
FE00000007F0
ENDCHAR
STARTCHAR 0103
ENCODING 259
SWIDTH 552 0
DWIDTH 43 0
BBX 38 58 4 -1
BITMAP
0003C001F0
0003C001E0
0003C003E0
0003E007C0
0003FE7FC0
0001FFFF80
0001FFFF00
0000FFFE00
00003FFC00
00000FE000
0000000000
0000000000
0000000000
0000000000
0000000000
0001FF803C
0007FFE07C
001FFFF07C
003FFFF8FC
007FFFF8FC
00FFC0FCF8
01FF003DF8
03FC001FF8
07F8001FF8
07F0000FF8
0FE0000FF0
0FE0000FF0
1FC00007F0
1FC00007F0
3F800007E0
3F800007E0
3F00000FE0
7F00000FE0
7F00000FE0
7E00000FC0
7E00000FC0
FE00001FC0
FE00001FC0
FE00001FC0
FC00001F80
FC00003F80
FC00003F80
FC00007F80
FC00007F00
FC0000FF00
FC0001FF00
FC0001FF00
FE0003FF00
FE0007FE00
7F000FBE00
7F001F7E00
7F807E7E00
3FFFFC7E00
3FFFF87C00
1FFFF07C00
0FFFC07C00
03FF807C00
007C000000
ENDCHAR
STARTCHAR 0104
ENCODING 260
SWIDTH 552 0
DWIDTH 43 0
BBX 44 73 -4 -17
BITMAP
00000003F800
00000007F800
00000007F800
0000000FF800
0000000FF800
0000001FF800
0000001FFC00
0000003FFC00
0000003FFC00
0000007EFC00
0000007EFC00
000000FCFC00
000001FCFC00
000001F87C00
000003F87E00
000003F07E00
000007F07E00
000007E07E00
00000FE07E00
00000FC07E00
00001FC07E00
00001F807E00
00003F807F00
00007F003F00
00007E003F00
0000FE003F00
0000FC003F00
0001FC003F00
0001F8003F00
0003F8003F00
0003F0003F80
0007F0003F80
000FE0001F80
000FFFFFFF80
001FFFFFFF80
001FFFFFFF80
003FFFFFFF80
003FFFFFFF80
007F00001FC0
007E00001FC0
00FE00000FC0
00FC00000FC0
01FC00000FC0
03F800000FC0
03F800000FC0
07F000000FC0
07F000000FE0
0FE000000FE0
0FE0000007E0
1FC0000007E0
1FC0000007E0
3F80000007E0
3F80000007E0
7F00000007E0
FE00000007F0
FE00000007F0
000000000780
000000001F00
000000003E00
000000007C00
00000000F800
00000001F000
00000003F000
00000003E000
00000003E000
00000007E000
00000007E000
00000007E000
00000003F100
00000003FF00
00000003FF00
00000001FF00
000000007E00
ENDCHAR
STARTCHAR 0105
ENCODING 261
SWIDTH 552 0
DWIDTH 43 0
BBX 38 59 4 -17
BITMAP
0001FF803C
0007FFE07C
001FFFF07C
003FFFF8FC
007FFFF8FC
00FFC0FCF8
01FF003DF8
03FC001FF8
07F8001FF8
07F0000FF8
0FE0000FF0
0FE0000FF0
1FC00007F0
1FC00007F0
3F800007E0
3F800007E0
3F00000FE0
7F00000FE0
7F00000FE0
7E00000FC0
7E00000FC0
FE00001FC0
FE00001FC0
FE00001FC0
FC00001F80
FC00003F80
FC00003F80
FC00007F80
FC00007F00
FC0000FF00
FC0001FF00
FC0001FF00
FE0003FF00
FE0007FE00
7F000FBE00
7F001F7E00
7F807E7E00
3FFFFC7E00
3FFFF87C00
1FFFF07C00
0FFFC07C00
03FF807C00
007C00F000
000003E000
000007C000
00000F8000
00001F0000
00003E0000
00007C0000
00007C0000
00007C0000
0000FC0000
0000FC0000
0000FC0000
00007E2000
00007FE000
00007FE000
00003FE000
00000FC000
ENDCHAR
STARTCHAR 0106
ENCODING 262
SWIDTH 578 0
DWIDTH 45 0
BBX 43 75 6 -1
BITMAP
000000001FC0
000000003FC0
000000007F80
000000007F00
00000000FE00
00000001FC00
00000003F800
00000007F000
00000007E000
0000000FC000
0000001F8000
0000003E0000
0000003C0000
000000000000
000000000000
000000000000
000000000000
000000000000
000001FFF800
00000FFFFF00
00007FFFFFE0
0000FFFFFFE0
0003FFFFFFC0
0007FFF0FFC0
001FFE000780
003FF0000180
007FE0000000
007F80000000
00FF00000000
01FE00000000
03FC00000000
03F800000000
07F800000000
0FF000000000
0FE000000000
0FE000000000
1FC000000000
1FC000000000
3F8000000000
3F8000000000
3F8000000000
7F0000000000
7F0000000000
7F0000000000
7E0000000000
FE0000000000
FE0000000000
FE0000000000
FE0000000000
FE0000000000
FE0000000000
FE0000000000
FE0000000000
FE0000000000
FE0000000000
FE0000000000
FE0000000000
FE0000000000
FE0000000000
FE0000000000
FF0000000000
7F0000000000
7F8000000000
7F8000000000
3FC000000000
3FE000000000
1FF000000000
0FFC00018000
0FFF001F8000
07FFFFFF8000
03FFFFFF8000
00FFFFFF8000
007FFFFF8000
001FFFF80000
0000FF800000
ENDCHAR
STARTCHAR 0107
ENCODING 263
SWIDTH 450 0
DWIDTH 35 0
BBX 33 61 4 -1
BITMAP
0000003F80
0000007F80
000000FF00
000000FE00
000001FC00
000003F800
000007F000
000007E000
00000FC000
00001F8000
00003F0000
00007E0000
0000780000
0000000000
0000000000
0000000000
0000000000
0000000000
0000FFF800
0007FFFF00
001FFFFF00
003FFFFE00
007FFFFE00
00FFC03E00
01FF000400
03FC000000
07F8000000
0FF0000000
0FE0000000
1FE0000000
1FC0000000
3F80000000
3F80000000
3F00000000
7F00000000
7F00000000
7E00000000
7E00000000
FE00000000
FE00000000
FE00000000
FC00000000
FC00000000
FC00000000
FC00000000
FC00000000
FC00000000
FC00000000
FE00000000
FE00000000
FE00000000
7F00000000
7F80000000
3FC0004000
3FE003C000
1FFFFFC000
0FFFFFC000
07FFFFC000
03FFFF8000
00FFFE0000
0007E00000
ENDCHAR
STARTCHAR 0108
ENCODING 264
SWIDTH 578 0
DWIDTH 45 0
BBX 43 74 6 -1
BITMAP
0000000FE000
0000001FE000
0000003FF000
0000007FF000
000000FFF800
000001FDF800
000003F8FC00
000007E07E00
00000FC03E00
00001F801F00
00003F000F80
00007C000F80
000000000000
000000000000
000000000000
000000000000
000000000000
000001FFF800
00000FFFFF00
00007FFFFFE0
0000FFFFFFE0
0003FFFFFFC0
0007FFF0FFC0
001FFE000780
003FF0000180
007FE0000000
007F80000000
00FF00000000
01FE00000000
03FC00000000
03F800000000
07F800000000
0FF000000000
0FE000000000
0FE000000000
1FC000000000
1FC000000000
3F8000000000
3F8000000000
3F8000000000
7F0000000000
7F0000000000
7F0000000000
7E0000000000
FE0000000000
FE0000000000
FE0000000000
FE0000000000
FE0000000000
FE0000000000
FE0000000000
FE0000000000
FE0000000000
FE0000000000
FE0000000000
FE0000000000
FE0000000000
FE0000000000
FE0000000000
FF0000000000
7F0000000000
7F8000000000
7F8000000000
3FC000000000
3FE000000000
1FF000000000
0FFC00018000
0FFF001F8000
07FFFFFF8000
03FFFFFF8000
00FFFFFF8000
007FFFFF8000
001FFFF80000
0000FF800000
ENDCHAR
STARTCHAR 0109
ENCODING 265
SWIDTH 450 0
DWIDTH 35 0
BBX 32 61 4 -1
BITMAP
00001FC0
00001FC0
00003FC0
00007FE0
0000FFE0
0001FFF0
0003F9F8
0007F1F8
000FC0FC
001F807C
003F003E
007E001F
0078000F
00000000
00000000
00000000
00000000
00000000
0000FFF8
0007FFFF
001FFFFF
003FFFFE
007FFFFE
00FFC03E
01FF0004
03FC0000
07F80000
0FF00000
0FE00000
1FE00000
1FC00000
3F800000
3F800000
3F000000
7F000000
7F000000
7E000000
7E000000
FE000000
FE000000
FE000000
FC000000
FC000000
FC000000
FC000000
FC000000
FC000000
FC000000
FE000000
FE000000
FE000000
7F000000
7F800000
3FC00040
3FE003C0
1FFFFFC0
0FFFFFC0
07FFFFC0
03FFFF80
00FFFE00
0007E000
ENDCHAR
STARTCHAR 010A
ENCODING 266
SWIDTH 578 0
DWIDTH 45 0
BBX 43 72 6 -1
BITMAP
000000078000
0000000FC000
0000001FE000
0000001FE000
0000001FE000
0000001FC000
0000001FC000
0000000F8000
000000000000
000000000000
000000000000
000000000000
000000000000
000000000000
000000000000
000001FFF800
00000FFFFF00
00007FFFFFE0
0000FFFFFFE0
0003FFFFFFC0
0007FFF0FFC0
001FFE000780
003FF0000180
007FE0000000
007F80000000
00FF00000000
01FE00000000
03FC00000000
03F800000000
07F800000000
0FF000000000
0FE000000000
0FE000000000
1FC000000000
1FC000000000
3F8000000000
3F8000000000
3F8000000000
7F0000000000
7F0000000000
7F0000000000
7E0000000000
FE0000000000
FE0000000000
FE0000000000
FE0000000000
FE0000000000
FE0000000000
FE0000000000
FE0000000000
FE0000000000
FE0000000000
FE0000000000
FE0000000000
FE0000000000
FE0000000000
FE0000000000
FF0000000000
7F0000000000
7F8000000000
7F8000000000
3FC000000000
3FE000000000
1FF000000000
0FFC00018000
0FFF001F8000
07FFFFFF8000
03FFFFFF8000
00FFFFFF8000
007FFFFF8000
001FFFF80000
0000FF800000
ENDCHAR
STARTCHAR 010B
ENCODING 267
SWIDTH 450 0
DWIDTH 35 0
BBX 32 58 4 -1
BITMAP
00000F80
00001F80
00003FC0
00003FC0
00003FC0
00003F80
00003F80
00001E00
00000000
00000000
00000000
00000000
00000000
00000000
00000000
0000FFF8
0007FFFF
001FFFFF
003FFFFE
007FFFFE
00FFC03E
01FF0004
03FC0000
07F80000
0FF00000
0FE00000
1FE00000
1FC00000
3F800000
3F800000
3F000000
7F000000
7F000000
7E000000
7E000000
FE000000
FE000000
FE000000
FC000000
FC000000
FC000000
FC000000
FC000000
FC000000
FC000000
FE000000
FE000000
FE000000
7F000000
7F800000
3FC00040
3FE003C0
1FFFFFC0
0FFFFFC0
07FFFFC0
03FFFF80
00FFFE00
0007E000
ENDCHAR
STARTCHAR 010C
ENCODING 268
SWIDTH 578 0
DWIDTH 45 0
BBX 43 74 6 -1
BITMAP
00000F8003E0
000007C007C0
000007E01F80
000003F03F00
000001F07E00
000001F8FC00
000000FFF800
000000FFF000
0000007FE000
0000007FC000
0000003FC000
0000003F8000
000000000000
000000000000
000000000000
000000000000
000000000000
000001FFF800
00000FFFFF00
00007FFFFFE0
0000FFFFFFE0
0003FFFFFFC0
0007FFF0FFC0
001FFE000780
003FF0000180
007FE0000000
007F80000000
00FF00000000
01FE00000000
03FC00000000
03F800000000
07F800000000
0FF000000000
0FE000000000
0FE000000000
1FC000000000
1FC000000000
3F8000000000
3F8000000000
3F8000000000
7F0000000000
7F0000000000
7F0000000000
7E0000000000
FE0000000000
FE0000000000
FE0000000000
FE0000000000
FE0000000000
FE0000000000
FE0000000000
FE0000000000
FE0000000000
FE0000000000
FE0000000000
FE0000000000
FE0000000000
FE0000000000
FE0000000000
FF0000000000
7F0000000000
7F8000000000
7F8000000000
3FC000000000
3FE000000000
1FF000000000
0FFC00018000
0FFF001F8000
07FFFFFF8000
03FFFFFF8000
00FFFFFF8000
007FFFFF8000
001FFFF80000
0000FF800000
ENDCHAR
STARTCHAR 010D
ENCODING 269
SWIDTH 450 0
DWIDTH 35 0
BBX 35 61 4 -1
BITMAP
001E0001E0
001F0007E0
000F800FC0
0007C03F80
0007E07F00
0003F0FC00
0001F1F800
0001FBF800
0000FFE000
0000FFE000
00007FC000
00007F8000
00003F0000
0000000000
0000000000
0000000000
0000000000
0000000000
0000FFF800
0007FFFF00
001FFFFF00
003FFFFE00
007FFFFE00
00FFC03E00
01FF000400
03FC000000
07F8000000
0FF0000000
0FE0000000
1FE0000000
1FC0000000
3F80000000
3F80000000
3F00000000
7F00000000
7F00000000
7E00000000
7E00000000
FE00000000
FE00000000
FE00000000
FC00000000
FC00000000
FC00000000
FC00000000
FC00000000
FC00000000
FC00000000
FE00000000
FE00000000
FE00000000
7F00000000
7F80000000
3FC0004000
3FE003C000
1FFFFFC000
0FFFFFC000
07FFFFC000
03FFFF8000
00FFFE0000
0007E00000
ENDCHAR
STARTCHAR 010E
ENCODING 270
SWIDTH 655 0
DWIDTH 51 0
BBX 46 73 3 0
BITMAP
000003E000F8
000003F003F0
000001F007E0
000000F80FC0
000000FC3F80
0000007E7F00
0000007EFE00
0000003FFC00
0000001FF800
0000001FF000
0000000FE000
0000000FE000
000000000000
000000000000
000000000000
000000000000
000000000000
000FFF800000
000FFFFF8000
000FFFFFF000
001FFFFFFC00
001FFFFFFE00
001FFFFFFF00
001F8007FF80
001F8000FFC0
003F80003FE0
003F80001FF0
003F00000FF0
003F000007F8
007F000007F8
007F000003F8
007E000003FC
007E000001FC
007E000001FC
00FE000001FC
00FE000001FC
00FC000000FC
00FC000000FC
00FC000000FC
01FC000000FC
01FC000000FC
01F8000000FC
01F8000000FC
03F8000001FC
03F8000001FC
03F8000001FC
03F0000001FC
03F0000001FC
07F0000001FC
07F0000003F8
07E0000003F8
07E0000003F8
07E0000007F0
0FE0000007F0
0FE000000FF0
0FC000000FE0
0FC000001FE0
0FC000001FC0
1FC000003FC0
1FC000007F80
1F800000FF00
1F800001FF00
3F800003FE00
3F80000FFC00
3F00001FF800
3F00007FF000
3F0003FFE000
7FFFFFFF8000
7FFFFFFF0000
7FFFFFFC0000
7FFFFFF00000
7FFFFF800000
FFFFF8000000
ENDCHAR
STARTCHAR 010F
ENCODING 271
SWIDTH 604 0
DWIDTH 47 0
BBX 55 60 4 -1
BITMAP
000000000FC07E
000000000FC0FE
000000001FC0FC
000000001FC1F8
000000001F81F8
000000001F83F0
000000001F83E0
000000003F87E0
000000003F07C0
000000003F0F80
000000003F0F00
000000003F1F00
000000007F0000
000000007E0000
000000007E0000
000000007E0000
00000000FE0000
0001FF80FE0000
0007FFE0FC0000
001FFFF0FC0000
003FFFF8FC0000
007FFFF8FC0000
00FFC0FCF80000
01FE003FF80000
03FC001FF80000
07F8000FF80000
07F0000FF80000
0FE0000FF00000
1FE00007F00000
1FC00007F00000
1FC00007F00000
3F800007F00000
3F800007E00000
7F000007E00000
7F000007E00000
7F00000FE00000
7E00000FE00000
FE00000FC00000
FE00000FC00000
FE00001FC00000
FE00001FC00000
FC00001F800000
FC00003F800000
FC00003F800000
FC00007F800000
FC00007F800000
FC0000FF000000
FC0000FF000000
FC0001FF000000
FE0003FF000000
FE0007FF000000
FE000FFE000000
7F001F7E000000
7F807E7E000000
3FFFFC7E000000
3FFFF87C000000
1FFFF07C000000
0FFFC07C000000
03FF807C000000
007C0000000000
ENDCHAR
STARTCHAR 0110
ENCODING 272
SWIDTH 655 0
DWIDTH 51 0
BBX 46 56 3 0
BITMAP
000FFF800000
000FFFFF8000
000FFFFFF000
001FFFFFFC00
001FFFFFFE00
001FFFFFFF00
001F8007FF80
003F8000FFC0
003F80003FE0
003F80001FF0
003F00000FF0
003F000007F8
007F000007F8
007F000003F8
007E000003FC
007E000001FC
007E000001FC
00FE000001FC
00FE000001FC
00FC000000FC
00FC000000FC
01FC000000FC
01FC000000FC
01FC000000FC
01F8000000FC
01F8000000FC
7FFFFF8001FC
FFFFFF8001FC
FFFFFF8001FC
FFFFFF8001FC
FFFFFF8001FC
07F0000001FC
07F0000003F8
07E0000003F8
07E0000003F8
07E0000007F0
0FE0000007F0
0FE000000FF0
0FC000000FE0
0FC000001FE0
1FC000001FC0
1FC000003FC0
1FC000007F80
1F800000FF00
1F800001FF00
3F800003FE00
3F80000FFC00
3F00001FF800
3F00007FF000
3F0003FFE000
7FFFFFFF8000
7FFFFFFF0000
7FFFFFFC0000
7FFFFFF00000
7FFFFF800000
FFFFF8000000
ENDCHAR
STARTCHAR 0111
ENCODING 273
SWIDTH 565 0
DWIDTH 44 0
BBX 46 60 4 -1
BITMAP
000000000FC0
000000000FC0
000000001FC0
000000001FC0
000000001F80
000000001F80
000000001F80
00000FFFFFFC
00000FFFFFFC
00000FFFFFFC
00001FFFFFFC
00001FFFFFFC
000000007F00
000000007E00
000000007E00
000000007E00
00000000FE00
0001FF80FE00
000FFFE0FC00
001FFFF0FC00
007FFFF8FC00
00FFFFFCFC00
01FF80FCF800
01FE003FF800
03FC001FF800
07F8000FF800
0FF0000FF800
0FE0000FF000
1FE00007F000
1FC00007F000
3FC00007F000
3F800007F000
3F800007E000
7F000007E000
7F000007E000
7F00000FE000
7E00000FE000
FE00000FC000
FE00000FC000
FE00001FC000
FE00001FC000
FC00001F8000
FC00003F8000
FC00003F8000
FC00007F8000
FC00007F8000
FC0000FF0000
FC0000FF0000
FC0001FF0000
FE0003FF0000
FE0007FF0000
FF000FFE0000
7F001F7E0000
7F807E7E0000
3FFFFC7E0000
3FFFF87E0000
1FFFF07C0000
0FFFE07C0000
03FF807C0000
007C00000000
ENDCHAR
STARTCHAR 0112
ENCODING 274
SWIDTH 514 0
DWIDTH 40 0
BBX 40 66 3 0
BITMAP
00007FFFFC
00007FFFFC
00007FFFFC
00007FFFF8
0000FFFFF8
0000000000
0000000000
0000000000
0000000000
0000000000
000FFFFFFF
000FFFFFFF
000FFFFFFF
001FFFFFFF
001FFFFFFE
001FFFFFFE
001F800000
001F800000
003F800000
003F800000
003F000000
003F000000
007F000000
007F000000
007E000000
007E000000
007E000000
00FE000000
00FE000000
00FC000000
00FC000000
00FC000000
01FC000000
01FC000000
01FFFFFFC0
01FFFFFF80
03FFFFFF80
03FFFFFF80
03FFFFFF80
03FFFFFF80
03F0000000
07F0000000
07F0000000
07E0000000
07E0000000
07E0000000
0FE0000000
0FE0000000
0FC0000000
0FC0000000
0FC0000000
1FC0000000
1FC0000000
1F80000000
1F80000000
3F80000000
3F80000000
3F00000000
3F00000000
3F00000000
7FFFFFFC00
7FFFFFF800
7FFFFFF800
7FFFFFF800
7FFFFFF800
FFFFFFF000
ENDCHAR
STARTCHAR 0113
ENCODING 275
SWIDTH 488 0
DWIDTH 38 0
BBX 32 53 4 -1
BITMAP
000FFFFF
001FFFFF
001FFFFF
001FFFFF
001FFFFF
00000000
00000000
00000000
00000000
00000000
0001FFE0
0007FFF8
001FFFFC
003FFFFE
007FFFFE
00FF80FF
01FE007F
03FC003F
07F8003F
07F0003F
0FE0003F
0FC0003F
1FC0003F
1F80007F
3F8000FE
3F0001FE
7F0007FC
7F003FF8
7E1FFFF0
7FFFFFE0
FFFFFF80
FFFFFE00
FFFFF000
FFF80000
FC000000
FC000000
FC000000
FC000000
FC000000
FC000000
FE000000
FE000000
FE000000
7F000000
7F800000
3FC00060
3FE003E0
1FFFFFE0
0FFFFFE0
07FFFFE0
03FFFFC0
00FFFE00
000FE000
ENDCHAR
STARTCHAR 0114
ENCODING 276
SWIDTH 514 0
DWIDTH 40 0
BBX 40 71 3 0
BITMAP
000078001E
000078003E
00007C003C
00003E007C
00003F87F8
00003FFFF8
00001FFFF0
00000FFFE0
000007FF80
000001FC00
0000000000
0000000000
0000000000
0000000000
0000000000
000FFFFFFF
000FFFFFFF
000FFFFFFF
001FFFFFFF
001FFFFFFE
001FFFFFFE
001F800000
001F800000
003F800000
003F800000
003F000000
003F000000
007F000000
007F000000
007E000000
007E000000
007E000000
00FE000000
00FE000000
00FC000000
00FC000000
00FC000000
01FC000000
01FC000000
01FFFFFFC0
01FFFFFF80
03FFFFFF80
03FFFFFF80
03FFFFFF80
03FFFFFF80
03F0000000
07F0000000
07F0000000
07E0000000
07E0000000
07E0000000
0FE0000000
0FE0000000
0FC0000000
0FC0000000
0FC0000000
1FC0000000
1FC0000000
1F80000000
1F80000000
3F80000000
3F80000000
3F00000000
3F00000000
3F00000000
7FFFFFFC00
7FFFFFF800
7FFFFFF800
7FFFFFF800
7FFFFFF800
FFFFFFF000
ENDCHAR
STARTCHAR 0115
ENCODING 277
SWIDTH 488 0
DWIDTH 38 0
BBX 34 58 4 -1
BITMAP
000F0007C0
000F000780
000F800F80
000F801F00
000FF9FF00
0007FFFE00
0007FFFC00
0003FFF800
0000FFF000
00003F8000
0000000000
0000000000
0000000000
0000000000
0000000000
0001FFE000
0007FFF800
001FFFFC00
003FFFFE00
007FFFFE00
00FF80FF00
01FE007F00
03FC003F00
07F8003F00
07F0003F00
0FE0003F00
0FC0003F00
1FC0003F00
1F80007F00
3F8000FE00
3F0001FE00
7F0007FC00
7F003FF800
7E1FFFF000
7FFFFFE000
FFFFFF8000
FFFFFE0000
FFFFF00000
FFF8000000
FC00000000
FC00000000
FC00000000
FC00000000
FC00000000
FC00000000
FE00000000
FE00000000
FE00000000
7F00000000
7F80000000
3FC0006000
3FE003E000
1FFFFFE000
0FFFFFE000
07FFFFE000
03FFFFC000
00FFFE0000
000FE00000
ENDCHAR
STARTCHAR 0116
ENCODING 278
SWIDTH 514 0
DWIDTH 40 0
BBX 40 71 3 0
BITMAP
0000003E00
0000007E00
0000007F00
000000FF00
000000FF00
000000FE00
0000007E00
0000007C00
0000000000
0000000000
0000000000
0000000000
0000000000
0000000000
0000000000
000FFFFFFF
000FFFFFFF
000FFFFFFF
001FFFFFFF
001FFFFFFE
001FFFFFFE
001F800000
001F800000
003F800000
003F800000
003F000000
003F000000
007F000000
007F000000
007E000000
007E000000
007E000000
00FE000000
00FE000000
00FC000000
00FC000000
00FC000000
01FC000000
01FC000000
01FFFFFFC0
01FFFFFF80
03FFFFFF80
03FFFFFF80
03FFFFFF80
03FFFFFF80
03F0000000
07F0000000
07F0000000
07E0000000
07E0000000
07E0000000
0FE0000000
0FE0000000
0FC0000000
0FC0000000
0FC0000000
1FC0000000
1FC0000000
1F80000000
1F80000000
3F80000000
3F80000000
3F00000000
3F00000000
3F00000000
7FFFFFFC00
7FFFFFF800
7FFFFFF800
7FFFFFF800
7FFFFFF800
FFFFFFF000
ENDCHAR
STARTCHAR 0117
ENCODING 279
SWIDTH 488 0
DWIDTH 38 0
BBX 32 58 4 -1
BITMAP
00000780
00000FC0
00001FC0
00001FC0
00001FC0
00001FC0
00001F80
00000F00
00000000
00000000
00000000
00000000
00000000
00000000
00000000
0001FFE0
0007FFF8
001FFFFC
003FFFFE
007FFFFE
00FF80FF
01FE007F
03FC003F
07F8003F
07F0003F
0FE0003F
0FC0003F
1FC0003F
1F80007F
3F8000FE
3F0001FE
7F0007FC
7F003FF8
7E1FFFF0
7FFFFFE0
FFFFFF80
FFFFFE00
FFFFF000
FFF80000
FC000000
FC000000
FC000000
FC000000
FC000000
FC000000
FE000000
FE000000
FE000000
7F000000
7F800000
3FC00060
3FE003E0
1FFFFFE0
0FFFFFE0
07FFFFE0
03FFFFC0
00FFFE00
000FE000
ENDCHAR
STARTCHAR 0118
ENCODING 280
SWIDTH 514 0
DWIDTH 40 0
BBX 40 73 3 -17
BITMAP
000FFFFFFF
000FFFFFFF
000FFFFFFF
001FFFFFFF
001FFFFFFE
001FFFFFFE
001F800000
001F800000
003F800000
003F800000
003F000000
003F000000
007F000000
007F000000
007E000000
007E000000
007E000000
00FE000000
00FE000000
00FC000000
00FC000000
00FC000000
01FC000000
01FC000000
01FFFFFFC0
01FFFFFF80
03FFFFFF80
03FFFFFF80
03FFFFFF80
03FFFFFF80
03F0000000
07F0000000
07F0000000
07E0000000
07E0000000
07E0000000
0FE0000000
0FE0000000
0FC0000000
0FC0000000
0FC0000000
1FC0000000
1FC0000000
1F80000000
1F80000000
3F80000000
3F80000000
3F00000000
3F00000000
3F00000000
7FFFFFFC00
7FFFFFF800
7FFFFFF800
7FFFFFF800
7FFFFFF800
FFFFFFF000
000007C000
00001F0000
00003E0000
00007C0000
0000F80000
0001F00000
0001F00000
0003E00000
0003E00000
0003E00000
0003E00000
0003E00000
0003F98000
0003FF8000
0001FF8000
0000FF8000
00003F0000
ENDCHAR
STARTCHAR 0119
ENCODING 281
SWIDTH 488 0
DWIDTH 38 0
BBX 32 59 4 -17
BITMAP
0001FFC0
0007FFF0
001FFFFC
003FFFFE
007FFFFE
00FF80FF
01FE007F
03FC003F
07F8003F
07F0003F
0FE0003F
1FC0003F
1FC0003F
1F80007F
3F8000FE
3F0001FE
7F0007FC
7F003FF8
7E1FFFF0
7FFFFFE0
FFFFFF80
FFFFFE00
FFFFE000
FFF80000
FC000000
FC000000
FC000000
FC000000
FC000000
FC000000
FE000000
FE000000
FE000000
7F000000
7F000000
3F800060
3FE003E0
1FFFFFE0
0FFFFFE0
07FFFFE0
03FFFFC0
00FFFF00
000FFE00
00007C00
0000F800
0001F000
0003E000
0007C000
000F8000
000F8000
001F8000
001F8000
001F8000
001F8000
001FEC00
000FFC00
000FFC00
0007FC00
0000F800
ENDCHAR
STARTCHAR 011A
ENCODING 282
SWIDTH 514 0
DWIDTH 40 0
BBX 41 73 3 0
BITMAP
00007C001F80
00003E003F00
00001F00FE00
00001F81F800
00000F83F000
00000FC7E000
000007EFC000
000003FF8000
000003FF0000
000001FF0000
000001FE0000
000001FC0000
000000000000
000000000000
000000000000
000000000000
000000000000
000FFFFFFF00
000FFFFFFF00
000FFFFFFF00
001FFFFFFF00
001FFFFFFE00
001FFFFFFE00
001F80000000
001F80000000
003F80000000
003F80000000
003F00000000
003F00000000
007F00000000
007F00000000
007E00000000
007E00000000
007E00000000
00FE00000000
00FE00000000
00FC00000000
00FC00000000
00FC00000000
01FC00000000
01FC00000000
01FFFFFFC000
01FFFFFF8000
03FFFFFF8000
03FFFFFF8000
03FFFFFF8000
03FFFFFF8000
03F000000000
07F000000000
07F000000000
07E000000000
07E000000000
07E000000000
0FE000000000
0FE000000000
0FC000000000
0FC000000000
0FC000000000
1FC000000000
1FC000000000
1F8000000000
1F8000000000
3F8000000000
3F8000000000
3F0000000000
3F0000000000
3F0000000000
7FFFFFFC0000
7FFFFFF80000
7FFFFFF80000
7FFFFFF80000
7FFFFFF80000
FFFFFFF00000
ENDCHAR
STARTCHAR 011B
ENCODING 283
SWIDTH 488 0
DWIDTH 38 0
BBX 35 61 4 -1
BITMAP
000F0001E0
000F8003E0
0007C00FC0
0007E01F80
0003E03F00
0003F0FE00
0001F9FC00
0000FFF800
0000FFF000
00007FE000
00007FC000
00003F8000
00003F8000
0000000000
0000000000
0000000000
0000000000
0000000000
0001FFE000
0007FFF800
001FFFFC00
003FFFFE00
007FFFFE00
00FF80FF00
01FE007F00
03FC003F00
07F8003F00
07F0003F00
0FE0003F00
0FC0003F00
1FC0003F00
1F80007F00
3F8000FE00
3F0001FE00
7F0007FC00
7F003FF800
7E1FFFF000
7FFFFFE000
FFFFFF8000
FFFFFE0000
FFFFF00000
FFF8000000
FC00000000
FC00000000
FC00000000
FC00000000
FC00000000
FC00000000
FE00000000
FE00000000
FE00000000
7F00000000
7F80000000
3FC0006000
3FE003E000
1FFFFFE000
0FFFFFE000
07FFFFE000
03FFFFC000
00FFFE0000
000FE00000
ENDCHAR
STARTCHAR 011C
ENCODING 284
SWIDTH 668 0
DWIDTH 52 0
BBX 45 74 6 -1
BITMAP
00000007F000
0000000FF800
0000001FF800
0000001FFC00
0000003FFC00
0000007E7E00
000000FC3E00
000001F83F00
000003F01F80
000007C00F80
00001F8007C0
00001F0003C0
000000000000
000000000000
000000000000
000000000000
000000000000
000001FFFC00
00000FFFFFC0
00007FFFFFF8
0000FFFFFFF8
0003FFFFFFF8
0007FFE0FFF8
001FFE0007F0
003FF8000070
007FE0000000
00FF80000000
00FF00000000
01FE00000000
03FC00000000
03F800000000
07F800000000
0FF000000000
0FE000000000
1FE000000000
1FC000000000
1FC000000000
3F8000000000
3F8000000000
3F0000000000
7F0000000000
7F0000000000
7F0000000000
7E0000000000
FE00007FFFE0
FE00007FFFC0
FE0000FFFFC0
FE0000FFFFC0
FE0000FFFFC0
FE0000FFFFC0
FE0000001F80
FE0000001F80
FE0000003F80
FE0000003F80
FE0000003F00
FE0000003F00
FE0000003F00
FE0000007F00
FE0000007F00
FF0000007E00
7F0000007E00
7F800000FE00
7F800000FE00
3FC00000FC00
3FE00000FC00
1FF00000FC00
0FFC0001FC00
07FF000FFC00
07FFFFFFF800
01FFFFFFF800
00FFFFFFF800
003FFFFFE000
000FFFFE0000
00007FC00000
ENDCHAR
STARTCHAR 011D
ENCODING 285
SWIDTH 514 0
DWIDTH 40 0
BBX 47 79 -4 -19
BITMAP
0000000FE000
0000000FE000
0000001FE000
0000003FF000
0000007FF000
000000FFF800
000001FCFC00
000003F8FC00
000007E07E00
00000FC03E00
00001F801F00
00003F000F80
00003C000780
000000000000
000000000000
000000000000
000000000000
000000000000
000003FFFFFE
00001FFFFFFE
00003FFFFFFC
0000FFFFFFFC
0001FF07FFF0
0003FC01FC00
0003F000FC00
0007E0007E00
0007E0007E00
000FC0003E00
000FC0003E00
001F80003E00
001F80003E00
001F80007E00
001F80007E00
001F80007E00
001F80007E00
001F8000FC00
001F8000FC00
001F8001F800
000FC003F800
000FE007F000
0007F81FE000
0003FFFFC000
0001FFFF8000
0000FFFE0000
0003FFF00000
0007C0000000
001F80000000
003F00000000
003E00000000
007E00000000
007E00000000
007E00000000
007F80000000
007FFF000000
003FFFF80000
001FFFFF0000
001FFFFFC000
00FFFFFFE000
03FC0FFFF000
07F0001FF000
0FC00007F800
1F800003F800
3F000001F800
7E000001F800
7E000001F800
7C000001F800
7C000001F800
FC000001F800
FC000003F000
7C000003F000
7E000007F000
7F00001FE000
7F80003FC000
3FE003FF8000
1FFFFFFF0000
0FFFFFFE0000
03FFFFF80000
00FFFFC00000
000FF0000000
ENDCHAR
STARTCHAR 011E
ENCODING 286
SWIDTH 668 0
DWIDTH 52 0
BBX 45 72 6 -1
BITMAP
0000038001E0
000003C001E0
000003C003E0
000003E007C0
000003FC7FC0
000003FFFF80
000001FFFF00
000000FFFE00
0000007FFC00
0000000FE000
000000000000
000000000000
000000000000
000000000000
000000000000
000001FFFC00
00000FFFFFC0
00007FFFFFF8
0000FFFFFFF8
0003FFFFFFF8
0007FFE0FFF8
001FFE0007F0
003FF8000070
007FE0000000
00FF80000000
00FF00000000
01FE00000000
03FC00000000
03F800000000
07F800000000
0FF000000000
0FE000000000
1FE000000000
1FC000000000
1FC000000000
3F8000000000
3F8000000000
3F0000000000
7F0000000000
7F0000000000
7F0000000000
7E0000000000
FE00007FFFE0
FE00007FFFC0
FE0000FFFFC0
FE0000FFFFC0
FE0000FFFFC0
FE0000FFFFC0
FE0000001F80
FE0000001F80
FE0000003F80
FE0000003F80
FE0000003F00
FE0000003F00
FE0000003F00
FE0000007F00
FE0000007F00
FF0000007E00
7F0000007E00
7F800000FE00
7F800000FE00
3FC00000FC00
3FE00000FC00
1FF00000FC00
0FFC0001FC00
07FF000FFC00
07FFFFFFF800
01FFFFFFF800
00FFFFFFF800
003FFFFFE000
000FFFFE0000
00007FC00000
ENDCHAR
STARTCHAR 011F
ENCODING 287
SWIDTH 514 0
DWIDTH 40 0
BBX 47 76 -4 -19
BITMAP
00003C000F00
00003C001F00
00003E003E00
00003F007E00
00001FE7FC00
00001FFFFC00
00000FFFF800
000007FFF000
000003FFC000
000000FE0000
000000000000
000000000000
000000000000
000000000000
000000000000
000003FFFFFE
00001FFFFFFE
00003FFFFFFC
0000FFFFFFFC
0001FF07FFF0
0003FC01FC00
0003F000FC00
0007E0007E00
0007E0007E00
000FC0003E00
000FC0003E00
001F80003E00
001F80003E00
001F80007E00
001F80007E00
001F80007E00
001F80007E00
001F8000FC00
001F8000FC00
001F8001F800
000FC003F800
000FE007F000
0007F81FE000
0003FFFFC000
0001FFFF8000
0000FFFE0000
0003FFF00000
0007C0000000
001F80000000
003F00000000
003E00000000
007E00000000
007E00000000
007E00000000
007F80000000
007FFF000000
003FFFF80000
001FFFFF0000
001FFFFFC000
00FFFFFFE000
03FC0FFFF000
07F0001FF000
0FC00007F800
1F800003F800
3F000001F800
7E000001F800
7E000001F800
7C000001F800
7C000001F800
FC000001F800
FC000003F000
7C000003F000
7E000007F000
7F00001FE000
7F80003FC000
3FE003FF8000
1FFFFFFF0000
0FFFFFFE0000
03FFFFF80000
00FFFFC00000
000FF0000000
ENDCHAR
STARTCHAR 0120
ENCODING 288
SWIDTH 668 0
DWIDTH 52 0
BBX 45 72 6 -1
BITMAP
00000001E000
00000007F000
00000007F000
0000000FF000
0000000FF000
0000000FF000
00000007E000
00000003C000
000000000000
000000000000
000000000000
000000000000
000000000000
000000000000
000000000000
000001FFFC00
00000FFFFFC0
00007FFFFFF8
0000FFFFFFF8
0003FFFFFFF8
0007FFE0FFF8
001FFE0007F0
003FF8000070
007FE0000000
00FF80000000
00FF00000000
01FE00000000
03FC00000000
03F800000000
07F800000000
0FF000000000
0FE000000000
1FE000000000
1FC000000000
1FC000000000
3F8000000000
3F8000000000
3F0000000000
7F0000000000
7F0000000000
7F0000000000
7E0000000000
FE00007FFFE0
FE00007FFFC0
FE0000FFFFC0
FE0000FFFFC0
FE0000FFFFC0
FE0000FFFFC0
FE0000001F80
FE0000001F80
FE0000003F80
FE0000003F80
FE0000003F00
FE0000003F00
FE0000003F00
FE0000007F00
FE0000007F00
FF0000007E00
7F0000007E00
7F800000FE00
7F800000FE00
3FC00000FC00
3FE00000FC00
1FF00000FC00
0FFC0001FC00
07FF000FFC00
07FFFFFFF800
01FFFFFFF800
00FFFFFFF800
003FFFFFE000
000FFFFE0000
00007FC00000
ENDCHAR
STARTCHAR 0121
ENCODING 289
SWIDTH 514 0
DWIDTH 40 0
BBX 47 76 -4 -19
BITMAP
0000001F0000
0000003F8000
0000003F8000
0000007F8000
0000007F8000
0000007F8000
0000003F0000
0000001E0000
000000000000
000000000000
000000000000
000000000000
000000000000
000000000000
000000000000
000003FFFFFE
00001FFFFFFE
00003FFFFFFC
0000FFFFFFFC
0001FF07FFF0
0003FC01FC00
0003F000FC00
0007E0007E00
0007E0007E00
000FC0003E00
000FC0003E00
001F80003E00
001F80003E00
001F80007E00
001F80007E00
001F80007E00
001F80007E00
001F8000FC00
001F8000FC00
001F8001F800
000FC003F800
000FE007F000
0007F81FE000
0003FFFFC000
0001FFFF8000
0000FFFE0000
0003FFF00000
0007C0000000
001F80000000
003F00000000
003E00000000
007E00000000
007E00000000
007E00000000
007F80000000
007FFF000000
003FFFF80000
001FFFFF0000
001FFFFFC000
00FFFFFFE000
03FC0FFFF000
07F0001FF000
0FC00007F800
1F800003F800
3F000001F800
7E000001F800
7E000001F800
7C000001F800
7C000001F800
FC000001F800
FC000003F000
7C000003F000
7E000007F000
7F00001FE000
7F80003FC000
3FE003FF8000
1FFFFFFF0000
0FFFFFFE0000
03FFFFF80000
00FFFFC00000
000FF0000000
ENDCHAR
STARTCHAR 0122
ENCODING 290
SWIDTH 668 0
DWIDTH 52 0
BBX 45 73 6 -17
BITMAP
000001FFFC00
00000FFFFFC0
00007FFFFFF8
0000FFFFFFF8
0003FFFFFFF8
0007FFE0FFF8
001FFE0007F0
003FF8000070
007FE0000000
00FF80000000
00FF00000000
01FE00000000
03FC00000000
03F800000000
07F800000000
0FF000000000
0FE000000000
1FE000000000
1FC000000000
1FC000000000
3F8000000000
3F8000000000
3F0000000000
7F0000000000
7F0000000000
7F0000000000
7E0000000000
FE00007FFFE0
FE00007FFFC0
FE0000FFFFC0
FE0000FFFFC0
FE0000FFFFC0
FE0000FFFFC0
FE0000001F80
FE0000001F80
FE0000003F80
FE0000003F80
FE0000003F00
FE0000003F00
FE0000003F00
FE0000007F00
FE0000007F00
FF0000007E00
7F0000007E00
7F800000FE00
7F800000FE00
3FC00000FC00
3FE00000FC00
1FF00000FC00
0FFC0001FC00
07FF000FFC00
07FFFFFFF800
01FFFFFFF800
00FFFFFFF800
003FFFFFE000
000FFFFE0000
00007FC00000
000000000000
000000000000
000000000000
000000000000
00007E000000
0000FE000000
0000FC000000
0000FC000000
0001F8000000
0001F0000000
0003F0000000
0003E0000000
0007C0000000
000F80000000
000F80000000
001F00000000
ENDCHAR
STARTCHAR 0123
ENCODING 291
SWIDTH 514 0
DWIDTH 40 0
BBX 47 79 -4 -19
BITMAP
000000007000
00000000F000
00000001F000
00000003E000
00000007C000
00000007C000
0000000F8000
0000001F8000
0000001F0000
0000003F0000
0000007F0000
0000007E0000
0000007E0000
000000000000
000000000000
000000000000
000000000000
000000000000
000003FFFFFE
00001FFFFFFE
00003FFFFFFC
0000FFFFFFFC
0001FF07FFF0
0003FC01FC00
0003F000FC00
0007E0007E00
0007E0007E00
000FC0003E00
000FC0003E00
001F80003E00
001F80003E00
001F80007E00
001F80007E00
001F80007E00
001F80007E00
001F8000FC00
001F8000FC00
001F8001F800
000FC003F800
000FE007F000
0007F81FE000
0003FFFFC000
0001FFFF8000
0000FFFE0000
0003FFF00000
0007C0000000
001F80000000
003F00000000
003E00000000
007E00000000
007E00000000
007E00000000
007F80000000
007FFF000000
003FFFF80000
001FFFFF0000
001FFFFFC000
00FFFFFFE000
03FC0FFFF000
07F0001FF000
0FC00007F800
1F800003F800
3F000001F800
7E000001F800
7E000001F800
7C000001F800
7C000001F800
FC000001F800
FC000003F000
7C000003F000
7E000007F000
7F00001FE000
7F80003FC000
3FE003FF8000
1FFFFFFF0000
0FFFFFFE0000
03FFFFF80000
00FFFFC00000
000FF0000000
ENDCHAR
STARTCHAR 0124
ENCODING 292
SWIDTH 668 0
DWIDTH 52 0
BBX 50 73 3 0
BITMAP
00000003F80000
00000007F80000
0000000FFC0000
0000001FFC0000
0000003FFE0000
0000007F7E0000
000000FE3F0000
000001F81F8000
000003F00F8000
000007E007C000
00000FC003E000
00001F0003E000
00000000000000
00000000000000
00000000000000
00000000000000
00000000000000
000FE000000FC0
000FC000000FC0
000FC000001FC0
001FC000001FC0
001FC000001F80
001F8000001F80
001F8000001F80
001F8000003F80
003F8000003F00
003F8000003F00
003F0000003F00
003F0000007F00
003F0000007F00
007F0000007E00
007F0000007E00
007E0000007E00
007E000000FE00
00FE000000FE00
00FE000000FC00
00FC000000FC00
00FC000000FC00
00FC000001FC00
01FC000001F800
01FC000001F800
01FFFFFFFFF800
01FFFFFFFFF800
01FFFFFFFFF800
03FFFFFFFFF000
03FFFFFFFFF000
03FFFFFFFFF000
03F0000007F000
03F0000007F000
07F0000007E000
07E0000007E000
07E0000007E000
07E000000FE000
0FE000000FE000
0FE000000FC000
0FC000000FC000
0FC000000FC000
0FC000001FC000
1FC000001F8000
1FC000001F8000
1F8000001F8000
1F8000003F8000
1F8000003F8000
3F8000003F0000
3F8000003F0000
3F0000003F0000
3F0000007F0000
7F0000007F0000
7F0000007E0000
7E0000007E0000
7E0000007E0000
7E000000FE0000
FE000000FE0000
ENDCHAR
STARTCHAR 0125
ENCODING 293
SWIDTH 565 0
DWIDTH 44 0
BBX 38 77 2 0
BITMAP
0001FC0000
0003FC0000
0003FE0000
0007FE0000
000FFF0000
001FFF0000
003F1F8000
007E0FC000
00FC07C000
01F803E000
03E003F000
07C001F000
0000000000
0000000000
0000000000
0000000000
0000000000
0000000000
0007E00000
000FE00000
000FE00000
000FC00000
000FC00000
000FC00000
001FC00000
001F800000
001F800000
001F800000
003F800000
003F800000
003F000000
003F000000
003F000000
007F000000
007E000000
007E01FF80
007E07FFE0
007E1FFFF0
00FC3FFFF8
00FC7FFFF8
00FCFE07FC
00FDF801FC
00FBE001FC
01FFC000FC
01FF8000FC
01FF0000FC
01FE0000FC
03FE0000FC
03FC0000FC
03FC0000FC
03F80001FC
03F80001FC
07F00001F8
07F00001F8
07E00001F8
07E00003F8
07E00003F8
0FE00003F0
0FC00003F0
0FC00007F0
0FC00007F0
1FC00007E0
1FC00007E0
1F800007E0
1F80000FE0
1F80000FE0
3F80000FC0
3F80000FC0
3F00000FC0
3F00001FC0
3F00001FC0
7F00001F80
7F00001F80
7E00001F80
7E00003F80
7E00003F00
FE00003F00
ENDCHAR
STARTCHAR 0126
ENCODING 294
SWIDTH 668 0
DWIDTH 52 0
BBX 55 56 3 0
BITMAP
000FC000000FC0
000FC000000FC0
000FC000001FC0
001FC000001FC0
001FC000001F80
001F8000001F80
001F8000003F80
003F8000003F80
003F8000003F80
003F0000003F00
1FFFFFFFFFFFFE
1FFFFFFFFFFFFE
3FFFFFFFFFFFFE
3FFFFFFFFFFFFE
3FFFFFFFFFFFFC
007E0000007E00
007E000000FE00
00FE000000FE00
00FE000000FC00
00FC000000FC00
00FC000001FC00
00FC000001FC00
01FC000001FC00
01FC000001F800
01FFFFFFFFF800
01FFFFFFFFF800
03FFFFFFFFF800
03FFFFFFFFF000
03FFFFFFFFF000
03FFFFFFFFF000
03F0000007F000
07F0000007F000
07F0000007E000
07E0000007E000
07E0000007E000
07E000000FE000
0FE000000FE000
0FE000000FC000
0FC000000FC000
0FC000001FC000
0FC000001FC000
1FC000001FC000
1FC000001F8000
1F8000001F8000
1F8000003F8000
3F8000003F8000
3F8000003F0000
3F0000003F0000
3F0000003F0000
3F0000007F0000
7F0000007F0000
7F0000007E0000
7E0000007E0000
7E0000007E0000
7E000000FE0000
FE000000FE0000
ENDCHAR
STARTCHAR 0127
ENCODING 295
SWIDTH 565 0
DWIDTH 44 0
BBX 38 59 2 0
BITMAP
0007E00000
000FE00000
000FC00000
000FC00000
000FC00000
000FC00000
001FC00000
07FFFFFE00
07FFFFFE00
07FFFFFE00
07FFFFFC00
07FFFFFC00
003F000000
003F000000
003F000000
003F000000
007E000000
007E007E00
007E03FFC0
007E0FFFE0
00FC1FFFF0
00FC7FFFF8
00FCFFDFF8
00FDFC03FC
00F9F001FC
01FBE001FC
01FF8000FC
01FF8000FC
01FF0000FC
01FE0000FC
03FC0000FC
03FC0000FC
03F80001FC
03F80001FC
07F00001F8
07F00001F8
07F00001F8
07E00003F8
07E00003F8
0FE00003F0
0FC00003F0
0FC00003F0
0FC00007F0
0FC00007E0
1FC00007E0
1F800007E0
1F80000FE0
1F80000FE0
3F80000FC0
3F80000FC0
3F00000FC0
3F00001FC0
3F00001FC0
7F00001F80
7E00001F80
7E00001F80
7E00003F80
7E00003F00
FE00003F00
ENDCHAR
STARTCHAR 0128
ENCODING 296
SWIDTH 270 0
DWIDTH 21 0
BBX 31 71 3 0
BITMAP
003E001E
00FF801E
01FFE01E
03FFF03C
07FFFFFC
07E7FFF8
0F81FFF8
0F007FF0
0F003FE0
0F000780
00000000
00000000
00000000
00000000
00000000
000FC000
000FC000
000FC000
001FC000
001FC000
001F8000
001F8000
001F8000
003F8000
003F0000
003F0000
003F0000
003F0000
007F0000
007E0000
007E0000
007E0000
00FE0000
00FE0000
00FC0000
00FC0000
00FC0000
01FC0000
01FC0000
01F80000
01F80000
01F80000
03F80000
03F00000
03F00000
03F00000
07F00000
07F00000
07E00000
07E00000
07E00000
0FE00000
0FE00000
0FC00000
0FC00000
0FC00000
1FC00000
1F800000
1F800000
1F800000
3F800000
3F800000
3F000000
3F000000
3F000000
7F000000
7F000000
7E000000
7E000000
7E000000
FE000000
ENDCHAR
STARTCHAR 0129
ENCODING 297
SWIDTH 244 0
DWIDTH 19 0
BBX 28 57 2 0
BITMAP
01F000F0
07FC00F0
0FFE01F0
1FFF83E0
3FFFFFE0
3E3FFFC0
7C0FFF80
7803FF80
7801FE00
F0003800
00000000
00000000
00000000
00000000
00000000
007E0000
007E0000
007E0000
00FE0000
00FE0000
00FC0000
00FC0000
00FC0000
01FC0000
01F80000
01F80000
01F80000
03F80000
03F80000
03F00000
03F00000
03F00000
07F00000
07F00000
07E00000
07E00000
07E00000
0FE00000
0FC00000
0FC00000
0FC00000
1FC00000
1FC00000
1F800000
1F800000
1F800000
3F800000
3F800000
3F000000
3F000000
3F000000
7F000000
7F000000
7E000000
7E000000
7E000000
FE000000
ENDCHAR
STARTCHAR 012A
ENCODING 298
SWIDTH 270 0
DWIDTH 21 0
BBX 28 66 3 0
BITMAP
01FFFFF0
01FFFFE0
01FFFFE0
03FFFFE0
03FFFFE0
00000000
00000000
00000000
00000000
00000000
000FC000
000FC000
000FC000
001FC000
001FC000
001F8000
001F8000
001F8000
003F8000
003F0000
003F0000
003F0000
003F0000
007F0000
007E0000
007E0000
007E0000
00FE0000
00FE0000
00FC0000
00FC0000
00FC0000
01FC0000
01FC0000
01F80000
01F80000
01F80000
03F80000
03F00000
03F00000
03F00000
07F00000
07F00000
07E00000
07E00000
07E00000
0FE00000
0FE00000
0FC00000
0FC00000
0FC00000
1FC00000
1F800000
1F800000
1F800000
3F800000
3F800000
3F000000
3F000000
3F000000
7F000000
7F000000
7E000000
7E000000
7E000000
FE000000
ENDCHAR
STARTCHAR 012B
ENCODING 299
SWIDTH 244 0
DWIDTH 19 0
BBX 24 52 2 0
BITMAP
0FFFFF
1FFFFF
1FFFFF
1FFFFF
1FFFFF
000000
000000
000000
000000
000000
007E00
007E00
007E00
00FE00
00FE00
00FC00
00FC00
00FC00
01FC00
01F800
01F800
01F800
03F800
03F800
03F000
03F000
03F000
07F000
07F000
07E000
07E000
07E000
0FE000
0FC000
0FC000
0FC000
1FC000
1FC000
1F8000
1F8000
1F8000
3F8000
3F8000
3F0000
3F0000
3F0000
7F0000
7F0000
7E0000
7E0000
7E0000
FE0000
ENDCHAR
STARTCHAR 012C
ENCODING 300
SWIDTH 270 0
DWIDTH 21 0
BBX 28 71 3 0
BITMAP
01E000F0
01E000F0
01E001F0
01F003E0
01FE3FE0
00FFFFC0
00FFFF80
007FFF00
003FFE00
0007F000
00000000
00000000
00000000
00000000
00000000
000FC000
000FC000
000FC000
001FC000
001FC000
001F8000
001F8000
001F8000
003F8000
003F0000
003F0000
003F0000
003F0000
007F0000
007E0000
007E0000
007E0000
00FE0000
00FE0000
00FC0000
00FC0000
00FC0000
01FC0000
01FC0000
01F80000
01F80000
01F80000
03F80000
03F00000
03F00000
03F00000
07F00000
07F00000
07E00000
07E00000
07E00000
0FE00000
0FE00000
0FC00000
0FC00000
0FC00000
1FC00000
1F800000
1F800000
1F800000
3F800000
3F800000
3F000000
3F000000
3F000000
7F000000
7F000000
7E000000
7E000000
7E000000
FE000000
ENDCHAR
STARTCHAR 012D
ENCODING 301
SWIDTH 244 0
DWIDTH 19 0
BBX 25 57 2 0
BITMAP
0F000780
0F000780
0F000F80
0F801F00
0FF9FF00
07FFFE00
07FFFC00
03FFF800
00FFF000
003F8000
00000000
00000000
00000000
00000000
00000000
007E0000
007E0000
007E0000
00FE0000
00FE0000
00FC0000
00FC0000
00FC0000
01FC0000
01F80000
01F80000
01F80000
03F80000
03F80000
03F00000
03F00000
03F00000
07F00000
07F00000
07E00000
07E00000
07E00000
0FE00000
0FC00000
0FC00000
0FC00000
1FC00000
1FC00000
1F800000
1F800000
1F800000
3F800000
3F800000
3F000000
3F000000
3F000000
7F000000
7F000000
7E000000
7E000000
7E000000
FE000000
ENDCHAR
STARTCHAR 012E
ENCODING 302
SWIDTH 270 0
DWIDTH 21 0
BBX 24 73 -3 -17
BITMAP
00003F
00003F
00003F
00007F
00007F
00007E
00007E
00007E
0000FE
0000FC
0000FC
0000FC
0000FC
0001FC
0001F8
0001F8
0001F8
0003F8
0003F8
0003F0
0003F0
0003F0
0007F0
0007F0
0007E0
0007E0
0007E0
000FE0
000FC0
000FC0
000FC0
001FC0
001FC0
001F80
001F80
001F80
003F80
003F80
003F00
003F00
003F00
007F00
007E00
007E00
007E00
00FE00
00FE00
00FC00
00FC00
00FC00
01FC00
01FC00
01F800
01F800
01F800
03F800
01F000
03E000
0FC000
1F0000
3E0000
3E0000
7C0000
FC0000
F80000
F80000
F80000
F80000
FE2000
FFE000
7FE000
3FE000
0FC000
ENDCHAR
STARTCHAR 012F
ENCODING 303
SWIDTH 244 0
DWIDTH 19 0
BBX 24 74 -3 -17
BITMAP
00003C
00007E
0000FE
0000FF
0000FE
0000FE
0000FC
000078
000000
000000
000000
000000
000000
000000
000000
0003F0
0003F0
0003F0
0007F0
0007F0
0007E0
0007E0
0007E0
000FE0
000FC0
000FC0
000FC0
001FC0
001FC0
001F80
001F80
001F80
003F80
003F80
003F00
003F00
003F00
007F00
007E00
007E00
007E00
00FE00
00FE00
00FC00
00FC00
00FC00
01FC00
01FC00
01F800
01F800
01F800
03F800
03F800
03F000
03F000
03F000
07F000
01F000
03E000
0FC000
1F0000
3E0000
3E0000
7C0000
FC0000
F80000
F80000
F80000
F80000
FE2000
FFE000
7FE000
3FE000
0FC000
ENDCHAR
STARTCHAR 0130
ENCODING 304
SWIDTH 270 0
DWIDTH 21 0
BBX 22 71 3 0
BITMAP
0000F0
0001F8
0003FC
0003FC
0003F8
0003F8
0003F8
0001E0
000000
000000
000000
000000
000000
000000
000000
000FC0
000FC0
000FC0
001FC0
001FC0
001F80
001F80
001F80
003F80
003F00
003F00
003F00
003F00
007F00
007E00
007E00
007E00
00FE00
00FE00
00FC00
00FC00
00FC00
01FC00
01FC00
01F800
01F800
01F800
03F800
03F000
03F000
03F000
07F000
07F000
07E000
07E000
07E000
0FE000
0FE000
0FC000
0FC000
0FC000
1FC000
1F8000
1F8000
1F8000
3F8000
3F8000
3F0000
3F0000
3F0000
7F0000
7F0000
7E0000
7E0000
7E0000
FE0000
ENDCHAR
STARTCHAR 0131
ENCODING 305
SWIDTH 244 0
DWIDTH 19 0
BBX 15 42 2 0
BITMAP
007E
007E
007E
00FE
00FE
00FC
00FC
00FC
01FC
01F8
01F8
01F8
03F8
03F8
03F0
03F0
03F0
07F0
07F0
07E0
07E0
07E0
0FE0
0FC0
0FC0
0FC0
1FC0
1FC0
1F80
1F80
1F80
3F80
3F80
3F00
3F00
3F00
7F00
7F00
7E00
7E00
7E00
FE00
ENDCHAR
STARTCHAR 0132
ENCODING 306
SWIDTH 527 0
DWIDTH 41 0
BBX 40 71 3 -15
BITMAP
000FC0007F
000FC0007E
000FC0007E
001FC0007E
001FC000FE
001F8000FE
001F8000FC
001F8000FC
003F8001FC
003F0001FC
003F0001FC
003F0001F8
003F0001F8
007F0003F8
007E0003F8
007E0003F0
007E0003F0
00FE0003F0
00FE0007F0
00FC0007F0
00FC0007E0
00FC0007E0
01FC000FE0
01FC000FE0
01F8000FE0
01F8000FC0
01F8000FC0
03F8001FC0
03F0001FC0
03F0001F80
03F0001F80
07F0001F80
07F0003F80
07E0003F80
07E0003F00
07E0003F00
0FE0003F00
0FE0007F00
0FC0007F00
0FC0007E00
0FC0007E00
1FC000FE00
1F8000FE00
1F8000FE00
1F8000FC00
3F8000FC00
3F8001FC00
3F0001FC00
3F0001F800
3F0001F800
7F0001F800
7F0003F800
7E0003F800
7E0003F000
7E0003F000
FE0007F000
000007F000
000007F000
000007E000
00000FE000
00000FE000
00001FC000
00003FC000
00007F8000
0201FF8000
03FFFF0000
03FFFE0000
03FFFC0000
03FFF00000
03FFC00000
0038000000
ENDCHAR
STARTCHAR 0133
ENCODING 307
SWIDTH 501 0
DWIDTH 39 0
BBX 38 76 2 -19
BITMAP
00078000F8
000FC001FC
001FC001FC
001FE003FC
001FC003FC
001FC003FC
001F8001F8
000F0000F0
0000000000
0000000000
0000000000
0000000000
0000000000
0000000000
0000000000
007E0007E0
007E000FE0
007E000FC0
00FE000FC0
00FE000FC0
00FC001FC0
00FC001FC0
00FC001F80
01FC001F80
01F8001F80
01F8003F80
01F8003F00
03F8003F00
03F8003F00
03F0003F00
03F0007F00
03F0007E00
07F0007E00
07F0007E00
07E0007E00
07E000FE00
07E000FC00
0FE000FC00
0FC000FC00
0FC001FC00
0FC001FC00
1FC001F800
1FC001F800
1F8001F800
1F8003F800
1F8003F000
3F8003F000
3F8003F000
3F0003F000
3F0007F000
3F0007E000
7F0007E000
7F0007E000
7E0007E000
7E000FE000
7E000FC000
FE000FC000
00000FC000
00001FC000
00001F8000
00001F8000
00001F8000
00001F8000
00003F8000
00003F0000
00003F0000
00007F0000
00007E0000
0000FE0000
0001FE0000
00FFFC0000
00FFF80000
00FFF80000
00FFF00000
00FFC00000
003C000000
ENDCHAR
STARTCHAR 0134
ENCODING 308
SWIDTH 257 0
DWIDTH 20 0
BBX 42 88 -12 -15
BITMAP
00000007F000
0000000FF000
0000001FF800
0000003FF800
0000007FFC00
000000FE7E00
000001FC7E00
000003F83F00
000007E01F80
00000FC00F80
00001F8007C0
00001F0003C0
000000000000
000000000000
000000000000
000000000000
000000000000
0000001FC000
0000001F8000
0000001F8000
0000003F8000
0000003F8000
0000003F0000
0000003F0000
0000003F0000
0000007F0000
0000007F0000
0000007E0000
0000007E0000
0000007E0000
000000FE0000
000000FE0000
000000FC0000
000000FC0000
000001FC0000
000001FC0000
000001FC0000
000001F80000
000001F80000
000003F80000
000003F80000
000003F00000
000003F00000
000003F00000
000007F00000
000007F00000
000007E00000
000007E00000
00000FE00000
00000FE00000
00000FE00000
00000FC00000
00000FC00000
00001FC00000
00001FC00000
00001F800000
00001F800000
00001F800000
00003F800000
00003F800000
00003F000000
00003F000000
00003F000000
00007F000000
00007F000000
00007E000000
00007E000000
0000FE000000
0000FE000000
0000FE000000
0000FC000000
0000FC000000
0001FC000000
0001FC000000
0001F8000000
0001F8000000
0003F8000000
0003F0000000
0007F0000000
000FF0000000
001FE0000000
807FC0000000
FFFFC0000000
FFFF80000000
FFFF00000000
FFFC00000000
FFF000000000
0E0000000000
ENDCHAR
STARTCHAR 0135
ENCODING 309
SWIDTH 244 0
DWIDTH 19 0
BBX 37 79 -10 -19
BITMAP
000000FC00
000001FC00
000003FE00
000003FE00
000007FF00
00000FFF80
00001F9F80
00003F0FC0
00007E07C0
0000FC07E0
0001F803F0
0003E001F0
0007C000F8
0000000000
0000000000
0000000000
0000000000
0000000000
000007E000
000007E000
000007E000
00000FE000
00000FC000
00000FC000
00000FC000
00000FC000
00001FC000
00001F8000
00001F8000
00001F8000
00003F8000
00003F8000
00003F0000
00003F0000
00003F0000
00007F0000
00007E0000
00007E0000
00007E0000
00007E0000
0000FE0000
0000FC0000
0000FC0000
0000FC0000
0000FC0000
0001FC0000
0001F80000
0001F80000
0001F80000
0003F80000
0003F80000
0003F00000
0003F00000
0003F00000
0007F00000
0007E00000
0007E00000
0007E00000
0007E00000
000FE00000
000FC00000
000FC00000
000FC00000
000FC00000
001FC00000
001F800000
001F800000
001F800000
003F800000
003F000000
007F000000
007F000000
00FE000000
FFFE000000
FFFC000000
FFF8000000
FFF0000000
FFC0000000
1E00000000
ENDCHAR
STARTCHAR 0136
ENCODING 310
SWIDTH 552 0
DWIDTH 43 0
BBX 47 73 3 -17
BITMAP
000FC00000FE
000FC00001FC
000FC00003F8
001FC00007F0
001FC0000FE0
001F80001FC0
001F80003F80
001F80007F00
003F8000FE00
003F0001FC00
003F0003F800
003F0007F000
007F000FE000
007F001FC000
007E003F8000
007E007F0000
007E00FE0000
00FE01FC0000
00FE03F80000
00FC07F00000
00FC0FE00000
00FC1FC00000
01FC3F800000
01FC7F000000
01F8FE000000
01F9FE000000
03FBFF000000
03FFFF000000
03FFFF800000
03FFBF800000
03FF1F800000
07FC1FC00000
07F80FC00000
07F00FE00000
07E007E00000
07E007F00000
0FE007F00000
0FE003F00000
0FC003F80000
0FC001F80000
0FC001FC0000
1FC001FC0000
1F8000FE0000
1F8000FE0000
1F80007E0000
3F80007F0000
3F80007F0000
3F00003F8000
3F00003F8000
3F00001FC000
7F00001FC000
7F00000FC000
7E00000FE000
7E00000FE000
7E000007F000
FE000007F000
000000000000
000000000000
000000000000
000000000000
000000000000
0007F0000000
0007E0000000
000FE0000000
000FC0000000
000F80000000
001F80000000
001F00000000
003E00000000
007E00000000
007C00000000
00F800000000
00F000000000
ENDCHAR
STARTCHAR 0137
ENCODING 311
SWIDTH 488 0
DWIDTH 38 0
BBX 38 76 2 -17
BITMAP
0007E00000
000FE00000
000FE00000
000FC00000
000FC00000
001FC00000
001FC00000
001F800000
001F800000
001F800000
003F800000
003F800000
003F000000
003F000000
003F000000
007F000000
007F000000
007E0001FC
007E0003F8
00FE0007F0
00FE000FE0
00FC001FC0
00FC003F80
00FC007F00
01FC00FE00
01FC01FC00
01F803F800
01F807F000
01F80FE000
03F81FC000
03F03F8000
03F07F0000
03F0FE0000
03F1FC0000
07E3F80000
07E7F80000
07EFF80000
07DFF80000
0FFFFC0000
0FFEFC0000
0FFCFE0000
0FF87E0000
0FF07F0000
1FC03F0000
1FC03F8000
1F803F8000
1F801FC000
1F801FC000
3F800FE000
3F000FE000
3F0007F000
3F0007F000
7F0003F800
7F0003F800
7E0001F800
7E0001FC00
7E0001FC00
FE0000FE00
FE0000FE00
0000000000
0000000000
0000000000
0000000000
0000000000
000FC00000
000FC00000
001F800000
001F800000
003F000000
003F000000
007E000000
007C000000
00F8000000
00F8000000
01F0000000
01E0000000
ENDCHAR
STARTCHAR 0138
ENCODING 312
SWIDTH 488 0
DWIDTH 38 0
BBX 38 42 2 0
BITMAP
007E0001FC
007E0003F8
00FE0007F0
00FE000FE0
00FC001FC0
00FC003F80
00FC007F00
01FC00FE00
01FC01FC00
01F803F800
01F807F000
01F80FE000
03F81FC000
03F03F8000
03F07F0000
03F0FE0000
03F1FC0000
07E3F80000
07E7F80000
07EFF80000
07DFF80000
0FFFFC0000
0FFEFC0000
0FFCFE0000
0FF87E0000
0FF07F0000
1FC03F0000
1FC03F8000
1F803F8000
1F801FC000
1F801FC000
3F800FE000
3F000FE000
3F0007F000
3F0007F000
7F0003F800
7F0003F800
7E0001F800
7E0001FC00
7E0001FC00
FE0000FE00
FE0000FE00
ENDCHAR
STARTCHAR 0139
ENCODING 313
SWIDTH 475 0
DWIDTH 37 0
BBX 30 74 3 0
BITMAP
000003FC
000003F8
000007F8
00000FF0
00000FE0
00001FC0
00003F80
00007F00
00007E00
0000FC00
0001F800
0003E000
0003C000
00000000
00000000
00000000
00000000
00000000
000FC000
000FC000
000FC000
001FC000
001FC000
001F8000
001F8000
001F8000
003F8000
003F0000
003F0000
003F0000
007F0000
007F0000
007E0000
007E0000
007E0000
00FE0000
00FE0000
00FC0000
00FC0000
00FC0000
01FC0000
01FC0000
01F80000
01F80000
03F80000
03F80000
03F00000
03F00000
03F00000
07F00000
07F00000
07E00000
07E00000
07E00000
0FE00000
0FE00000
0FC00000
0FC00000
0FC00000
1FC00000
1F800000
1F800000
1F800000
3F800000
3F800000
3F000000
3F000000
3F000000
7FFFFFFC
7FFFFFF8
7FFFFFF8
7FFFFFF8
7FFFFFF8
FFFFFFF0
ENDCHAR
STARTCHAR 013A
ENCODING 314
SWIDTH 244 0
DWIDTH 19 0
BBX 29 77 2 0
BITMAP
000003F8
000007F8
00000FF0
00000FE0
00001FC0
00003F80
00007F00
0000FE00
0000FC00
0001F800
0003E000
0007C000
00000000
00000000
00000000
00000000
00000000
00000000
0007E000
000FE000
000FE000
000FC000
000FC000
000FC000
001FC000
001F8000
001F8000
001F8000
003F8000
003F8000
003F0000
003F0000
003F0000
007F0000
007F0000
007E0000
007E0000
007E0000
00FE0000
00FC0000
00FC0000
00FC0000
01FC0000
01FC0000
01F80000
01F80000
01F80000
03F80000
03F80000
03F00000
03F00000
03F00000
07F00000
07E00000
07E00000
07E00000
0FE00000
0FE00000
0FC00000
0FC00000
0FC00000
1FC00000
1FC00000
1F800000
1F800000
1F800000
3F800000
3F800000
3F000000
3F000000
7F000000
7F000000
7E000000
7E000000
7E000000
FE000000
FE000000
ENDCHAR
STARTCHAR 013B
ENCODING 315
SWIDTH 475 0
DWIDTH 37 0
BBX 30 73 3 -17
BITMAP
000FC000
000FC000
000FC000
001FC000
001FC000
001F8000
001F8000
001F8000
003F8000
003F0000
003F0000
003F0000
007F0000
007F0000
007E0000
007E0000
007E0000
00FE0000
00FE0000
00FC0000
00FC0000
00FC0000
01FC0000
01FC0000
01F80000
01F80000
03F80000
03F80000
03F00000
03F00000
03F00000
07F00000
07F00000
07E00000
07E00000
07E00000
0FE00000
0FE00000
0FC00000
0FC00000
0FC00000
1FC00000
1F800000
1F800000
1F800000
3F800000
3F800000
3F000000
3F000000
3F000000
7FFFFFFC
7FFFFFF8
7FFFFFF8
7FFFFFF8
7FFFFFF8
FFFFFFF0
00000000
00000000
00000000
00000000
00000000
001FC000
001F8000
001F8000
003F0000
003F0000
007E0000
007C0000
00FC0000
00F80000
01F00000
03E00000
03C00000
ENDCHAR
STARTCHAR 013C
ENCODING 316
SWIDTH 244 0
DWIDTH 19 0
BBX 24 76 -3 -17
BITMAP
00003F
00007F
00007F
00007E
00007E
00007E
0000FE
0000FC
0000FC
0000FC
0001FC
0001FC
0001F8
0001F8
0001F8
0003F8
0003F8
0003F0
0003F0
0003F0
0007F0
0007E0
0007E0
0007E0
000FE0
000FE0
000FC0
000FC0
000FC0
001FC0
001FC0
001F80
001F80
001F80
003F80
003F00
003F00
003F00
007F00
007F00
007E00
007E00
007E00
00FE00
00FE00
00FC00
00FC00
00FC00
01FC00
01FC00
01F800
01F800
03F800
03F800
03F000
03F000
03F000
07F000
07F000
000000
000000
000000
000000
000000
03F000
07E000
07E000
0FC000
0FC000
1F8000
1F0000
3F0000
3E0000
7C0000
780000
F00000
ENDCHAR
STARTCHAR 013D
ENCODING 317
SWIDTH 475 0
DWIDTH 37 0
BBX 37 56 3 0
BITMAP
000FC00000
000FC001F8
000FC003F0
001FC003F0
001FC007E0
001F8007E0
001F800FC0
001F800F80
003F801F80
003F001F00
003F003E00
003F003C00
007F007800
007F000000
007E000000
007E000000
007E000000
00FE000000
00FE000000
00FC000000
00FC000000
00FC000000
01FC000000
01FC000000
01F8000000
01F8000000
03F8000000
03F8000000
03F0000000
03F0000000
03F0000000
07F0000000
07F0000000
07E0000000
07E0000000
07E0000000
0FE0000000
0FE0000000
0FC0000000
0FC0000000
0FC0000000
1FC0000000
1F80000000
1F80000000
1F80000000
3F80000000
3F80000000
3F00000000
3F00000000
3F00000000
7FFFFFFC00
7FFFFFF800
7FFFFFF800
7FFFFFF800
7FFFFFF800
FFFFFFF000
ENDCHAR
STARTCHAR 013E
ENCODING 318
SWIDTH 270 0
DWIDTH 21 0
BBX 31 59 2 0
BITMAP
0007E07E
000FE07E
000FE0FC
000FC0FC
000FC1F8
000FC1F8
001FC3F0
001F83E0
001F87C0
001F87C0
003F8F80
003F8F00
003F0000
003F0000
003F0000
007F0000
007F0000
007E0000
007E0000
007E0000
00FE0000
00FC0000
00FC0000
00FC0000
01FC0000
01FC0000
01F80000
01F80000
01F80000
03F80000
03F80000
03F00000
03F00000
03F00000
07F00000
07E00000
07E00000
07E00000
0FE00000
0FE00000
0FC00000
0FC00000
0FC00000
1FC00000
1FC00000
1F800000
1F800000
1F800000
3F800000
3F800000
3F000000
3F000000
7F000000
7F000000
7E000000
7E000000
7E000000
FE000000
FE000000
ENDCHAR
STARTCHAR 013F
ENCODING 319
SWIDTH 475 0
DWIDTH 37 0
BBX 31 56 3 0
BITMAP
000FC000
000FC000
000FC000
001FC000
001FC000
001F8000
001F8000
001F8000
003F8000
003F0000
003F0000
003F0000
007F0000
007F0000
007E0000
007E0000
007E0000
00FE0000
00FE0000
00FC0000
00FC0000
00FC0000
01FC0000
01FC0000
01F80038
01F800FC
03F800FE
03F801FE
03F001FE
03F001FE
03F001FC
07F000F8
07F00000
07E00000
07E00000
07E00000
0FE00000
0FE00000
0FC00000
0FC00000
0FC00000
1FC00000
1F800000
1F800000
1F800000
3F800000
3F800000
3F000000
3F000000
3F000000
7FFFFFFC
7FFFFFF8
7FFFFFF8
7FFFFFF8
7FFFFFF8
FFFFFFF0
ENDCHAR
STARTCHAR 0140
ENCODING 320
SWIDTH 282 0
DWIDTH 22 0
BBX 25 59 2 0
BITMAP
0007E000
000FE000
000FE000
000FC000
000FC000
000FC000
001FC000
001F8000
001F8000
001F8000
003F8000
003F8000
003F0000
003F0000
003F0000
007F0000
007F0000
007E0000
007E0000
007E0000
00FE0000
00FC0000
00FC0000
00FC0000
01FC0000
01FC0000
01F80800
01F83F00
01F87F00
03F87F80
03F87F00
03F07F00
03F07F00
03F03E00
07F01800
07E00000
07E00000
07E00000
0FE00000
0FE00000
0FC00000
0FC00000
0FC00000
1FC00000
1FC00000
1F800000
1F800000
1F800000
3F800000
3F800000
3F000000
3F000000
7F000000
7F000000
7E000000
7E000000
7E000000
FE000000
FE000000
ENDCHAR
STARTCHAR 0141
ENCODING 321
SWIDTH 475 0
DWIDTH 37 0
BBX 32 56 1 0
BITMAP
0003F000
0003F000
0007F000
0007F000
0007F000
0007E000
0007E000
000FE000
000FE000
000FC000
000FC000
000FC000
001FC000
001FC000
001F8000
001F8000
001F8000
003F8000
003F8000
003F0000
003F0000
007F0100
007F0780
007E0FC0
007E3FC0
007EFFC0
00FFFF00
00FFFC00
00FFF000
00FFE000
01FF8000
03FE0000
0FFC0000
3FF80000
FFF80000
FFF80000
7FF80000
7BF80000
23F00000
03F00000
03F00000
07F00000
07F00000
07E00000
07E00000
0FE00000
0FE00000
0FC00000
0FC00000
0FC00000
1FFFFFFF
1FFFFFFE
1FFFFFFE
1FFFFFFE
3FFFFFFE
3FFFFFFE
ENDCHAR
STARTCHAR 0142
ENCODING 322
SWIDTH 244 0
DWIDTH 19 0
BBX 21 59 1 0
BITMAP
0003F0
0007F0
0007F0
0007E0
0007E0
0007E0
000FE0
000FC0
000FC0
000FC0
001FC0
001FC0
001F80
001F80
001F80
003F80
003F80
003F00
003F00
003F00
007F00
007F00
007E00
007E00
00FE70
00FEF0
00FFF8
00FFF8
00FFE0
01FFC0
01FF00
07FC00
0FF800
3FF800
FFF800
FFF000
FFF000
73F000
47F000
07F000
07E000
07E000
07E000
0FE000
0FE000
0FC000
0FC000
0FC000
1FC000
1FC000
1F8000
1F8000
1F8000
3F8000
3F0000
3F0000
3F0000
7F0000
7F0000
ENDCHAR
STARTCHAR 0143
ENCODING 323
SWIDTH 694 0
DWIDTH 54 0
BBX 52 74 3 0
BITMAP
0000000003FC00
0000000003F800
0000000007F000
000000000FF000
000000001FE000
000000001FC000
000000003F8000
000000007F0000
00000000FE0000
00000000F80000
00000001F00000
00000003E00000
00000007C00000
00000000000000
00000000000000
00000000000000
00000000000000
00000000000000
000FE0000003F0
000FE0000003F0
001FE0000007F0
001FF0000007E0
001FF0000007E0
001FF8000007E0
001FF8000007E0
003FF800000FE0
003FFC00000FC0
003FFC00000FC0
003EFC00000FC0
003E7E00000FC0
007E7E00001F80
007E7F00001F80
007E3F00001F80
007E3F00001F80
007C3F80003F80
00FC1F80003F00
00FC1FC0003F00
00FC0FC0003F00
00FC0FC0003F00
01FC0FE0007F00
01F807E0007E00
01F807E0007E00
01F803F0007E00
01F803F0007E00
03F803F800FE00
03F001F800FC00
03F001F800FC00
03F001FC00FC00
03F000FC01FC00
07E000FC01F800
07E0007E01F800
07E0007E01F800
07E0007F01F800
07E0003F03F800
0FC0003F03F000
0FC0003F83F000
0FC0001F83F000
0FC0001F83F000
1FC0000FC7F000
1F80000FC7E000
1F80000FE7E000
1F800007E7E000
1F800007E7E000
3F000003F7E000
3F000003F7C000
3F000003FFC000
3F000001FFC000
3F000001FFC000
7E000001FF8000
7E000000FF8000
7E000000FF8000
7E0000007F8000
FE0000007F8000
FC0000007F0000
ENDCHAR
STARTCHAR 0144
ENCODING 324
SWIDTH 565 0
DWIDTH 44 0
BBX 39 60 2 0
BITMAP
00000001FC
00000003FC
00000003F8
00000007F0
0000000FE0
0000001FC0
0000001F80
0000003F00
0000007E00
000000FC00
000001F800
000001F000
000003E000
0000000000
0000000000
0000000000
0000000000
0000001800
007C03FF80
007C0FFFE0
00FC1FFFF0
00FC3FFFF8
00FC7FFFF8
00FCFF07FC
01FDF803FC
01FFF001FC
01FFC000FE
01FF8000FE
01FF0000FE
03FF0000FE
03FE0000FC
03FC0000FC
03FC0001FC
03F80001FC
07F80001FC
07F00001FC
07F00001F8
07F00003F8
07E00003F8
0FE00003F8
0FE00003F8
0FE00007F0
0FC00007F0
1FC00007F0
1FC00007F0
1FC00007E0
1FC0000FE0
1F80000FE0
3F80000FE0
3F80000FE0
3F80000FC0
3F80001FC0
3F00001FC0
7F00001FC0
7F00001F80
7F00003F80
7E00003F80
FE00003F80
FE00003F80
FE00003F00
ENDCHAR
STARTCHAR 0145
ENCODING 325
SWIDTH 694 0
DWIDTH 54 0
BBX 52 73 3 -17
BITMAP
000FE0000003F0
000FE0000003F0
001FE0000007F0
001FF0000007E0
001FF0000007E0
001FF8000007E0
001FF8000007E0
003FF800000FE0
003FFC00000FC0
003FFC00000FC0
003EFC00000FC0
003E7E00000FC0
007E7E00001F80
007E7F00001F80
007E3F00001F80
007E3F00001F80
007C3F80003F80
00FC1F80003F00
00FC1FC0003F00
00FC0FC0003F00
00FC0FC0003F00
01FC0FE0007F00
01F807E0007E00
01F807E0007E00
01F803F0007E00
01F803F0007E00
03F803F800FE00
03F001F800FC00
03F001F800FC00
03F001FC00FC00
03F000FC01FC00
07E000FC01F800
07E0007E01F800
07E0007E01F800
07E0007F01F800
07E0003F03F800
0FC0003F03F000
0FC0003F83F000
0FC0001F83F000
0FC0001F83F000
1FC0000FC7F000
1F80000FC7E000
1F80000FE7E000
1F800007E7E000
1F800007E7E000
3F000003F7E000
3F000003F7C000
3F000003FFC000
3F000001FFC000
3F000001FFC000
7E000001FF8000
7E000000FF8000
7E000000FF8000
7E0000007F8000
FE0000007F8000
FC0000007F0000
00000000000000
00000000000000
00000000000000
00000000000000
00000000000000
00007E00000000
00007E00000000
0000FC00000000
0000FC00000000
0001F800000000
0001F000000000
0003F000000000
0003E000000000
0007C000000000
0007C000000000
000F8000000000
000F0000000000
ENDCHAR
STARTCHAR 0146
ENCODING 326
SWIDTH 565 0
DWIDTH 44 0
BBX 39 60 2 -17
BITMAP
0000001800
007C03FF80
007C0FFFE0
00FC1FFFF0
00FC3FFFF8
00FC7FFFF8
00FCFF07FC
01FDF803FC
01FFF001FC
01FFC000FE
01FF8000FE
01FF0000FE
03FF0000FE
03FE0000FC
03FC0000FC
03FC0001FC
03F80001FC
07F80001FC
07F00001FC
07F00001F8
07F00003F8
07E00003F8
0FE00003F8
0FE00003F8
0FE00007F0
0FC00007F0
1FC00007F0
1FC00007F0
1FC00007E0
1FC0000FE0
1F80000FE0
3F80000FE0
3F80000FE0
3F80000FC0
3F80001FC0
3F00001FC0
7F00001FC0
7F00001F80
7F00003F80
7E00003F80
FE00003F80
FE00003F80
FE00003F00
0000000000
0000000000
0000000000
0000000000
0000000000
0007F00000
0007E00000
000FE00000
000FC00000
001F800000
001F800000
003F000000
003E000000
007E000000
007C000000
00F8000000
00F0000000
ENDCHAR
STARTCHAR 0147
ENCODING 327
SWIDTH 694 0
DWIDTH 54 0
BBX 52 73 3 0
BITMAP
000000F0007E00
000000F800FC00
0000007C01F800
0000007E07F000
0000003F0FE000
0000001F1FC000
0000001FBF8000
0000000FFF0000
0000000FFE0000
00000007FC0000
00000007F80000
00000003F00000
00000000000000
00000000000000
00000000000000
00000000000000
00000000000000
000FE0000003F0
000FE0000003F0
001FE0000007F0
001FF0000007E0
001FF0000007E0
001FF8000007E0
001FF8000007E0
003FF800000FE0
003FFC00000FC0
003FFC00000FC0
003EFC00000FC0
003E7E00000FC0
007E7E00001F80
007E7F00001F80
007E3F00001F80
007E3F00001F80
007C3F80003F80
00FC1F80003F00
00FC1FC0003F00
00FC0FC0003F00
00FC0FC0003F00
01FC0FE0007F00
01F807E0007E00
01F807E0007E00
01F803F0007E00
01F803F0007E00
03F803F800FE00
03F001F800FC00
03F001F800FC00
03F001FC00FC00
03F000FC01FC00
07E000FC01F800
07E0007E01F800
07E0007E01F800
07E0007F01F800
07E0003F03F800
0FC0003F03F000
0FC0003F83F000
0FC0001F83F000
0FC0001F83F000
1FC0000FC7F000
1F80000FC7E000
1F80000FE7E000
1F800007E7E000
1F800007E7E000
3F000003F7E000
3F000003F7C000
3F000003FFC000
3F000001FFC000
3F000001FFC000
7E000001FF8000
7E000000FF8000
7E000000FF8000
7E0000007F8000
FE0000007F8000
FC0000007F0000
ENDCHAR
STARTCHAR 0148
ENCODING 328
SWIDTH 565 0
DWIDTH 44 0
BBX 40 60 2 0
BITMAP
0000F0000F
000078003F
00007C007E
00003E00FC
00003F03F8
00001F87F0
00000F8FE0
00000FDFC0
000007FF80
000007FF00
000003FE00
000003FC00
000001F800
0000000000
0000000000
0000000000
0000000000
0000001800
007C03FF80
007C0FFFE0
00FC1FFFF0
00FC3FFFF8
00FC7FFFF8
00FCFF07FC
01FDF803FC
01FFF001FC
01FFC000FE
01FF8000FE
01FF0000FE
03FF0000FE
03FE0000FC
03FC0000FC
03FC0001FC
03F80001FC
07F80001FC
07F00001FC
07F00001F8
07F00003F8
07E00003F8
0FE00003F8
0FE00003F8
0FE00007F0
0FC00007F0
1FC00007F0
1FC00007F0
1FC00007E0
1FC0000FE0
1F80000FE0
3F80000FE0
3F80000FE0
3F80000FC0
3F80001FC0
3F00001FC0
7F00001FC0
7F00001F80
7F00003F80
7E00003F80
FE00003F80
FE00003F80
FE00003F00
ENDCHAR
STARTCHAR 0149
ENCODING 329
SWIDTH 642 0
DWIDTH 50 0
BBX 44 56 3 0
BITMAP
00FE00000000
00FE00000000
00FE00000000
01FC00000000
01FC00000000
03F800000000
03F800000000
03F000000000
07F000000000
07E000000000
0FE000000000
0FC000000000
0FC000000000
1F800000C000
1F03E01FFC00
3F07E07FFF00
3E07E0FFFF80
7E07E1FFFFC0
7C07E3FFFFC0
F807E7F83FE0
000FEFC01FE0
000FDF800FE0
000FFE000FE0
000FFC0007F0
000FF80007F0
001FF80007E0
001FF00007E0
001FE0000FE0
001FE0000FE0
003FC0000FE0
003FC0000FE0
003F80000FC0
003F80001FC0
003F80001FC0
007F00001FC0
007F00001FC0
007F00001F80
007F00003F80
007E00003F80
00FE00003F80
00FE00003F80
00FE00003F00
00FC00007F00
01FC00007F00
01FC00007F00
01FC00007E00
01FC0000FE00
01F80000FE00
03F80000FE00
03F80000FE00
03F80000FC00
03F80001FC00
03F00001FC00
07F00001FC00
07F00001F800
07F00001F800
ENDCHAR
STARTCHAR 014A
ENCODING 330
SWIDTH 694 0
DWIDTH 54 0
BBX 52 71 3 -15
BITMAP
000FE0000003F0
000FE0000003F0
001FE0000007F0
001FF0000007E0
001FF0000007E0
001FF8000007E0
001FF8000007E0
003FF800000FE0
003FFC00000FC0
003FFC00000FC0
003EFE00000FC0
003E7E00001FC0
007E7E00001F80
007E7F00001F80
007E3F00001F80
007E3F00001F80
007C1F80003F80
00FC1F80003F00
00FC1FC0003F00
00FC0FC0003F00
00FC0FC0003F00
01FC07E0007F00
01F807E0007E00
01F807E0007E00
01F803F0007E00
01F803F000FE00
03F803F800FE00
03F001F800FC00
03F001F800FC00
03F000FC00FC00
03F000FC01FC00
07E000FE01F800
07E0007E01F800
07E0007E01F800
07E0003F01F800
07E0003F03F800
0FC0003F03F000
0FC0001F83F000
0FC0001F83F000
0FC0000FC3F000
1FC0000FC7F000
1F80000FC7E000
1F800007E7E000
1F800007E7E000
1F800007F7E000
3F000003F7E000
3F000003FFC000
3F000001FFC000
3F000001FFC000
3F000001FFC000
7E000000FF8000
7E000000FF8000
7E0000007F8000
7E0000007F8000
FE0000007F8000
FC0000003F0000
000000003F0000
000000003F0000
000000007F0000
000000007E0000
00000000FE0000
00000001FE0000
00000001FC0000
00000007FC0000
0000301FF80000
00003FFFF00000
00003FFFE00000
00003FFFC00000
00003FFF800000
00003FFE000000
00000180000000
ENDCHAR
STARTCHAR 014B
ENCODING 331
SWIDTH 565 0
DWIDTH 44 0
BBX 38 61 2 -19
BITMAP
007C01FF80
007C07FFE0
007C1FFFF0
00FC3FFFF8
00FC7FFFF8
00FCFE07FC
00F9F801FC
00FBE001FC
01FFC000FC
01FF8000FC
01FF0000FC
01FE0000FC
03FE0000FC
03FC0000FC
03FC0000FC
03F80001FC
03F80001FC
07F00001F8
07F00001F8
07E00001F8
07E00003F8
07E00003F8
0FE00003F0
0FC00003F0
0FC00007F0
0FC00007F0
1FC00007E0
1FC00007E0
1F800007E0
1F80000FE0
1F80000FE0
3F80000FC0
3F80000FC0
3F00000FC0
3F00001FC0
3F00001FC0
7F00001F80
7F00001F80
7E00003F80
7E00003F80
7E00003F00
FE00003F00
0000003F00
0000007F00
0000007F00
0000007E00
0000007E00
0000007E00
000000FE00
000000FE00
000000FC00
000001FC00
000001FC00
000003F800
000007F800
0003FFF000
0003FFF000
0003FFE000
0003FFC000
0003FF0000
0000F00000
ENDCHAR
STARTCHAR 014C
ENCODING 332
SWIDTH 720 0
DWIDTH 56 0
BBX 48 67 6 -1
BITMAP
000007FFFF80
00000FFFFF80
00000FFFFF80
00000FFFFF80
00000FFFFF80
000000000000
000000000000
000000000000
000000000000
000000000000
000007FFC000
00003FFFF800
0000FFFFFE00
0003FFFFFF00
0007FFFFFF80
000FFF83FFC0
003FF8007FE0
007FE0001FF0
00FF80000FF8
00FF000007F8
01FE000003FC
03FC000001FC
03F8000001FC
07F0000001FE
0FF0000000FE
0FE0000000FE
1FE0000000FE
1FC0000000FE
1FC00000007E
3F800000007E
3F800000007F
3F800000007F
7F000000007F
7F000000007E
7F000000007E
7E000000007E
FE00000000FE
FE00000000FE
FE00000000FE
FE00000000FE
FE00000000FE
FE00000000FE
FE00000001FC
FE00000001FC
FE00000001FC
FE00000003FC
FE00000003F8
FE00000003F8
FE00000007F8
FE00000007F0
FE0000000FF0
FE0000000FE0
7F0000001FE0
7F0000003FC0
7F8000003FC0
3F8000007F80
3FC00000FF00
3FE00001FF00
1FF00007FE00
0FF8001FFC00
07FF007FF800
07FFFFFFF000
01FFFFFFC000
00FFFFFF8000
003FFFFE0000
000FFFF00000
0000FF000000
ENDCHAR
STARTCHAR 014D
ENCODING 333
SWIDTH 552 0
DWIDTH 43 0
BBX 36 53 4 -1
BITMAP
000FFFFF80
000FFFFF80
000FFFFF80
000FFFFF80
000FFFFF00
0000000000
0000000000
0000000000
0000000000
0000000000
0000FFC000
0007FFF000
001FFFFC00
003FFFFE00
00FFFFFF00
01FFC0FF80
01FE003FC0
03FC001FC0
07F8000FE0
0FF0000FE0
0FE00007E0
1FC00007F0
1FC00007F0
3F800003F0
3F800003F0
3F000003F0
7F000003F0
7E000003F0
7E000007F0
7E000007F0
FE000007F0
FE000007F0
FC000007E0
FC000007E0
FC00000FE0
FC00000FE0
FC00000FC0
FC00000FC0
FC00001FC0
FC00001F80
FE00003F80
FE00007F00
7E00007F00
7F0000FE00
7F8001FC00
3FC003FC00
3FE00FF800
1FFFFFF000
0FFFFFE000
07FFFF8000
01FFFF0000
007FFC0000
0003000000
ENDCHAR
STARTCHAR 014E
ENCODING 334
SWIDTH 720 0
DWIDTH 56 0
BBX 48 72 6 -1
BITMAP
0000078003C0
0000078003C0
0000078007C0
000007C00F80
000007F8FF80
000003FFFF00
000003FFFE00
000001FFFC00
000000FFF800
0000001FC000
000000000000
000000000000
000000000000
000000000000
000000000000
000007FFC000
00003FFFF800
0000FFFFFE00
0003FFFFFF00
0007FFFFFF80
000FFF83FFC0
003FF8007FE0
007FE0001FF0
00FF80000FF8
00FF000007F8
01FE000003FC
03FC000001FC
03F8000001FC
07F0000001FE
0FF0000000FE
0FE0000000FE
1FE0000000FE
1FC0000000FE
1FC00000007E
3F800000007E
3F800000007F
3F800000007F
7F000000007F
7F000000007E
7F000000007E
7E000000007E
FE00000000FE
FE00000000FE
FE00000000FE
FE00000000FE
FE00000000FE
FE00000000FE
FE00000001FC
FE00000001FC
FE00000001FC
FE00000003FC
FE00000003F8
FE00000003F8
FE00000007F8
FE00000007F0
FE0000000FF0
FE0000000FE0
7F0000001FE0
7F0000003FC0
7F8000003FC0
3F8000007F80
3FC00000FF00
3FE00001FF00
1FF00007FE00
0FF8001FFC00
07FF007FF800
07FFFFFFF000
01FFFFFFC000
00FFFFFF8000
003FFFFE0000
000FFFF00000
0000FF000000
ENDCHAR
STARTCHAR 014F
ENCODING 335
SWIDTH 552 0
DWIDTH 43 0
BBX 36 58 4 -1
BITMAP
00078003C0
00078003C0
00078007C0
0007C00F80
0007F8FF80
0003FFFF00
0003FFFE00
0001FFFC00
0000FFF000
00001F8000
0000000000
0000000000
0000000000
0000000000
0000000000
0000FFC000
0007FFF000
001FFFFC00
003FFFFE00
00FFFFFF00
01FFC0FF80
01FE003FC0
03FC001FC0
07F8000FE0
0FF0000FE0
0FE00007E0
1FC00007F0
1FC00007F0
3F800003F0
3F800003F0
3F000003F0
7F000003F0
7E000003F0
7E000007F0
7E000007F0
FE000007F0
FE000007F0
FC000007E0
FC000007E0
FC00000FE0
FC00000FE0
FC00000FC0
FC00000FC0
FC00001FC0
FC00001F80
FE00003F80
FE00007F00
7E00007F00
7F0000FE00
7F8001FC00
3FC003FC00
3FE00FF800
1FFFFFF000
0FFFFFE000
07FFFF8000
01FFFF0000
007FFC0000
0003000000
ENDCHAR
STARTCHAR 0150
ENCODING 336
SWIDTH 720 0
DWIDTH 56 0
BBX 50 75 6 -1
BITMAP
00000003F81FC0
00000007F01F80
00000007F03F80
0000000FE07F00
0000001FC0FE00
0000001F80FC00
0000003F01F800
0000007E03F000
000000FC07E000
000001F80FC000
000001F00F8000
000003C01E0000
000007803C0000
00000000000000
00000000000000
00000000000000
00000000000000
00000000000000
000007FFC00000
00003FFFF80000
0000FFFFFE0000
0003FFFFFF0000
0007FFFFFF8000
000FFF83FFC000
003FF8007FE000
007FE0001FF000
00FF80000FF800
00FF000007F800
01FE000003FC00
03FC000001FC00
03F8000001FC00
07F0000001FE00
0FF0000000FE00
0FE0000000FE00
1FE0000000FE00
1FC0000000FE00
1FC00000007E00
3F800000007E00
3F800000007F00
3F800000007F00
7F000000007F00
7F000000007E00
7F000000007E00
7E000000007E00
FE00000000FE00
FE00000000FE00
FE00000000FE00
FE00000000FE00
FE00000000FE00
FE00000000FE00
FE00000001FC00
FE00000001FC00
FE00000001FC00
FE00000003FC00
FE00000003F800
FE00000003F800
FE00000007F800
FE00000007F000
FE0000000FF000
FE0000000FE000
7F0000001FE000
7F0000003FC000
7F8000003FC000
3F8000007F8000
3FC00000FF0000
3FE00001FF0000
1FF00007FE0000
0FF8001FFC0000
07FF007FF80000
07FFFFFFF00000
01FFFFFFC00000
00FFFFFF800000
003FFFFE000000
000FFFF0000000
0000FF00000000
ENDCHAR
ENDFONT
